<?xml version="1.0" encoding="UTF-8" standalone="no"?>
<svg
   xmlns:dc="http://purl.org/dc/elements/1.1/"
   xmlns:cc="http://creativecommons.org/ns#"
   xmlns:rdf="http://www.w3.org/1999/02/22-rdf-syntax-ns#"
   xmlns:svg="http://www.w3.org/2000/svg"
   xmlns="http://www.w3.org/2000/svg"
   xmlns:sodipodi="http://sodipodi.sourceforge.net/DTD/sodipodi-0.dtd"
   xmlns:inkscape="http://www.inkscape.org/namespaces/inkscape"
   id="offer"
   width="111"
   height="135"
   viewBox="0 0 111 135"
   version="1.1"
   sodipodi:docname="crumb_icons-24.svg"
   inkscape:version="0.92.1 r15371">
  <metadata
     id="metadata72">
    <rdf:RDF>
      <cc:Work
         rdf:about="">
        <dc:format>image/svg+xml</dc:format>
        <dc:type
           rdf:resource="http://purl.org/dc/dcmitype/StillImage" />
      </cc:Work>
    </rdf:RDF>
  </metadata>
  <defs
     id="defs70" />
  <sodipodi:namedview
     pagecolor="#ffffff"
     bordercolor="#666666"
     borderopacity="1"
     objecttolerance="10"
     gridtolerance="10"
     guidetolerance="10"
     inkscape:pageopacity="0"
     inkscape:pageshadow="2"
     inkscape:window-width="1440"
     inkscape:window-height="855"
     id="namedview68"
     showgrid="false"
     inkscape:zoom="45.254834"
     inkscape:cx="50.724564"
     inkscape:cy="92.695427"
     inkscape:window-x="0"
     inkscape:window-y="0"
     inkscape:window-maximized="1"
     inkscape:current-layer="offer" />
  <style
     id="style61"><![CDATA[
	.st0{fill:#B8B8B8;}
	.st1{fill:#FC6454;}
	.st2{fill:#2E302F;}
	.st3{fill:#00C492;}
]]></style>
  <path
     class="st3"
     d="M55.5 22C38.1 22 24 36.1 24 53.5c0 8.7 3.6 16.7 9.3 22.4.3.3.6.5.8.8.3.3.6.5.9.8 4.4 3.7 9.7 6.3 15.6 7.2.3.1.7.1 1 .1.3 0 .7.1 1 .1.9.1 1.9.1 2.8.1 1.3 0 2.6-.1 3.8-.2.3 0 .7-.1 1-.1.3-.1.7-.1 1-.2 5.9-1.1 11.2-3.9 15.5-7.8.3-.3.6-.5.8-.8.3-.3.6-.6.8-.9 5.3-5.6 8.5-13.2 8.5-21.5C87 36.1 72.9 22 55.5 22zM47 63.4l7.3-7.5c2-2.1 3.5-3.7 4.3-4.8s1.4-2.2 1.8-3.2c.4-1 .6-2.1.6-3.2 0-1.6-.5-2.9-1.6-4-1.1-1-2.4-1.5-4.1-1.5-2.3 0-4.4.8-6.5 2.5l-1-1.3c2.3-1.9 4.8-2.9 7.5-2.9 2.4 0 4.2.6 5.6 1.9 1.4 1.3 2 3 2 5.2 0 1.8-.5 3.5-1.4 5.2-.9 1.7-2.4 3.7-4.8 6.2l-6.6 7H64v2H47v-1.6z"
     id="path63" />
  <path
     class="st2"
     d="M105.3 44.6c-2-1.9-4-3.8-4.6-5.8-.7-2.1-.2-4.9.3-7.7.7-3.7 1.3-7.6-.6-10.3-2-2.7-5.9-3.3-9.7-3.8-2.8-.4-5.6-.8-7.3-2-1.7-1.2-2.9-3.8-4.1-6.3-1.7-3.5-3.4-7-6.6-8.1-.6-.2-1.2-.3-1.9-.3-2.6 0-5.3 1.5-7.9 2.9C60.3 4.6 57.7 6 55.5 6s-4.8-1.4-7.3-2.7C45.6 1.9 42.8.4 40.3.4c-.7 0-1.3.1-1.9.3-3.2 1.1-5 4.6-6.6 8.1-1.2 2.5-2.4 5.1-4.1 6.3-1.7 1.2-4.6 1.6-7.3 2-3.8.5-7.7 1.1-9.7 3.8-2 2.7-1.3 6.5-.6 10.3.5 2.8 1 5.6.3 7.7-.6 1.9-2.7 3.9-4.6 5.8C2.9 47.3 0 50 0 53.5c0 3.5 2.9 6.2 5.7 8.9 2 1.9 4 3.8 4.6 5.8.7 2.1.2 4.9-.3 7.7-.7 3.7-1.3 7.6.6 10.3 2 2.7 5.9 3.3 9.7 3.8 2.8.4 5.6.8 7.3 2 .6.5 1.2 1.1 1.8 1.9l-7.8 35.3 12.2-7.7 7.8 13.3 7-31.1c2.4-1.3 4.9-2.6 7.1-2.6 2.2 0 4.8 1.4 7.3 2.7.3.2.6.3.9.5l6.9 30.5 7.8-13.3 12.2 7.7-8.1-36.3c.3-.4.6-.7 1-.9 1.7-1.2 4.6-1.6 7.3-2 3.8-.5 7.7-1.1 9.6-3.8 2-2.7 1.3-6.5.6-10.3-.5-2.8-1-5.6-.3-7.7.6-1.9 2.7-3.9 4.6-5.8 2.8-2.7 5.7-5.5 5.7-8.9s-3.1-6.2-5.9-8.9zM103.9 61c-2.1 2.1-4.4 4.2-5.1 6.6-.8 2.5-.3 5.6.3 8.6.6 3.5 1.2 6.7-.3 8.7-1.5 2-4.9 2.5-8.3 3-3 .4-6.1.9-8.2 2.4l-.3.3c-.3.2-.6.5-.8.8-.3.3-.6.6-.8 1-1.1 1.5-1.9 3.2-2.8 5-1.5 3.1-3 6.3-5.5 7-.4.1-.8.2-1.3.2-1.6 0-3.5-.8-5.3-1.8l-1.2-.6c-.2-.1-.3-.2-.5-.3-.2-.1-.4-.2-.7-.4-2.5-1.3-5.1-2.6-7.6-2.6-2.1 0-4.3.9-6.5 2l-1.2.6-.6.3c-.2.1-.4.2-.5.3-2.3 1.2-4.6 2.3-6.5 2.3-.5 0-.9-.1-1.3-.2-2.4-.8-4-4-5.5-7-.6-1.3-1.3-2.7-2-3.9-.2-.4-.5-.8-.8-1.1-.3-.3-.5-.7-.8-1-.4-.4-.7-.7-1.1-1-2.1-1.5-5.2-2-8.2-2.4-3.4-.5-6.8-1-8.3-3-1.4-2-.9-5.3-.3-8.7.5-3 1.1-6.1.3-8.6-.8-2.4-3-4.5-5.1-6.6C4.6 58.6 2 56.1 2 53.5c0-2.6 2.6-5.1 5.1-7.5 2.1-2.1 4.4-4.2 5.1-6.6.8-2.5.3-5.6-.3-8.6-.6-3.5-1.2-6.7.3-8.7 1.5-2 4.9-2.5 8.3-3 3-.4 6.1-.8 8.2-2.4 2.1-1.5 3.4-4.3 4.8-7 1.5-3.1 3-6.3 5.5-7 .4-.1.8-.2 1.3-.2 2.1 0 4.6 1.3 7 2.6 2.7 1.5 5.6 3 8.3 3s5.5-1.5 8.3-3c2.4-1.3 4.9-2.6 7-2.6.5 0 .9.1 1.3.2 2.4.8 4 4 5.5 7.1 1.3 2.7 2.7 5.5 4.8 7 2.1 1.5 5.2 2 8.2 2.4 3.4.5 6.8 1 8.3 3 1.4 2 .9 5.3.3 8.7-.5 3-1.1 6.1-.3 8.6.8 2.4 3 4.5 5.1 6.6 2.5 2.4 5.1 4.9 5.1 7.5s-2.8 5-5.3 7.4zm-32.5 68.3l-5.4-24c1.6.7 3.2 1.3 4.8 1.3.7 0 1.3-.1 1.9-.3 3.2-1.1 5-4.6 6.6-8.1.5-1.1 1-2.1 1.6-3.1l6.6 29.8-9.8-6.3-6.3 10.7zm-37.1-10.7l-9.8 6.3 6.3-28.4.9 1.8c1.7 3.5 3.4 7 6.6 8.1.6.2 1.2.3 1.9.3 1.9 0 3.9-.8 5.9-1.8l-5.5 24.5-6.3-10.8zM55.5 12C32.6 12 14 30.6 14 53.5c0 13.7 6.7 25.8 16.9 33.4l.9.6.9.6c4.7 3.1 10 5.3 15.8 6.3.3.1.7.1 1 .2.3 0 .7.1 1 .1 1.7.2 3.3.3 5 .3 2 0 4.1-.2 6-.4.3 0 .7-.1 1-.2.3-.1.7-.1 1-.2 5.8-1.1 11.1-3.4 15.7-6.7l.9-.6c.3-.2.6-.4.9-.7 9.7-7.6 16-19.4 16-32.7C97 30.6 78.4 12 55.5 12zm0 81c-1.6 0-3.1-.1-4.6-.3-.3 0-.7-.1-1-.1s-.7-.1-1-.2c-5.8-1-11.1-3.2-15.8-6.4l-.9-.6c-.3-.2-.6-.4-.9-.7C22 77.5 16 66.2 16 53.5 16 31.7 33.7 14 55.5 14S95 31.7 95 53.5c0 12.3-5.7 23.3-14.5 30.6-.3.2-.6.5-.9.7-.3.2-.6.4-.9.7-4.6 3.3-9.9 5.7-15.7 6.9-.3.1-.7.1-1 .2-.3.1-.7.1-1 .2-1.7.1-3.6.2-5.5.2zm22.6-14.8c.3-.3.6-.5.8-.8 6.2-6.1 10-14.5 10-23.9C89 35 74 20 55.5 20S22 35 22 53.5c0 9.7 4.2 18.5 10.8 24.6.3.3.6.5.9.8.3.2.6.5.9.7 4.4 3.6 9.8 6 15.7 7 .3.1.7.1 1 .1s.7.1 1 .1c1.1.1 2.2.2 3.3.2 1.4 0 2.9-.1 4.3-.3.3 0 .7-.1 1-.1.3-.1.7-.1 1-.2 5.9-1.1 11.2-3.8 15.6-7.5.1-.2.4-.5.6-.7zM55.5 85c-1 0-1.9 0-2.8-.1-.3 0-.7-.1-1-.1-.3 0-.7-.1-1-.1-5.9-.9-11.3-3.5-15.6-7.2-.3-.2-.6-.5-.9-.8-.3-.3-.6-.5-.8-.8-5.8-5.7-9.4-13.7-9.4-22.4C24 36.1 38.1 22 55.5 22S87 36.1 87 53.5c0 8.3-3.2 15.9-8.5 21.5-.3.3-.5.6-.8.9-.3.3-.6.5-.8.8-4.3 3.9-9.6 6.7-15.5 7.8-.3.1-.7.1-1 .2-.3.1-.7.1-1 .1-1.3.1-2.6.2-3.9.2z"
     id="path65" />
  <path
     style="fill:#ff7f2a;fill-opacity:1;stroke:#000000;stroke-width:0.20642202;stroke-linecap:round;stroke-linejoin:miter;stroke-opacity:1;paint-order:markers fill stroke"
     d="M 52.424312,84.774344 C 40.592783,83.535535 30.683071,75.935556 26.207001,64.667702 25.437009,62.729358 24.85778,60.591396 24.462869,58.230023 24.020802,55.586673 24.167943,49.62376 24.738277,47.069086 27.097273,36.502538 34.368369,27.948482 44.166342,24.213004 48.252909,22.655 51.018776,22.162239 55.623853,22.171757 c 4.807934,0.0099 8.888982,0.889405 13.150059,2.833846 3.524249,1.608207 8.04047,4.965238 10.227546,7.602415 0.596213,0.718916 1.22322,1.454247 1.393349,1.634069 0.170127,0.179822 0.309321,0.425331 0.309321,0.545576 0,0.120244 0.139335,0.272094 0.309633,0.337443 0.170299,0.06535 0.309633,0.261068 0.309633,0.434929 0,0.173862 0.09289,0.316112 0.206423,0.316112 0.113532,0 0.206422,0.139335 0.206422,0.309633 0,0.170298 0.09289,0.309633 0.206422,0.309633 0.113532,0 0.206422,0.139335 0.206422,0.309633 0,0.170298 0.09837,0.309633 0.218605,0.309633 0.120232,0 0.161195,0.09289 0.09103,0.206422 -0.07017,0.113532 -0.02372,0.206422 0.103211,0.206422 0.126933,0 0.173378,0.09289 0.103211,0.206422 -0.07017,0.113532 -0.03927,0.206422 0.06865,0.206422 0.107926,0 0.254513,0.232225 0.325749,0.516055 0.07124,0.28383 0.226125,0.516055 0.344194,0.516055 0.118069,0 0.157263,0.09289 0.0871,0.206422 -0.07017,0.113532 -0.02372,0.206422 0.103211,0.206422 0.126933,0 0.173378,0.09289 0.103211,0.206422 -0.07017,0.113532 -0.02921,0.206422 0.09103,0.206422 0.120232,0 0.203367,0.06967 0.184743,0.154817 -0.06974,0.318874 0.292573,1.290137 0.481267,1.290137 0.107924,0 0.138817,0.09289 0.06865,0.206422 -0.07017,0.113532 -0.03212,0.206422 0.08455,0.206422 0.11667,0 0.158658,0.139335 0.09331,0.309633 -0.06535,0.170298 -0.016,0.309633 0.109689,0.309633 0.12568,0 0.217507,0.06967 0.204062,0.154817 -0.01344,0.08515 -0.0019,0.224484 0.0258,0.309633 0.08865,0.273146 0.130638,0.449038 0.295646,1.238532 0.08898,0.425745 0.221115,0.7745 0.293629,0.775007 0.07251,4.13e-4 0.149964,0.347146 0.172109,0.770303 0.02214,0.423157 0.138835,0.802235 0.259313,0.842394 0.120476,0.04016 0.172928,0.147643 0.116556,0.238853 -0.05637,0.09121 0.04487,1.128288 0.224973,2.304617 0.42337,2.765145 0.278299,7.876369 -0.304447,10.726444 -0.871809,4.263804 -2.674922,8.447204 -5.147843,11.943491 -1.827743,2.584119 -5.454675,6.218969 -7.728955,7.74583 -0.993406,0.666933 -1.806192,1.294226 -1.806192,1.393984 0,0.09976 -0.09289,0.123969 -0.206422,0.0538 -0.113533,-0.07017 -0.206422,-0.01373 -0.206422,0.125432 0,0.139155 -0.05762,0.195387 -0.128048,0.12496 -0.148657,-0.148657 -2.624774,1.053912 -2.727886,1.324845 -0.03808,0.100057 -0.154193,0.129416 -0.258027,0.06524 -0.103835,-0.06417 -0.188792,-0.01283 -0.188792,0.114108 0,0.126933 -0.08647,0.177345 -0.192158,0.112027 -0.105688,-0.06532 -0.251441,-0.02284 -0.323897,0.0944 -0.07246,0.117235 -0.218208,0.159715 -0.323897,0.09439 -0.105686,-0.06532 -0.192158,-0.0233 -0.192158,0.09337 0,0.11667 -0.139335,0.158658 -0.309633,0.09331 -0.170298,-0.06535 -0.309633,-0.01051 -0.309633,0.121872 0,0.132378 -0.08647,0.187247 -0.192158,0.121929 -0.105688,-0.06532 -0.251441,-0.02284 -0.323897,0.0944 -0.07246,0.117235 -0.211791,0.16368 -0.309633,0.103211 -0.09784,-0.06047 -0.237177,-0.01402 -0.309633,0.103211 -0.07246,0.117235 -0.218209,0.159715 -0.323897,0.09439 -0.105686,-0.06532 -0.30827,-0.04622 -0.450186,0.04243 -0.141915,0.08866 -0.350917,0.1816 -0.464449,0.206538 -0.113532,0.02494 -0.392202,0.09274 -0.619266,0.150681 -1.231687,0.314276 -2.45867,0.546129 -3.405963,0.643602 -1.959127,0.201585 -5.658606,0.241045 -7.224771,0.07706 z m 11.725759,-20.773197 -0.06292,-0.980505 -6.836877,-0.103211 -6.836877,-0.103211 3.80513,-4.025229 c 7.266555,-7.686869 8.921853,-10.497016 8.690022,-14.752763 -0.202844,-3.723648 -2.453885,-6.086963 -6.176671,-6.484741 -3.241178,-0.346319 -5.820886,0.430832 -8.932442,2.690946 -0.18469,0.134152 0.665575,1.380048 0.956871,1.402109 0.08295,0.0063 0.650822,-0.308433 1.261947,-0.699365 3.198313,-2.045937 7.220506,-2.11277 9.288489,-0.154338 1.483285,1.404706 1.968884,3.981259 1.204985,6.393558 -0.88777,2.803463 -2.089623,4.301028 -10.203247,12.713726 -3.178975,3.296155 -3.457569,3.645388 -3.457569,4.334272 v 0.749256 h 8.681035 8.681035 z"
     id="path76"
     inkscape:connector-curvature="0" />
  <path
     style="fill:#ff7f2a;fill-opacity:1;stroke:#ff7f2a;stroke-width:0.00390625;stroke-linecap:round;stroke-linejoin:miter;stroke-opacity:1;paint-order:markers fill stroke"
     d="m 50.126225,62.975019 c 0.01078,-0.01235 0.02817,-0.03083 0.03865,-0.04106 l 0.01904,-0.01859 0.247872,0.0041 c 0.13633,0.0022 1.064377,0.01629 2.062326,0.03124 2.739351,0.04105 2.872428,0.04314 2.874675,0.04527 8.95e-4,8.5e-4 -1.182727,0.0015 -2.63027,0.0015 h -2.631897 z"
     id="path812"
     inkscape:connector-curvature="0" />
  <path
     style="fill:#ff7f2a;fill-opacity:1;stroke:#ff7f2a;stroke-width:0.00390625;stroke-linecap:round;stroke-linejoin:miter;stroke-opacity:1;paint-order:markers fill stroke"
     d="m 64.004223,64.132021 c 3.61e-4,-0.40874 0.0013,-0.736133 0.0021,-0.727539 7.76e-4,0.0086 0.02153,0.332031 0.04612,0.71875 0.02459,0.386719 0.04577,0.714111 0.04707,0.727539 l 0.0024,0.02441 h -0.04914 -0.04914 z"
     id="path814"
     inkscape:connector-curvature="0" />
  <path
     style="fill:#ff7f2a;fill-opacity:1;stroke:#ff7f2a;stroke-width:0.00390625;stroke-linecap:round;stroke-linejoin:miter;stroke-opacity:1;paint-order:markers fill stroke"
     d="m 54.131701,56.053771 c 0.140369,-0.147383 0.725726,-0.772236 1.005462,-1.073305 0.681511,-0.733481 1.158119,-1.257281 1.714894,-1.884696 0.307665,-0.3467 0.686058,-0.78664 0.981893,-1.141602 l 0.06755,-0.08105 h 0.04524 0.04524 l -0.0079,0.0088 c -0.0043,0.0048 -0.03052,0.03603 -0.05821,0.06934 -0.589798,0.709319 -1.504451,1.711329 -3.030841,3.320312 -0.638073,0.672599 -0.773128,0.8125 -0.784356,0.8125 -0.006,0 -0.0012,-0.0069 0.02099,-0.03028 z"
     id="path818"
     inkscape:connector-curvature="0" />
  <path
     style="fill:#ff7f2a;fill-opacity:1;stroke:#ff7f2a;stroke-width:0.00390625;stroke-linecap:round;stroke-linejoin:miter;stroke-opacity:1;paint-order:markers fill stroke"
     d="m 46.955786,64.498295 c 0.0018,-0.397179 0.0024,-0.41189 0.02037,-0.510742 0.02152,-0.118373 0.02071,-0.133737 0.02113,0.401367 l 3.87e-4,0.489258 h -0.02182 -0.02181 z"
     id="path820"
     inkscape:connector-curvature="0" />
  <path
     style="fill:#ff7f2a;fill-opacity:1;stroke:#ff7f2a;stroke-width:0.00390625;stroke-linecap:round;stroke-linejoin:miter;stroke-opacity:1;paint-order:markers fill stroke"
     d="m 50.215292,40.693368 c 0.0043,-0.0033 0.05703,-0.03548 0.117187,-0.07158 0.614305,-0.36865 1.223731,-0.659919 1.84961,-0.884001 0.453452,-0.162348 0.946949,-0.295871 1.404296,-0.379952 0.468297,-0.08609 0.889456,-0.131981 1.38086,-0.150448 0.110666,-0.0042 0.532396,-0.0045 0.632812,-4.72e-4 l 0.06055,0.0024 0.0012,0.03075 0.0011,0.03075 -0.04998,-0.0025 c -0.109212,-0.0054 -0.570605,-0.0072 -0.68865,-0.0027 -0.660482,0.02499 -1.299708,0.118086 -1.958984,0.28529 -0.93041,0.23597 -1.854268,0.61774 -2.686293,1.110071 -0.05981,0.03539 -0.08345,0.04741 -0.06371,0.03239 z"
     id="path824"
     inkscape:connector-curvature="0" />
  <path
     style="fill:#ff7f2a;fill-opacity:1;stroke:#ff7f2a;stroke-width:0.00390625;stroke-linecap:round;stroke-linejoin:miter;stroke-opacity:1;paint-order:markers fill stroke"
     d="m 58.721295,40.197799 c -0.0735,-0.04885 -0.203799,-0.127947 -0.28711,-0.174286 -0.771981,-0.429394 -1.678348,-0.680664 -2.695304,-0.747215 -0.04294,-0.0028 -0.06942,-0.0062 -0.07123,-0.009 -0.0016,-0.0025 -0.0029,-0.0166 -0.0029,-0.03136 l -6e-5,-0.02684 0.0498,0.0027 c 0.820707,0.04389 1.519851,0.203073 2.18457,0.497407 0.09903,0.04385 0.317287,0.152983 0.414062,0.207039 0.144376,0.08064 0.231831,0.134178 0.379883,0.232534 l 0.100586,0.06682 v 0.01482 c 0,0.0081 -4.39e-4,0.01467 -9.76e-4,0.01448 -5.37e-4,-1.83e-4 -0.03262,-0.02136 -0.07129,-0.04707 z"
     id="path826"
     inkscape:connector-curvature="0" />
  <path
     style="fill:#ff7f2a;fill-opacity:1;stroke:#ff7f2a;stroke-width:0.00390625;stroke-linecap:round;stroke-linejoin:miter;stroke-opacity:1;paint-order:markers fill stroke"
     d="m 60.803932,43.341313 c -8.61e-4,-0.0027 -0.01409,-0.05577 -0.0294,-0.117961 -0.08456,-0.343493 -0.202928,-0.688281 -0.344049,-1.002156 -0.04154,-0.0924 -0.14898,-0.307189 -0.19539,-0.390625 -0.148852,-0.267612 -0.325545,-0.52626 -0.512731,-0.75055 -0.247841,-0.296967 -0.544277,-0.567852 -0.868893,-0.793999 -0.05329,-0.03713 -0.05554,-0.03924 -0.05554,-0.05221 v -0.01352 l 0.01074,0.007 c 0.02682,0.01745 0.15354,0.11092 0.211914,0.156315 0.312534,0.243048 0.494516,0.418802 0.747962,0.722361 0.347905,0.416699 0.627978,0.87983 0.824428,1.363282 0.07684,0.189088 0.149562,0.40509 0.202571,0.601649 0.01974,0.07319 0.05842,0.232546 0.06279,0.258702 l 0.0028,0.0166 h -0.02781 c -0.01881,0 -0.02832,-0.0016 -0.02937,-0.0049 z"
     id="path828"
     inkscape:connector-curvature="0" />
  <path
     style="fill:#ff7f2a;fill-opacity:1;stroke:#ff7f2a;stroke-width:0.00390625;stroke-linecap:round;stroke-linejoin:miter;stroke-opacity:1;paint-order:markers fill stroke"
     d="m 60.126586,48.520674 c -1.85e-4,-0.002 0.01394,-0.03631 0.03139,-0.07617 0.16432,-0.375333 0.339435,-0.852646 0.473719,-1.291227 0.143237,-0.46782 0.241196,-0.938615 0.29504,-1.417969 0.01223,-0.108925 0.02541,-0.254447 0.02952,-0.326172 0.0032,-0.05537 0.0052,-0.06641 0.01196,-0.06641 0.0075,0 0.0074,0.0083 -0.0023,0.12032 -0.07394,0.860893 -0.264945,1.679099 -0.570118,2.44218 -0.08754,0.218888 -0.267837,0.631009 -0.269252,0.615446 z"
     id="path832"
     inkscape:connector-curvature="0" />
  <path
     style="fill:#ff7f2a;fill-opacity:1;stroke:#ff7f2a;stroke-width:0.00390625;stroke-linecap:round;stroke-linejoin:miter;stroke-opacity:1;paint-order:markers fill stroke"
     d="m 60.963736,45.291363 c 0.01056,-0.192199 0.01325,-0.47773 0.0062,-0.659573 -0.01623,-0.419097 -0.06459,-0.817024 -0.144609,-1.190023 -0.01067,-0.04973 -0.0194,-0.09104 -0.01941,-0.0918 -5e-6,-7.61e-4 0.013,-8.11e-4 0.02889,-1.12e-4 l 0.02891,0.0013 0.01987,0.102245 c 0.06274,0.322805 0.09639,0.626036 0.110173,0.992869 0.0079,0.210536 0.0019,0.578292 -0.01333,0.818313 -0.0042,0.06574 -0.0053,0.07235 -0.01198,0.07364 -0.007,0.0013 -0.0073,-8.74e-4 -0.0047,-0.04683 z"
     id="path834"
     inkscape:connector-curvature="0" />
  <path
     style="fill:#ff7f2a;fill-opacity:1;stroke:#ff7f2a;stroke-width:0.00390625;stroke-linecap:round;stroke-linejoin:miter;stroke-opacity:1;paint-order:markers fill stroke"
     d="m 57.909192,51.863766 c 0.01856,-0.02131 0.214842,-0.262567 0.296353,-0.364258 0.338535,-0.422349 0.648146,-0.833993 0.882139,-1.172852 l 0.04788,-0.06934 h 0.01726 c 0.0095,0 0.01726,10e-4 0.01726,0.0023 0,0.0029 -0.09805,0.154302 -0.169306,0.261364 -0.305914,0.459655 -0.598539,0.85405 -0.947013,1.276367 l -0.06044,0.07324 h -0.04504 c -0.04256,0 -0.04471,-3.76e-4 -0.03909,-0.0068 z"
     id="path836"
     inkscape:connector-curvature="0" />
  <path
     style="fill:#ff7f2a;fill-opacity:1;stroke:#ff7f2a;stroke-width:0.00390625;stroke-linecap:round;stroke-linejoin:miter;stroke-opacity:1;paint-order:markers fill stroke"
     d="m 59.168724,50.256186 c -0.0014,-0.0022 -0.0085,-0.004 -0.01591,-0.004 h -0.01342 l 0.07563,-0.112304 c 0.153596,-0.228085 0.324163,-0.500633 0.443744,-0.709057 0.03081,-0.05369 0.04307,-0.06601 0.01568,-0.01575 -0.132337,0.242851 -0.498793,0.852351 -0.505725,0.841135 z"
     id="path842"
     inkscape:connector-curvature="0" />
  <path
     style="fill:#ff7f2a;fill-opacity:1;stroke:#ff7f2a;stroke-width:0.00390625;stroke-linecap:round;stroke-linejoin:miter;stroke-opacity:1;paint-order:markers fill stroke"
     d="m 48.486675,41.310275 c -0.06249,-0.06906 -0.123744,-0.143931 -0.19142,-0.233949 -0.06393,-0.08504 -0.170238,-0.239376 -0.167065,-0.242549 9.96e-4,-9.96e-4 0.09187,0.115256 0.201947,0.258339 0.110074,0.143084 0.199473,0.260814 0.198664,0.261623 -8.09e-4,8.09e-4 -0.01977,-0.01875 -0.04213,-0.04346 z"
     id="path844"
     inkscape:connector-curvature="0" />
</svg>
