<?xml version="1.0" encoding="UTF-8" standalone="no"?>
<svg
   xmlns:dc="http://purl.org/dc/elements/1.1/"
   xmlns:cc="http://creativecommons.org/ns#"
   xmlns:rdf="http://www.w3.org/1999/02/22-rdf-syntax-ns#"
   xmlns:svg="http://www.w3.org/2000/svg"
   xmlns="http://www.w3.org/2000/svg"
   xmlns:sodipodi="http://sodipodi.sourceforge.net/DTD/sodipodi-0.dtd"
   xmlns:inkscape="http://www.inkscape.org/namespaces/inkscape"
   id="offer"
   width="128"
   height="80"
   viewBox="0 0 128 80"
   version="1.1"
   sodipodi:docname="crumb_icons-22.svg"
   inkscape:version="0.92.1 r15371">
  <metadata
     id="metadata206">
    <rdf:RDF>
      <cc:Work
         rdf:about="">
        <dc:format>image/svg+xml</dc:format>
        <dc:type
           rdf:resource="http://purl.org/dc/dcmitype/StillImage" />
      </cc:Work>
    </rdf:RDF>
  </metadata>
  <defs
     id="defs204" />
  <sodipodi:namedview
     pagecolor="#ffffff"
     bordercolor="#666666"
     borderopacity="1"
     objecttolerance="10"
     gridtolerance="10"
     guidetolerance="10"
     inkscape:pageopacity="0"
     inkscape:pageshadow="2"
     inkscape:window-width="1440"
     inkscape:window-height="855"
     id="namedview202"
     showgrid="false"
     inkscape:zoom="4.0875"
     inkscape:cx="47.028908"
     inkscape:cy="66.027112"
     inkscape:window-x="0"
     inkscape:window-y="0"
     inkscape:window-maximized="1"
     inkscape:current-layer="offer" />
  <style
     id="style195"><![CDATA[
	.st0{fill:#B8B8B8;}
	.st1{fill:#FC6454;}
	.st2{fill:#2E302F;}
	.st3{fill:#00C492;}
]]></style>
  <path
     class="st3"
     d="M65 18V2h59c1.1 0 2 .9 2 2v16h-14v6.5c-4.1 3.2-6.4 8-6.4 13.3s2.3 10.1 6.4 13.3V60h14v16c0 1.1-1.1 2-2.3 2H65V61.6c11.4-.7 20.5-10.2 20.5-21.8S76.4 18.7 65 18zm-49 8.5c4.1 3.2 6.4 8 6.4 13.3S20.1 49.9 16 53.1V60H2v16c0 1.1.6 2 1.8 2H63V61.6c-11.7-.4-21-10-21-21.8S51.3 18.4 63 18V2H3.8C2.6 2 2 2.9 2 4v16h14v6.5z"
     id="path197" />
  <path
     class="st2"
     d="M123.9 0H3.8C1.5 0 0 1.8 0 4v72c0 2.2 1.5 4 3.8 4h120c2.2 0 4.3-1.8 4.3-4V4c-.1-2.2-2-4-4.2-4zM112 50.4c-2.8-2.7-4.4-6.5-4.4-10.6s1.6-7.9 4.4-10.6v21.2zM126 34v12h-4V34h4zm-6-2v16h6v10h-12V22h12v10h-6zm-8-12v6.5c-4.1 3.2-6.4 8-6.4 13.3s2.3 10.1 6.4 13.3V60h14v16c0 1.1-1.1 2-2.3 2H65V61.6c11.4-.7 20.5-10.2 20.5-21.8S76.4 18.7 65 18V2h59c1.1 0 2 .9 2 2v16h-14zM2 76V60h14v-6.9c4.1-3.2 6.4-8 6.4-13.3S20.1 29.7 16 26.5V20H2V4c0-1.1.6-2 1.8-2H63v16c-11.7.4-21 10-21 21.8s9.4 21.4 21 21.8V78H3.8C2.6 78 2 77.1 2 76zm14-46.8c2.8 2.7 4.4 6.5 4.4 10.6s-1.6 7.9-4.4 10.6V29.2zM2 46V34h4v12H2zm6 2V32H2V22h12v36H2V48h6zm57-27.9c10.3.7 18.5 9.2 18.5 19.7S75.3 58.9 65 59.5c-.4 0-.8.1-1.3.1h-.8c-10.6-.4-19-9.1-19-19.8S52.4 20.4 63 20h.8c.4 0 .8 0 1.2.1z"
     id="path199" />
  <path
     style="fill:#ff7f2a;fill-opacity:1;stroke:#ff7f2a;stroke-width:0.12232416;stroke-linecap:round;stroke-linejoin:miter;stroke-opacity:1;paint-order:markers fill stroke"
     d="m 65.100917,69.782612 v -8.113413 l 1.192661,-0.151184 c 2.437803,-0.309022 4.834606,-1.024255 6.880734,-2.053287 1.604011,-0.806685 2.283728,-1.188387 2.557622,-1.436257 0.117664,-0.106484 0.250256,-0.193609 0.294648,-0.193609 0.09159,0 0.112455,-0.01625 1.612562,-1.255863 1.104396,-0.912617 2.536455,-2.352601 3.132209,-3.149543 2.396371,-3.205627 3.694547,-6.058377 4.408552,-9.687816 0.218145,-1.108882 0.273245,-1.826409 0.27981,-3.643781 0.01058,-2.929691 -0.115796,-3.968652 -0.769845,-6.328865 -2.257735,-8.147313 -9.504338,-14.438196 -17.995978,-15.622576 -0.746206,-0.104077 -1.409891,-0.189231 -1.474856,-0.189231 -0.07473,0 -0.118119,-2.920646 -0.118119,-7.951071 V 2.0550459 h 29.668482 c 29.270941,0 29.674811,0.00323 30.140581,0.2408457 0.25965,0.1324652 0.58773,0.4279533 0.72907,0.6566403 0.25445,0.4117126 0.25697,0.4970111 0.25697,8.6888181 v 8.273023 h -6.97247 -6.97248 v 3.288017 3.288017 L 111.423,26.92312 c -1.92971,1.581251 -3.45658,3.713082 -4.70505,6.569235 -0.32562,0.744932 -0.83691,2.770446 -1.01421,4.017869 -0.14224,1.000746 -0.0996,4.421097 0.0651,5.217605 0.21166,1.023925 0.71802,2.751474 1.05132,3.5868 0.41303,1.035153 1.31439,2.750756 1.47888,2.81483 0.0576,0.02243 0.10467,0.11417 0.10467,0.203874 0,0.0897 0.0413,0.181447 0.0917,0.203874 0.0505,0.02243 0.34832,0.373937 0.66192,0.781137 0.62652,0.813535 1.77345,1.996702 2.39541,2.47109 l 0.39833,0.303823 v 3.47172 3.47172 h 6.97248 6.97247 v 8.292357 8.292359 l -0.45871,0.50655 c -0.25229,0.278602 -0.61368,0.56539 -0.80307,0.637306 -0.24093,0.09148 -9.23324,0.130755 -29.938839,0.130755 H 65.100917 Z"
     id="path345"
     inkscape:connector-curvature="0" />
  <path
     style="fill:#ff7f2a;fill-opacity:1;stroke:#ff7f2a;stroke-width:0.12232416;stroke-linecap:round;stroke-linejoin:miter;stroke-opacity:1;paint-order:markers fill stroke"
     d="m 64.978593,69.779599 v -8.238751 l 0.976735,-0.07532 c 3.079065,-0.23744 6.859535,-1.600644 9.681641,-3.49111 4.921098,-3.296537 8.132701,-8.057313 9.422263,-13.967264 0.24736,-1.133634 0.279151,-1.613656 0.279151,-4.215105 0,-2.592221 -0.03246,-3.086087 -0.277409,-4.220184 -1.200846,-5.55992 -4.25196,-10.264826 -8.769416,-13.522692 -1.310526,-0.945114 -4.322692,-2.468371 -5.900239,-2.983756 -1.360777,-0.444568 -3.228094,-0.837136 -4.488954,-0.943718 l -0.923772,-0.07809 V 9.9871894 1.9307667 l 29.816514,0.031559 29.816513,0.031559 0.43279,0.2691856 c 0.23804,0.148052 0.55456,0.485822 0.70337,0.7505999 l 0.27057,0.4814144 v 8.2708074 8.270806 h -6.97248 -6.97248 v 3.193523 3.193524 l -1.1649,1.102464 c -3.45917,3.273748 -5.21956,7.406998 -5.22413,12.265841 -0.005,4.805578 1.71376,8.888103 5.12289,12.171689 l 1.26614,1.219515 v 3.365559 3.365561 h 6.97248 6.97248 v 8.262955 c 0,8.889093 0.0211,8.582996 -0.63225,9.19298 -0.74283,0.693579 1.42159,0.648041 -30.801131,0.648041 H 64.978593 Z"
     id="path347"
     inkscape:connector-curvature="0" />
  <path
     style="fill:#ff7f2a;fill-opacity:1;stroke:#ff7f2a;stroke-width:0.12232416;stroke-linecap:round;stroke-linejoin:miter;stroke-opacity:1;paint-order:markers fill stroke"
     d="m 65.008313,69.792194 0.03144,-8.226154 0.795107,-0.08802 c 4.143721,-0.458709 7.756405,-1.904312 11.192661,-4.478703 1.87371,-1.403757 4.858839,-4.849299 5.528837,-6.381582 0.04413,-0.100917 0.111767,-0.211009 0.150314,-0.244648 0.08662,-0.0756 0.775375,-1.477539 1.051675,-2.140673 0.414461,-0.994727 1.04851,-3.09533 1.310749,-4.342508 0.371111,-1.76496 0.39633,-6.305958 0.0445,-8.012232 -0.916846,-4.446382 -2.959211,-8.318294 -5.99448,-11.364327 -1.37414,-1.379011 -1.562174,-1.537395 -3.119288,-2.627403 -1.460619,-1.022461 -3.983709,-2.283866 -5.638972,-2.819172 -1.378559,-0.445822 -3.263925,-0.843363 -4.495413,-0.947888 l -0.88685,-0.07527 V 9.9881669 1.9327217 H 94.723198 124.4678 l 0.50136,0.2938156 c 0.28013,0.164167 0.62223,0.5088697 0.77527,0.781181 l 0.27392,0.4873654 v 8.2708073 8.270806 h -6.97248 -6.97248 v 3.2302 3.230199 l -0.6422,0.528042 c -0.88718,0.729475 -1.90407,1.802418 -2.31626,2.443937 -0.11281,0.175576 -0.28015,0.395759 -0.37186,0.489297 -0.19174,0.195558 -0.89129,1.354632 -1.35771,2.249579 -1.16037,2.226498 -1.90042,5.843269 -1.72703,8.440367 0.0404,0.605505 0.0946,1.183486 0.12038,1.284404 0.0258,0.100917 0.0826,0.458715 0.12624,0.795107 0.10097,0.778126 0.14694,1.018258 0.21669,1.131958 0.0308,0.05021 0.0874,0.283944 0.12583,0.519418 0.26192,1.605774 2.12341,5.0613 3.53847,6.568542 0.28257,0.300972 0.55038,0.611314 0.59514,0.689646 0.0448,0.07833 0.44384,0.44179 0.88685,0.807683 l 0.80546,0.665259 v 3.40202 3.402018 h 6.97248 6.97248 v 8.262955 c 0,8.889093 0.0211,8.582996 -0.63225,9.19298 -0.74283,0.693579 1.42167,0.648041 -30.801992,0.648041 H 64.976871 Z"
     id="path349"
     inkscape:connector-curvature="0" />
  <path
     style="fill:#ff7f2a;fill-opacity:1;stroke:#ff7f2a;stroke-width:0.12232416;stroke-linecap:round;stroke-linejoin:miter;stroke-opacity:1;paint-order:markers fill stroke"
     d="M 2.7908109,77.640575 C 2.0789959,77.080662 2.1039755,77.418159 2.1039755,68.360815 V 60.036697 H 9.0764526 16.04893 v -3.479303 c 0,-3.393838 0.0063,-3.483713 0.256411,-3.658899 0.458101,-0.320867 1.993973,-1.877049 2.495882,-2.528888 0.269113,-0.349502 0.556639,-0.706483 0.638946,-0.79329 0.483628,-0.510078 1.717444,-3.039461 2.148981,-4.405513 0.549475,-1.7394 0.714481,-2.746896 0.783962,-4.786777 0.05282,-1.550514 0.02178,-2.249299 -0.143928,-3.240274 -0.202159,-1.209001 -0.677568,-3.072925 -0.91572,-3.590236 -1.089432,-2.366463 -1.715493,-3.412935 -2.846013,-4.757165 -0.453779,-0.539558 -1.578793,-1.636895 -2.08213,-2.030905 L 16.04893,26.502121 V 23.208247 19.914373 H 9.0764526 2.1039755 l 4.573e-4,-8.348624 C 2.1048756,3.4815331 2.112505,3.2046361 2.3453323,2.8227798 2.8509241,1.9935664 0.38096979,2.0550459 33.18925,2.0550459 H 62.899083 V 9.9861732 17.9173 l -1.314985,0.143712 c -1.610471,0.176003 -1.746201,0.200292 -3.27108,0.585361 -2.638223,0.666215 -5.443814,1.991572 -7.462865,3.525446 -2.869167,2.179706 -5.39757,5.229368 -6.75105,8.142855 -0.842509,1.813573 -0.978458,2.192432 -1.433733,3.995448 -0.561681,2.224419 -0.624042,2.803401 -0.616795,5.726575 0.0047,1.907748 0.05556,2.575198 0.283706,3.725309 0.327413,1.650514 0.868731,3.43247 1.367691,4.502284 0.196448,0.4212 0.391571,0.902851 0.433607,1.070336 0.04204,0.167485 0.128756,0.304518 0.192712,0.304518 0.06395,0 0.08226,0.05505 0.04068,0.122324 -0.04158,0.06728 -0.02567,0.122324 0.03537,0.122324 0.06103,0 0.214935,0.233945 0.342011,0.519878 0.127075,0.285932 0.330226,0.628874 0.451447,0.762091 0.121219,0.133219 0.25176,0.367164 0.290089,0.519878 0.03833,0.152716 0.118767,0.277664 0.178752,0.277664 0.05998,0 0.109063,0.07668 0.109063,0.170399 0,0.09372 0.08257,0.202083 0.183487,0.240809 0.100917,0.03873 0.183486,0.148817 0.183486,0.244649 0,0.09583 0.08257,0.205921 0.183486,0.244648 0.100917,0.03872 0.183486,0.127183 0.183486,0.196574 0,0.06939 0.111321,0.250016 0.24738,0.401392 0.136059,0.151376 0.409768,0.46789 0.608242,0.703364 0.349512,0.414668 1.244527,1.327657 2.039053,2.080001 0.212867,0.201564 0.446345,0.366482 0.518841,0.366482 0.0725,0 0.200565,0.110092 0.284597,0.244648 0.08403,0.134557 0.223841,0.244648 0.310686,0.244648 0.08684,0 0.189585,0.08257 0.228311,0.183487 0.03873,0.100917 0.148818,0.183486 0.244648,0.183486 0.09583,0 0.205923,0.08257 0.244648,0.183486 0.03873,0.100918 0.14709,0.183486 0.24081,0.183486 0.09372,0 0.170399,0.05505 0.170399,0.122325 0,0.06728 0.08257,0.122324 0.183486,0.122324 0.100918,0 0.183486,0.05505 0.183486,0.122324 0,0.06728 0.07864,0.122324 0.174749,0.122324 0.09611,0 0.250055,0.07531 0.342097,0.167348 0.09204,0.09204 0.288308,0.205738 0.436148,0.252662 0.147839,0.04692 0.337932,0.152531 0.422429,0.234686 0.181766,0.17673 1.438033,0.840615 1.438033,0.75994 0,-0.03058 0.288991,0.07209 0.642202,0.228159 1.682689,0.743521 4.449087,1.43475 6.422018,1.604645 l 1.009175,0.0869 v 8.118762 8.11876 H 33.007322 3.1155617 Z"
     id="path351"
     inkscape:connector-curvature="0" />
  <path
     style="fill:#ff7f2a;fill-opacity:1;stroke:#ff7f2a;stroke-width:0.12232416;stroke-linecap:round;stroke-linejoin:miter;stroke-opacity:1;paint-order:markers fill stroke"
     d="M 2.8254291,77.740681 C 1.9448038,77.152385 1.9820534,77.570883 1.9818415,68.262997 l -1.901e-4,-8.348624 h 6.972477 6.9724776 v -3.352188 -3.352189 l 1.450576,-1.449035 c 2.078545,-2.076338 3.24038,-3.931767 4.112845,-6.568139 0.576794,-1.742928 0.823676,-3.361711 0.823676,-5.400773 0,-4.847877 -1.765335,-8.994279 -5.222192,-12.265841 L 15.926606,26.423744 V 23.23022 20.036697 H 8.9541284 1.9816514 l 0.00269,-8.287462 C 1.986913,3.8053282 1.9968835,3.440051 2.2248551,2.9377649 2.406418,2.5377301 2.5866598,2.3574883 2.9866946,2.1759254 3.5010431,1.9424792 4.0592527,1.9380451 33.266055,1.9354082 l 29.755352,-0.00269 v 8.0733948 8.073394 l -0.58104,7.34e-4 c -2.328802,0.0029 -6.342913,1.121349 -8.837921,2.462527 -1.992303,1.07095 -3.337667,2.068544 -5.061931,3.753445 -3.108558,3.037591 -5.139624,6.779106 -6.087746,11.214499 -0.256593,1.200363 -0.287631,1.66237 -0.287631,4.281345 0,2.37517 0.04247,3.134329 0.222413,3.975535 1.038697,4.85577 3.026883,8.504228 6.406553,11.756461 3.564835,3.43042 8.416879,5.635768 13.072182,5.941564 l 1.155121,0.07588 v 8.238431 8.238432 H 33.131239 3.2410723 L 2.8254291,77.740694 Z"
     id="path353"
     inkscape:connector-curvature="0" />
</svg>
