<?xml version="1.0" encoding="UTF-8" standalone="no"?>
<svg
   xmlns:dc="http://purl.org/dc/elements/1.1/"
   xmlns:cc="http://creativecommons.org/ns#"
   xmlns:rdf="http://www.w3.org/1999/02/22-rdf-syntax-ns#"
   xmlns:svg="http://www.w3.org/2000/svg"
   xmlns="http://www.w3.org/2000/svg"
   xmlns:sodipodi="http://sodipodi.sourceforge.net/DTD/sodipodi-0.dtd"
   xmlns:inkscape="http://www.inkscape.org/namespaces/inkscape"
   id="offer"
   width="160"
   height="160"
   viewBox="0 0 160 160"
   version="1.1"
   sodipodi:docname="crumb_icons-19.svg"
   inkscape:version="0.92.1 r15371">
  <metadata
     id="metadata1163">
    <rdf:RDF>
      <cc:Work
         rdf:about="">
        <dc:format>image/svg+xml</dc:format>
        <dc:type
           rdf:resource="http://purl.org/dc/dcmitype/StillImage" />
      </cc:Work>
    </rdf:RDF>
  </metadata>
  <defs
     id="defs1161" />
  <sodipodi:namedview
     pagecolor="#ffffff"
     bordercolor="#666666"
     borderopacity="1"
     objecttolerance="10"
     gridtolerance="10"
     guidetolerance="10"
     inkscape:pageopacity="0"
     inkscape:pageshadow="2"
     inkscape:window-width="1440"
     inkscape:window-height="855"
     id="namedview1159"
     showgrid="false"
     inkscape:zoom="9.8029064"
     inkscape:cx="83.917557"
     inkscape:cy="100.48394"
     inkscape:window-x="0"
     inkscape:window-y="0"
     inkscape:window-maximized="1"
     inkscape:current-layer="offer" />
  <style
     id="style1152"><![CDATA[
	.st0{fill:#B8B8B8;}
	.st1{fill:#FC6454;}
	.st2{fill:#2E302F;}
	.st3{fill:#00C492;}
]]></style>
  <path
     class="st3"
     d="M59 129h41v28.5c-6.4 1.6-13.1 2.5-20 2.5-7.3 0-14.3-1-21-2.8V129zm-3.6-35.7H55l-2.7.6c-.1 0-.2.1-.3.1-.4.1-.7.3-1 .6l-.5.5c-.3.4-.5.8-.5 1.2V154c1.3.5 2.7 1 4 1.5.3.1.7.2 1 .3.3.1.7.2 1 .3.3.1.7.2 1 .3V94.7c0-.3-.1-.5-.2-.7-.3-.4-.8-.7-1.4-.7zm52.6 3c-.1-.4-.3-.8-.5-1.2-.1-.2-.3-.3-.4-.5-.3-.3-.6-.5-1-.6-.1 0-.1 0-.2-.1l-2.3-.6h-.4c-.6 0-.9.4-1.1.8-.1.3-.1.5-.1.6V156.9c.3-.1.7-.2 1-.3 1.7-.5 3.4-1.1 5-1.7V96.6v-.3zM61.4 60H100.2c-.9-6.8-4.3-15.3-15.2-17.5v8.7c0 .3-.1.7-.1 1-.6 2.8-3 4.8-5.9 4.8-2.9 0-5.3-2-5.9-4.7-.1-.3-.1-.7-.1-1v-8.7C62.3 44.9 58.9 53.3 58 60H61.4zm45.6 4.5v-.9c0-.8-.7-1.5-1.5-1.5H53.6c-.8 0-1.5.7-1.5 1.5v.9c0 .8.7 1.5 1.5 1.5h52c.7 0 1.4-.7 1.4-1.5zM79 55c1.9 0 3.6-1.4 3.9-3.2 0-.2.1-.5.1-.8v-9c0-.3 0-.5-.1-.8-.1-.4-.2-.7-.4-1-.7-1.3-2-2.2-3.5-2.2-1.6 0-2.9.9-3.6 2.2-.2.3-.3.7-.4 1 0 .2-.1.5-.1.8v9c0 .3 0 .5.1.8.5 1.8 2.1 3.2 4 3.2z"
     id="path1154" />
  <path
     class="st2"
     d="M1.9 62.5c.1-.5.2-1 .3-1.4.1-.5.2-1 .4-1.5 2.2 5.2 7.4 8.9 13.5 8.9 8.1 0 14.6-6.6 14.6-14.6 0-1-.1-1.9-.3-2.8h-25c.1-.3.3-.7.4-1 .1-.3.3-.7.4-1H36.1c.5 0 .9-.4.9-.9V48c0-.5-.4-.9-.9-.9h-29c.2-.3.3-.7.5-1 .2-.3.3-.7.5-1H31.4c-.7-4.9-3.1-10.7-10.4-12.5v5.7c0 .3 0 .5-.1.7-.1.3-.1.7-.3 1-.7 1.8-2.4 3-4.4 3h-.5c-2 0-3.7-1.2-4.4-3-.1-.2-.2-.5-.2-.7.1-.1.1-.2.2-.3.2-.4.5-.7.7-1.1l.1-.1c.3-.5.6-1 .9-1.4V38.6c0 .3.1.7.3 1 .5.9 1.4 1.5 2.4 1.5h.5c1.1 0 2-.6 2.4-1.5.1-.3.2-.6.3-1v-6.7c0-.3 0-.5-.1-.7-.1-.3-.2-.6-.4-.9-.2-.2-.3-.4-.5-.5.2-.3.4-.5.6-.8.2-.3.4-.5.7-.8.8.6 1.3 1.4 1.6 2.4 8.4 1.7 11.7 8.3 12.6 14.6h2.7c1.6 0 2.9 1.3 2.9 2.9v.2c0 1.6-1.3 2.9-2.9 2.9h-3.6c.2.9.3 1.9.3 2.8 0 9.2-7.4 16.6-16.6 16.6-6.1-.1-11.3-3.3-14.3-8.1zM159.7 73c-.7-.1-1.4-.2-2.1-.2-3.4 5.6-9.2 9-15.7 9-6.6 0-12.7-3.4-16-9-9.9.1-17.9 8.1-17.9 17.9v2.1c1 .8 1.7 1.9 1.9 3.1 9.9 4 17.1 13.7 17.1 25v23.8c-.3.2-.7.5-1 .7-.3.2-.7.5-1 .7v-25.2c0-10.1-6.2-18.9-15-22.8V154c-.3.1-.7.3-1 .4s-.7.3-1 .4V96.6v-.3c-.1-.4-.3-.8-.5-1.2-.1-.2-.3-.3-.4-.5-.3-.3-.6-.5-1-.6-.1 0-.1 0-.2-.1l-2.3-.6h-.4c-.6 0-.9.4-1.1.8-.1.3-.1.5-.1.6V156.9c-.3.1-.7.2-1 .3s-.7.2-1 .3V129H59v28.2c-.3-.1-.7-.2-1-.3-.3-.1-.7-.2-1-.3V94.7c0-.3-.1-.5-.2-.7-.3-.5-.8-.7-1.4-.7H55l-2.7.6c-.1 0-.2.1-.3.1-.4.1-.7.3-1 .6l-.5.5c-.3.4-.5.8-.5 1.2V154c-.3-.1-.7-.3-1-.4-.3-.1-.7-.3-1-.4V98.3c-8.3 4-14 12.7-14 22.6v24.5c-.3-.2-.7-.5-1-.7-.3-.2-.7-.5-1-.7v-23.1c0-11.1 6.5-20.8 16.1-24.8.2-1.2.9-2.4 1.9-3.2v-2.2c0-9.8-8-17.8-17.8-17.9-3.4 5.6-9.3 9-15.9 9S3.8 78.4.4 72.8H.3c0-.3 0-.5.1-.8 0-.3.1-.7.1-1h.8c2.8 5 8.3 9 14.8 9s12-4 14.8-9h.9c11 0 20.2 8.7 20.2 19.7v1.2l2.6-.5c.3-.1.6-.1.9-.1 1.7 0 3.2 1.1 3.5 2.7h.4c3.7 7 11.1 12.1 19.7 12.1S95.2 101 98.9 94h1.2c.3-1.6 1.5-2.7 3.1-2.7.3 0 .6 0 .9.1l2 .5v-1.2c0-11 9.2-19.7 20.2-19.7h.9c2.8 5 8.3 9 14.8 9s12-4 14.8-9h.9c.7 0 1.3 0 1.9.1 0 .3.1.7.1 1-.1.3-.1.6 0 .9zM59 127h41V96.1c-4.3 8-12.2 12-20.9 12-8.2 0-15.6-3.6-20.1-10.6V127zm62.9-76h3.6c-.2.9-.3 1.9-.3 2.8 0 9.2 7.4 16.6 16.6 16.6 7.1 0 13.1-4.5 15.5-10.7-.2-.6-.3-1.1-.5-1.7-.2-.7-.4-1.4-.6-2-1 7-7.1 12.5-14.4 12.5-8.1 0-14.6-6.6-14.6-14.6 0-1 .1-1.9.3-2.8h27c-.1-.3-.3-.7-.4-1-.1-.3-.3-.7-.4-1h-31.8c-.5 0-.9-.4-.9-.9V48c0-.5.4-.9.9-.9h31c-.2-.3-.3-.7-.5-1-.2-.3-.3-.7-.5-1H126.6c.7-4.9 3.2-10.8 10.4-12.6v5.8c0 .3 0 .5.1.7.1.3.1.7.3 1 .7 1.8 2.4 3 4.4 3h.5c2 0 3.7-1.2 4.4-3 .1-.3.2-.6.3-1 0-.3.1-.5.1-.8v-1.9c-.3-.5-.7-1-1-1.5-.3-.5-.7-.9-1-1.4v5.1c0 .3-.1.7-.3 1-.5.9-1.4 1.5-2.4 1.5h-.5c-1.1 0-2-.6-2.4-1.5-.1-.3-.2-.6-.3-1v-6.8c0-.3.1-.5.1-.8.1-.3.2-.6.4-.8.5-.6 1.2-1.1 2.1-1.1-.3-.3-.5-.6-.8-.9-.2-.3-.5-.5-.7-.8-1.4.5-2.5 1.7-3 3.2-8.4 1.7-11.7 8.3-12.6 14.6H122c-1.6 0-2.9 1.3-2.9 2.9v.2c-.1 1.5 1.2 2.8 2.8 2.8zM50 64.5v-.9c0-2 1.6-3.5 3.5-3.5H56C57.2 52 61.6 43 73.2 40.7c.6-2.6 3-4.6 5.8-4.6s5.1 1.9 5.8 4.5C96.5 42.7 101 51.8 102.2 60h3.2c2 0 3.5 1.6 3.5 3.5v.9c0 2-1.6 3.5-3.5 3.5H101c.2 1.2.3 2.4.3 3.6 0 12.3-9.9 22.2-22.2 22.2-12.3 0-22.2-9.9-22.2-22.2 0-1.2.1-2.4.3-3.6h-3.7c-1.9.1-3.5-1.5-3.5-3.4zm2 0c0 .8.7 1.5 1.5 1.5h52c.8 0 1.5-.7 1.5-1.5v-.9c0-.8-.7-1.5-1.5-1.5H53.6c-.8 0-1.5.7-1.5 1.5v.9zm23.1-23.3c0 .2-.1.5-.1.8v9c0 .3 0 .5.1.8.4 1.8 2 3.2 3.9 3.2s3.6-1.4 3.9-3.2c0-.2.1-.5.1-.8v-9c0-.3 0-.5-.1-.8-.1-.4-.2-.7-.4-1-.7-1.3-2-2.2-3.5-2.2-1.6 0-2.9.9-3.6 2.2-.1.3-.3.7-.3 1zM58 60H100.2c-.9-6.8-4.3-15.3-15.2-17.5v8.7c0 .3-.1.7-.1 1-.6 2.8-3 4.8-5.9 4.8-2.9 0-5.3-2-5.9-4.7-.1-.3-.1-.7-.1-1v-8.7C62.3 44.9 58.9 53.3 58 60zm41 8H59.2c-.2 1.2-.3 2.4-.3 3.6 0 11.1 9.1 20.2 20.2 20.2s20.2-9.1 20.2-20.2c0-1.2-.1-2.4-.3-3.6z"
     id="path1156" />
  <path
     style="fill:#ff7f2a;fill-opacity:1;stroke:#ff7f2a;stroke-width:0.1287532;stroke-linecap:round;stroke-linejoin:miter;stroke-opacity:1;paint-order:markers fill stroke"
     d="m 58.125965,59.456109 c 0.199091,-1.366218 0.888618,-4.102708 1.253381,-4.974232 0.107176,-0.256075 0.271811,-0.668377 0.365855,-0.916227 0.618577,-1.630251 1.901012,-3.726524 3.237541,-5.2921 0.764894,-0.895976 2.714596,-2.607004 3.177977,-2.788943 0.106222,-0.04171 0.366947,-0.204925 0.57939,-0.362708 0.345509,-0.256614 1.800659,-0.983168 3.0257,-1.510728 0.396737,-0.170853 1.52704,-0.515565 2.794763,-0.852327 l 0.41283,-0.109665 0.03781,4.982451 0.03781,4.982452 0.489423,0.989917 c 0.65533,1.325486 1.564009,2.24136 2.804858,2.82707 2.020665,0.953801 4.496064,0.732302 6.247321,-0.559012 0.966673,-0.712789 1.601459,-1.577422 2.11866,-2.885797 0.298583,-0.755327 0.306403,-0.87925 0.351427,-5.568576 0.02533,-2.637831 0.09496,-4.796057 0.154747,-4.796057 0.204397,0 1.737956,0.405024 2.511429,0.663287 1.393881,0.465417 3.841825,1.742973 4.956999,2.587006 2.949593,2.232433 5.247436,5.624575 6.476404,9.560651 0.287052,0.919352 0.698351,2.741897 0.92254,4.087914 l 0.0804,0.482825 H 79.10473 58.046224 Z"
     id="path1165"
     inkscape:connector-curvature="0" />
  <path
     style="fill:#ff7f2a;fill-opacity:1;stroke:#ff7f2a;stroke-width:0.1287532;stroke-linecap:round;stroke-linejoin:miter;stroke-opacity:1;paint-order:markers fill stroke"
     d="m 78.103516,54.849847 c -1.070476,-0.268803 -2.325658,-1.417068 -2.749073,-2.514904 -0.22717,-0.589011 -0.245376,-1.032656 -0.245376,-5.979473 0,-5.304977 0.0021,-5.34787 0.296446,-5.987024 0.386046,-0.83834 1.379849,-1.777762 2.162948,-2.044591 0.336698,-0.114725 1.001546,-0.20859 1.47744,-0.20859 0.707652,0 0.995799,0.06867 1.581889,0.376967 0.823873,0.433383 1.104057,0.671762 1.526102,1.298399 0.788262,1.170385 0.761148,0.909233 0.718445,6.919669 l -0.0391,5.503441 -0.364743,0.643766 c -0.517884,0.914056 -0.80736,1.186125 -1.731057,1.626964 -0.89,0.424758 -1.861014,0.559457 -2.633921,0.365376 z"
     id="path1167"
     inkscape:connector-curvature="0" />
  <path
     style="fill:#ff7f2a;fill-opacity:1;stroke:#ff7f2a;stroke-width:0.00569014;stroke-linecap:round;stroke-linejoin:miter;stroke-opacity:1;paint-order:markers fill stroke"
     d="m 82.908053,51.161492 c 0.0013,-0.125966 0.0098,-1.321109 0.01889,-2.655874 0.0091,-1.334765 0.01833,-2.611846 0.02044,-2.837958 l 0.0038,-0.411113 h 0.02202 0.02202 l -0.0017,2.957451 c -0.0018,3.188284 1.84e-4,2.956607 -0.02702,3.116775 -0.01071,0.06305 -0.0087,0.05975 -0.03612,0.05975 h -0.02467 z"
     id="path1169"
     inkscape:connector-curvature="0" />
  <path
     style="fill:#ff7f2a;fill-opacity:1;stroke:#ff7f2a;stroke-width:0.00390625;stroke-linecap:round;stroke-linejoin:miter;stroke-opacity:1;paint-order:markers fill stroke"
     d="m 82.949898,45.167965 c 4.6e-5,-0.04673 0.0018,-0.407519 0.0039,-0.801758 0.005,-0.946499 -7.56e-4,-1.741494 -0.01569,-2.171875 -0.0068,-0.195316 -0.01994,-0.457785 -0.02572,-0.512695 l -0.0024,-0.02246 h 0.0408 0.0408 l 0.0025,0.0498 c 0.0014,0.02739 0.0025,0.835986 0.0026,1.796875 l 1.6e-5,1.74707 h -0.02344 -0.02344 l 8.4e-5,-0.08496 z"
     id="path1171"
     inkscape:connector-curvature="0" />
  <path
     style="fill:#ff7f2a;fill-opacity:1;stroke:#ff7f2a;stroke-width:0.00390625;stroke-linecap:round;stroke-linejoin:miter;stroke-opacity:1;paint-order:markers fill stroke"
     d="m 85.000595,44.18652 c 0,-0.925977 0.0014,-1.683594 0.003,-1.683594 0.0043,0 0.208848,0.04217 0.237216,0.04889 l 0.02344,0.0056 -0.02539,-0.0013 c -0.02747,-0.0014 -0.0558,0.0053 -0.06847,0.01619 -0.01335,0.01144 -0.02476,0.03345 -0.03097,0.05978 -0.04318,0.182987 -0.09081,1.39248 -0.121697,3.090554 -0.0025,0.139943 -0.0031,0.14746 -0.0099,0.14746 -0.007,0 -0.0072,-0.04767 -0.0072,-1.683593 z"
     id="path1173"
     inkscape:connector-curvature="0" />
  <path
     style="fill:#ff7f2a;fill-opacity:1;stroke:#ff7f2a;stroke-width:0.00390625;stroke-linecap:round;stroke-linejoin:miter;stroke-opacity:1;paint-order:markers fill stroke"
     d="m 82.909605,41.635327 c -0.0012,-0.01128 -0.0067,-0.07061 -0.01215,-0.131836 -0.02358,-0.262805 -0.06045,-0.487931 -0.1096,-0.669316 -0.02827,-0.104327 -0.01839,-0.08592 0.0196,0.0365 0.02487,0.08016 0.05185,0.174955 0.0667,0.234375 0.01707,0.06829 0.02979,0.114785 0.03861,0.141052 0.03269,0.09736 0.06651,0.266751 0.07498,0.37555 l 0.0027,0.03418 h -0.03932 -0.03932 z"
     id="path1175"
     inkscape:connector-curvature="0" />
  <path
     style="fill:#ff7f2a;fill-opacity:1;stroke:#ff7f2a;stroke-width:0.00390625;stroke-linecap:round;stroke-linejoin:miter;stroke-opacity:1;paint-order:markers fill stroke"
     d="m 81.311409,38.812819 c -0.110314,-0.07554 -0.246009,-0.157669 -0.419922,-0.254154 -0.626281,-0.347455 -0.924194,-0.454748 -1.36914,-0.493094 -0.229032,-0.01974 -0.5652,-0.02143 -0.807258,-0.0041 -0.325217,0.02333 -0.659405,0.07099 -0.919256,0.131079 -0.0365,0.0084 -0.06814,0.01522 -0.07031,0.01507 -0.0036,-2.52e-4 0.02216,-0.01095 0.0312,-0.01294 0.0021,-4.73e-4 0.01533,-0.0045 0.0293,-0.009 0.02687,-0.0087 0.06477,-0.01987 0.103516,-0.03063 0.01289,-0.0036 0.02783,-0.0081 0.0332,-0.0099 0.0054,-0.0019 0.02031,-0.006 0.0332,-0.0092 0.01289,-0.0031 0.0375,-0.0093 0.05469,-0.01361 0.137454,-0.03472 0.301832,-0.06667 0.414062,-0.08048 0.01074,-0.0013 0.02217,-0.0031 0.02539,-0.004 0.0183,-0.005 0.23224,-0.02503 0.330078,-0.03092 0.06768,-0.0041 0.309254,-0.0054 0.380859,-0.002 0.43057,0.02004 0.836445,0.108701 1.238282,0.270506 0.029,0.01168 0.06064,0.02479 0.07031,0.02913 0.0097,0.0043 0.04043,0.01807 0.06836,0.03051 0.15916,0.07088 0.347661,0.173579 0.497946,0.271301 0.02476,0.0161 0.04678,0.02999 0.04893,0.03086 0.0021,8.71e-4 0.0048,0.0026 0.0059,0.0039 0.0011,0.0013 0.02481,0.01764 0.05273,0.03632 0.02793,0.01869 0.0543,0.03668 0.05859,0.03998 0.0043,0.0033 0.0333,0.02475 0.06445,0.04768 0.03115,0.02292 0.05752,0.04278 0.05859,0.04414 0.0011,0.0013 0.01077,0.0088 0.02155,0.01664 0.0206,0.01491 0.0368,0.03074 0.03081,0.0301 -0.0019,-2.07e-4 -0.03166,-0.01964 -0.06603,-0.04318 z"
     id="path1177"
     inkscape:connector-curvature="0" />
  <path
     style="fill:#ff7f2a;fill-opacity:1;stroke:#ff7f2a;stroke-width:0.00390625;stroke-linecap:round;stroke-linejoin:miter;stroke-opacity:1;paint-order:markers fill stroke"
     d="m 75.38722,40.248145 c -2.23e-4,-0.01535 0.02189,-0.06326 0.06088,-0.131914 0.0084,-0.01475 0.02026,-0.03584 0.0264,-0.04687 0.0061,-0.01103 0.01625,-0.02762 0.02246,-0.03686 0.0062,-0.0092 0.01129,-0.01764 0.01129,-0.01868 0,-0.0015 0.02849,-0.04745 0.06746,-0.108805 0.0041,-0.0065 0.02483,-0.03758 0.09602,-0.144123 0.0072,-0.01078 0.01555,-0.02206 0.01855,-0.02506 0.003,-0.003 0.0055,-0.0068 0.0055,-0.0083 0,-0.0016 0.0031,-0.0063 0.0068,-0.01056 0.0038,-0.0042 0.01294,-0.01641 0.02039,-0.0271 0.0142,-0.02037 0.01843,-0.02595 0.02648,-0.03492 0.0027,-0.003 0.0049,-0.0065 0.0049,-0.0077 0,-0.0074 0.144798,-0.186584 0.214844,-0.265855 0.09501,-0.107519 0.227161,-0.242957 0.316406,-0.324269 0.01611,-0.01468 0.03721,-0.03396 0.04687,-0.04285 0.0097,-0.0089 0.04219,-0.03684 0.07227,-0.06212 0.03008,-0.02528 0.0582,-0.04898 0.0625,-0.05267 0.03824,-0.03288 0.190834,-0.149216 0.206581,-0.1575 0.0045,-0.0024 0.0091,-0.0056 0.01022,-0.0072 0.0039,-0.0057 0.159594,-0.109257 0.164235,-0.109257 0.0026,0 -0.02524,0.02153 -0.0619,0.04785 -0.347458,0.249439 -0.707945,0.594729 -0.98182,0.94043 -0.158701,0.200323 -0.293833,0.403562 -0.389584,0.585937 -0.01523,0.029 -0.02771,0.05081 -0.02775,0.04846 z"
     id="path1179"
     inkscape:connector-curvature="0" />
  <path
     style="fill:#ff7f2a;fill-opacity:1;stroke:#ff7f2a;stroke-width:0.00390625;stroke-linecap:round;stroke-linejoin:miter;stroke-opacity:1;paint-order:markers fill stroke"
     d="m 75.000191,43.615131 c 5.9e-5,-0.90987 0.0016,-1.623125 0.0037,-1.669031 0.0057,-0.126484 0.01618,-0.205199 0.05886,-0.441821 0.02758,-0.152911 0.03481,-0.208875 0.03903,-0.302234 0.0048,-0.106697 0.01955,-0.208984 0.03009,-0.208984 0.0034,0 0.0046,0.0026 0.0033,0.0068 -0.0041,0.01314 -0.02173,0.159901 -0.02947,0.245117 -0.04324,0.476161 -0.05644,1.115418 -0.06136,2.97168 l -0.0026,0.987305 h -0.02084 -0.02084 z"
     id="path1181"
     inkscape:connector-curvature="0" />
  <path
     style="fill:#ff7f2a;fill-opacity:1;stroke:#ff7f2a;stroke-width:0.00390625;stroke-linecap:round;stroke-linejoin:miter;stroke-opacity:1;paint-order:markers fill stroke"
     d="m 75.001205,48.777093 v -2.105469 h 0.02092 0.02092 l 0.0024,1.313477 c 0.0029,1.607966 0.0096,2.271576 0.02859,2.822266 l 0.0026,0.0752 h -0.03769 -0.03769 z"
     id="path1183"
     inkscape:connector-curvature="0" />
  <path
     style="fill:#ff7f2a;fill-opacity:1;stroke:#ff7f2a;stroke-width:0.00390625;stroke-linecap:round;stroke-linejoin:miter;stroke-opacity:1;paint-order:markers fill stroke"
     d="m 75.002503,45.937532 v -0.728516 h 0.01953 0.01953 v 0.728516 0.728516 h -0.01953 -0.01953 z"
     id="path1185"
     inkscape:connector-curvature="0" />
  <path
     style="fill:#ff7f2a;fill-opacity:1;stroke:#ff7f2a;stroke-width:0.00390625;stroke-linecap:round;stroke-linejoin:miter;stroke-opacity:1;paint-order:markers fill stroke"
     d="m 76.437948,54.029158 c -0.109467,-0.09463 -0.249501,-0.230554 -0.343481,-0.333394 -0.475907,-0.520768 -0.806647,-1.138504 -0.974155,-1.819465 -0.01146,-0.04658 -0.02731,-0.105787 -0.03523,-0.131568 -0.03434,-0.111793 -0.0586,-0.231236 -0.07052,-0.347111 -0.0076,-0.07393 -0.0135,-0.244908 -0.0136,-0.3941 l -7.3e-5,-0.116211 h 0.03704 c 0.03527,0 0.03712,4.18e-4 0.03883,0.0088 9.84e-4,0.0048 0.0028,0.04307 0.0041,0.08496 0.0042,0.139402 0.01656,0.349701 0.02955,0.503906 0.02489,0.295557 0.06008,0.502057 0.117153,0.6875 0.148627,0.482942 0.459228,0.990131 0.897064,1.464844 0.08862,0.09608 0.267077,0.271738 0.356737,0.351134 0.03975,0.0352 0.07573,0.06727 0.07997,0.07127 0.0075,0.0071 0.0068,0.0073 -0.03595,0.0073 h -0.04366 z"
     id="path1187"
     inkscape:connector-curvature="0" />
  <path
     style="fill:#ff7f2a;fill-opacity:1;stroke:#ff7f2a;stroke-width:0.00390625;stroke-linecap:round;stroke-linejoin:miter;stroke-opacity:1;paint-order:markers fill stroke"
     d="m 77.366405,54.632555 c -0.313915,-0.149245 -0.58186,-0.31844 -0.847601,-0.535219 l -0.02924,-0.02385 0.04096,-0.002 0.04096,-0.002 0.05859,0.04816 c 0.258078,0.212116 0.526956,0.394846 0.766601,0.520984 0.04751,0.02501 0.05691,0.03083 0.04883,0.03026 -0.0016,-1.15e-4 -0.03721,-0.01651 -0.0791,-0.03642 z"
     id="path1189"
     inkscape:connector-curvature="0" />
  <path
     style="fill:#ff7f2a;fill-opacity:1;stroke:#ff7f2a;stroke-width:0.00390625;stroke-linecap:round;stroke-linejoin:miter;stroke-opacity:1;paint-order:markers fill stroke"
     d="m 79.145285,54.99137 c 0.185791,-0.01669 0.321597,-0.03571 0.486328,-0.06812 0.372127,-0.07321 0.739842,-0.194693 1.108084,-0.36609 0.09497,-0.0442 0.326109,-0.16073 0.411804,-0.207607 0.04339,-0.02373 0.07954,-0.0425 0.08034,-0.0417 0.0014,0.0014 -0.03982,0.02998 -0.04334,0.02998 -0.001,0 -0.0129,0.0075 -0.02643,0.0166 -0.01353,0.0091 -0.02812,0.01873 -0.03241,0.02132 -0.0043,0.0026 -0.02451,0.0151 -0.04492,0.02778 -0.03954,0.02457 -0.04608,0.02841 -0.111938,0.0657 -0.05583,0.03161 -0.07557,0.04252 -0.110718,0.06119 -0.04041,0.02147 -0.190761,0.09647 -0.193379,0.09647 -0.0012,0 -0.01835,0.0076 -0.03817,0.01697 -0.01982,0.0093 -0.06943,0.03068 -0.110251,0.04742 -0.04082,0.01675 -0.07949,0.03265 -0.08594,0.03534 -0.02855,0.01191 -0.134549,0.0499 -0.195312,0.06999 -0.219379,0.07254 -0.461123,0.12999 -0.673828,0.160134 -0.02471,0.0035 -0.05107,0.0073 -0.05859,0.0083 -0.08926,0.01292 -0.287292,0.02933 -0.341797,0.02832 -0.01934,-3.57e-4 -0.02813,-0.0013 -0.01953,-0.0021 z"
     id="path1191"
     inkscape:connector-curvature="0" />
  <path
     style="fill:#ff7f2a;fill-opacity:1;stroke:#ff7f2a;stroke-width:0.00390625;stroke-linecap:round;stroke-linejoin:miter;stroke-opacity:1;paint-order:markers fill stroke"
     d="m 82.905421,51.539177 -4.72e-4,-0.145508 h 0.02545 0.02545 l -0.0022,0.0127 c -0.0012,0.007 -0.01082,0.06191 -0.0214,0.12207 -0.01058,0.06016 -0.02084,0.119922 -0.02281,0.132813 -0.0026,0.01675 -0.0037,-0.01805 -0.004,-0.12207 z"
     id="path1193"
     inkscape:connector-curvature="0" />
  <path
     style="fill:#ff7f2a;fill-opacity:1;stroke:#ff7f2a;stroke-opacity:1;stroke-linejoin:miter;stroke-linecap:round;paint-order:markers fill stroke"
     d="m 52.749079,65.610472 c -0.506297,-0.516041 -0.650328,-0.896313 -0.620329,-1.637805 0.03121,-0.771443 0.157545,-1.077868 0.610126,-1.479856 l 0.316646,-0.28125 h 26.530109 26.530109 l 0.38795,0.441849 c 0.35997,0.409988 0.38795,0.509272 0.38795,1.376836 0,0.890291 -0.0205,0.957306 -0.4279,1.4019 l -0.42789,0.466915 -26.478356,0.02391 -26.478356,0.02391 z"
     id="path1195"
     inkscape:connector-curvature="0" />
  <path
     style="fill:#ff7f2a;fill-opacity:1;stroke:#ff7f2a;stroke-width:0.00390625;stroke-linecap:round;stroke-linejoin:miter;stroke-opacity:1;paint-order:markers fill stroke"
     d="m 52.718908,65.694106 c -0.299405,-0.22745 -0.506657,-0.545227 -0.584329,-0.895946 -0.01497,-0.0676 -0.01404,-0.07673 0.0022,-0.02148 0.08781,0.298966 0.246781,0.549075 0.545032,0.857504 0.08297,0.0858 0.09199,0.09563 0.08771,0.09558 -0.002,-2.4e-5 -0.02482,-0.01607 -0.0506,-0.03565 z"
     id="path1199"
     inkscape:connector-curvature="0" />
  <path
     style="fill:#ff7f2a;fill-opacity:1;stroke:#ff7f2a;stroke-width:0.00390625;stroke-linecap:round;stroke-linejoin:miter;stroke-opacity:1;paint-order:markers fill stroke"
     d="m 53.26148,62.143767 c 0.0132,-0.0054 0.129921,-0.02715 0.183594,-0.03428 0.04711,-0.0063 0.1483,-0.0068 1.401367,-0.0079 l 1.350586,-0.0012 v 0.02352 0.02352 l -1.47168,-2.48e-4 c -0.809424,-1.36e-4 -1.468164,-0.0017 -1.463867,-0.0034 z"
     id="path1201"
     inkscape:connector-curvature="0" />
  <path
     style="fill:#ff7f2a;fill-opacity:1;stroke:#ff7f2a;stroke-width:0.00390625;stroke-linecap:round;stroke-linejoin:miter;stroke-opacity:1;paint-order:markers fill stroke"
     d="m 56.202112,62.123496 v -0.02344 h 2.957031 2.957032 v 0.02344 0.02344 h -2.957032 -2.957031 z"
     id="path1207"
     inkscape:connector-curvature="0" />
  <path
     style="fill:#ff7f2a;fill-opacity:1;stroke:#ff7f2a;stroke-width:0.00390625;stroke-linecap:round;stroke-linejoin:miter;stroke-opacity:1;paint-order:markers fill stroke"
     d="m 62.119285,62.124506 v -0.02344 h 3.107422 3.107422 v 0.02344 0.02344 h -3.107422 -3.107422 z"
     id="path1209"
     inkscape:connector-curvature="0" />
  <path
     style="fill:#ff7f2a;fill-opacity:1;stroke:#ff7f2a;stroke-width:0.00390625;stroke-linecap:round;stroke-linejoin:miter;stroke-opacity:1;paint-order:markers fill stroke"
     d="m 79.489792,62.124272 v -0.02148 h 4.138672 4.138672 v 0.02148 0.02148 h -4.138672 -4.138672 z"
     id="path1211"
     inkscape:connector-curvature="0" />
  <path
     style="fill:#ff7f2a;fill-opacity:1;stroke:#ff7f2a;stroke-width:0.00390625;stroke-linecap:round;stroke-linejoin:miter;stroke-opacity:1;paint-order:markers fill stroke"
     d="m 87.772613,62.124267 v -0.02344 h 2.035156 2.035157 v 0.02344 0.02344 h -2.035157 -2.035156 z"
     id="path1213"
     inkscape:connector-curvature="0" />
  <path
     style="fill:#ff7f2a;fill-opacity:1;stroke:#ff7f2a;stroke-width:0.00390625;stroke-linecap:round;stroke-linejoin:miter;stroke-opacity:1;paint-order:markers fill stroke"
     d="m 91.84634,62.124071 v -0.02148 h 2.775391 2.775391 v 0.02148 0.02148 H 94.621731 91.84634 Z"
     id="path1215"
     inkscape:connector-curvature="0" />
  <path
     style="fill:#ff7f2a;fill-opacity:1;stroke:#ff7f2a;stroke-width:0.00390625;stroke-linecap:round;stroke-linejoin:miter;stroke-opacity:1;paint-order:markers fill stroke"
     d="m 97.401084,62.124125 v -0.02148 h 1.410157 1.410159 v 0.02148 0.02148 h -1.410159 -1.410157 z"
     id="path1217"
     inkscape:connector-curvature="0" />
  <path
     style="fill:#ff7f2a;fill-opacity:1;stroke:#ff7f2a;stroke-width:0.00390625;stroke-linecap:round;stroke-linejoin:miter;stroke-opacity:1;paint-order:markers fill stroke"
     d="m 100.22525,62.123108 v -0.02344 h 1.97851 1.97852 v 0.02344 0.02344 h -1.97852 -1.97851 z"
     id="path1219"
     inkscape:connector-curvature="0" />
  <path
     style="fill:#ff7f2a;fill-opacity:1;stroke:#ff7f2a;stroke-width:0.00390625;stroke-linecap:round;stroke-linejoin:miter;stroke-opacity:1;paint-order:markers fill stroke"
     d="m 104.18514,62.124207 v -0.02539 l 0.66309,1.4e-5 c 0.6588,1.4e-5 0.73886,0.0013 0.833,0.01373 0.0505,0.0066 0.15901,0.02824 0.16797,0.03342 0.003,0.0019 -0.35568,0.0034 -0.8291,0.0035 l -0.83496,1.18e-4 z"
     id="path1221"
     inkscape:connector-curvature="0" />
  <path
     style="fill:#ff7f2a;fill-opacity:1;stroke:#ff7f2a;stroke-width:0.00390625;stroke-linecap:round;stroke-linejoin:miter;stroke-opacity:1;paint-order:markers fill stroke"
     d="m 106.95567,64.14272 c 0.002,-0.271276 -0.003,-0.55002 -0.011,-0.661133 -0.0251,-0.348605 -0.0877,-0.508319 -0.2983,-0.761351 -0.0333,-0.04005 -0.23003,-0.266118 -0.27136,-0.311891 -0.0182,-0.0202 -0.0108,-0.01829 0.0153,0.0039 0.012,0.01019 0.0277,0.02291 0.0348,0.02829 0.0554,0.04144 0.17313,0.156813 0.21682,0.212543 0.006,0.0082 0.0156,0.01957 0.0204,0.02522 0.0125,0.01474 0.013,0.01533 0.0353,0.04544 0.0112,0.01504 0.0217,0.0291 0.0235,0.03125 0.006,0.0073 0.0502,0.0742 0.0529,0.08007 0.001,0.0032 0.006,0.01053 0.009,0.01623 0.0159,0.02423 0.0562,0.09827 0.0751,0.138067 0.0436,0.09147 0.0876,0.219485 0.10593,0.308594 0.004,0.02148 0.009,0.04258 0.01,0.04687 0.002,0.009 0.0153,0.09914 0.0192,0.130859 10e-4,0.01182 0.003,0.229346 0.004,0.483398 l 0.002,0.461914 h -0.0229 -0.0229 z"
     id="path1223"
     inkscape:connector-curvature="0" />
  <path
     style="fill:#ff7f2a;fill-opacity:1;stroke:#ff7f2a;stroke-width:0.00390625;stroke-linecap:round;stroke-linejoin:miter;stroke-opacity:1;paint-order:markers fill stroke"
     d="m 106.27509,65.734325 c 0.39554,-0.43128 0.42968,-0.470661 0.50217,-0.579253 0.11424,-0.171116 0.15629,-0.327668 0.17162,-0.638901 0.002,-0.04382 0.004,-0.08205 0.004,-0.08496 0,-0.0039 0.006,-0.0053 0.0241,-0.0053 h 0.0241 l -0.002,0.08301 c -0.004,0.130386 -0.0156,0.219522 -0.0435,0.330353 -0.0954,0.378783 -0.34748,0.719981 -0.6896,0.933513 -0.0217,0.01352 -0.0424,0.02573 -0.0461,0.02714 -0.004,0.0014 0.0214,-0.02812 0.0558,-0.06561 z"
     id="path1225"
     inkscape:connector-curvature="0" />
  <path
     style="fill:#ff7f2a;fill-opacity:1;stroke:#ff7f2a;stroke-width:0.00390625;stroke-linecap:round;stroke-linejoin:miter;stroke-opacity:1;paint-order:markers fill stroke"
     d="m 98.593949,64.521229 v -1.480496 h 4.138671 4.13867 v 1.024812 1.024813 l -0.0209,0.04257 c -0.11052,0.224633 -0.28384,0.429571 -0.49078,0.580313 -0.0425,0.03099 -0.1115,0.07541 -0.14797,0.09531 -0.0182,0.0099 -0.0378,0.0274 -0.0623,0.05561 -0.004,0.0041 -0.0232,0.02554 -0.0436,0.04757 -0.0204,0.02204 -0.0377,0.04162 -0.0384,0.04351 -7.2e-4,0.0019 -0.0512,0.0034 -0.11212,0.0034 -0.11073,0 -0.11087,1.1e-5 -0.17839,0.01349 -0.0372,0.0074 -0.0913,0.01664 -0.1203,0.02048 -0.0503,0.0067 -0.21644,0.007 -3.55762,0.008 l -3.504881,10e-4 z"
     id="path1227"
     inkscape:connector-curvature="0" />
  <path
     style="fill:#ff7f2a;fill-opacity:1;stroke:#ff7f2a;stroke-width:0.02209709;stroke-linecap:round;stroke-linejoin:miter;stroke-opacity:1;paint-order:markers fill stroke"
     d="m 78.463297,54.972455 c -0.08488,-0.01159 -0.25195,-0.04575 -0.371256,-0.07591 -1.146663,-0.289868 -2.110115,-1.0682 -2.649326,-2.140279 -0.14782,-0.293899 -0.222637,-0.492748 -0.333544,-0.886491 l -0.09336,-0.331457 -0.0059,-3.585252 -0.0058,-3.585252 h 3.999899 3.999898 l -5e-6,3.386378 c -5e-6,3.292923 -0.0012,3.393697 -0.04455,3.651544 -0.0245,0.145841 -0.05072,0.389461 -0.05827,0.541379 -0.01346,0.270921 -0.0154,0.279108 -0.101202,0.427337 -0.04811,0.08312 -0.137339,0.252161 -0.198281,0.375651 -0.136423,0.276444 -0.304848,0.538052 -0.514494,0.799148 -0.451486,0.562285 -1.149093,1.029383 -1.891864,1.266738 -0.414658,0.132506 -0.606925,0.161867 -1.113561,0.170052 -0.255221,0.0041 -0.53349,-0.002 -0.618376,-0.01358 z"
     id="path1229"
     inkscape:connector-curvature="0" />
  <path
     style="fill:#ff7f2a;fill-opacity:1;stroke:#ff7f2a;stroke-width:0.02209709;stroke-linecap:round;stroke-linejoin:miter;stroke-opacity:1;paint-order:markers fill stroke"
     d="m 78.579338,54.984537 c -0.749816,-0.07407 -1.572754,-0.445875 -2.187612,-0.988359 -0.480986,-0.424369 -0.866824,-0.979639 -1.115224,-1.604952 -0.112962,-0.284365 -0.242809,-0.779498 -0.267013,-1.018174 -0.01465,-0.144504 -0.01975,-1.849728 -0.01472,-4.927651 0.0071,-4.335224 0.01066,-4.720631 0.0454,-4.883456 0.02074,-0.09723 0.04656,-0.267338 0.05738,-0.378025 0.01941,-0.198627 0.08907,-0.438795 0.244096,-0.84159 0.130162,-0.338196 0.401316,-0.734285 0.751512,-1.097773 0.686159,-0.712204 1.516219,-1.123242 2.479792,-1.22797 0.977082,-0.106196 1.933258,0.165141 2.745969,0.779234 0.236208,0.17848 0.631489,0.576969 0.809419,0.815986 0.175966,0.236378 0.453902,0.696531 0.561186,0.929102 0.09917,0.214989 0.267359,0.800867 0.298547,1.039999 0.01614,0.123767 0.02101,1.665937 0.01559,4.941833 -0.0072,4.339884 -0.01113,4.776611 -0.0446,4.927651 -0.0202,0.09115 -0.04212,0.270136 -0.0487,0.397747 -0.01809,0.350528 -0.02651,0.387534 -0.129835,0.570708 -0.0526,0.09325 -0.147428,0.270847 -0.210729,0.39466 -0.413207,0.808215 -0.98345,1.362982 -1.824935,1.775405 -0.170147,0.08339 -0.398852,0.180923 -0.508233,0.216736 -0.5277,0.17278 -1.097037,0.234235 -1.657281,0.178889 z"
     id="path1231"
     inkscape:connector-curvature="0" />
  <path
     style="fill:#ff7f2a;fill-opacity:1;stroke:#ff7f2a;stroke-width:0.00390625;stroke-linecap:round;stroke-linejoin:miter;stroke-opacity:1;paint-order:markers fill stroke"
     d="m 73.183462,52.735853 -0.06801,-0.135542 -0.0012,-0.115235 -0.0012,-0.115234 0.02476,0.0957 c 0.04203,0.162446 0.06963,0.258998 0.106445,0.372423 0.0055,0.01684 0.0093,0.03126 0.0085,0.03203 -7.7e-4,7.71e-4 -0.03201,-0.05959 -0.06941,-0.134142 z"
     id="path1233"
     inkscape:connector-curvature="0" />
  <path
     style="fill:#ff7f2a;fill-opacity:1;stroke:#ff7f2a;stroke-width:0.01104854;stroke-linecap:round;stroke-linejoin:miter;stroke-opacity:1;paint-order:markers fill stroke"
     d="m 61.115249,55.387598 6.7e-5,-4.670772 0.08941,-0.143631 c 0.22379,-0.359498 0.572592,-0.869459 0.852048,-1.245723 l 0.121037,-0.162966 h 5.449938 5.449938 l 0.007,0.549665 c 0.0039,0.302316 0.01,1.009561 0.01356,1.571655 l 0.0065,1.02199 0.0445,0.176777 c 0.09188,0.365013 0.138218,0.485466 0.348503,0.905951 0.106373,0.212701 0.230871,0.453849 0.276663,0.535884 0.63672,1.140662 1.52754,1.970947 2.66526,2.484147 0.653408,0.294737 1.300445,0.461993 2.038244,0.526875 0.236186,0.02077 0.745001,0.02385 0.977796,0.0059 1.245008,-0.09592 2.366857,-0.526659 3.290283,-1.263309 0.754906,-0.602215 1.292928,-1.317245 1.739334,-2.311572 0.02455,-0.05469 0.04646,-0.101509 0.04868,-0.104041 0.0022,-0.0025 0.004,1.525068 0.004,3.394665 V 60.05837 H 72.826639 61.115183 Z"
     id="path1235"
     inkscape:connector-curvature="0" />
  <path
     style="fill:#ff7f2a;fill-opacity:1;stroke:#ff7f2a;stroke-width:0.35355338;stroke-linecap:round;stroke-linejoin:miter;stroke-opacity:1;paint-order:markers fill stroke"
     d="m 53.791711,155.20558 c -1.586367,-0.53823 -3.058033,-1.08597 -3.270369,-1.2172 -0.273972,-0.16933 -0.386066,-8.65478 -0.386066,-29.22519 V 95.77661 l 0.83197,-0.83197 c 1.113086,-1.113086 4.687556,-1.899615 5.39914,-1.18803 0.411954,0.411954 0.475861,5.438574 0.399962,31.45894 l -0.09033,30.96864 z"
     id="path1237"
     inkscape:connector-curvature="0" />
  <path
     style="fill:#ff7f2a;fill-opacity:1;stroke:#ff7f2a;stroke-width:0.35355338;stroke-linecap:round;stroke-linejoin:miter;stroke-opacity:1;paint-order:markers fill stroke"
     d="m 70.28782,159.22794 c -2.236226,-0.27364 -5.656855,-0.85306 -7.601398,-1.2876 l -3.535534,-0.79008 -0.09245,-14.05374 -0.09244,-14.05375 h 20.510153 20.510153 v 14.11831 c 0,13.13736 -0.04299,14.13162 -0.618718,14.30981 -6.579516,2.0364 -20.113941,2.85417 -29.079766,1.75705 z"
     id="path1239"
     inkscape:connector-curvature="0" />
  <path
     style="fill:#ff7f2a;fill-opacity:1;stroke:#ff7f2a;stroke-opacity:1;stroke-linejoin:miter;stroke-linecap:round;paint-order:markers fill stroke"
     d="m 102.10762,125.57481 c 0,-24.747 0.0923,-31.171311 0.45483,-31.667132 0.40531,-0.554297 0.63983,-0.575421 2.15441,-0.194046 3.33561,0.839917 3.04762,-2.120713 3.04762,31.329938 0,23.3207 0.092,29.45802 0.44194,29.46936 0.46723,0.0151 -5.29285,2.107 -5.80176,2.107 -0.16337,0 -0.29704,-13.9703 -0.29704,-31.04512 z"
     id="path1241"
     inkscape:connector-curvature="0" />
  <path
     style="fill:#ff7f2a;fill-opacity:1;stroke:#ff7f2a;stroke-width:0.17677669;stroke-linecap:round;stroke-linejoin:miter;stroke-opacity:1;paint-order:markers fill stroke"
     d="m 101.75552,156.92349 c 0.17562,-0.0709 0.22097,-6.5288 0.22097,-31.46033 V 94.091993 l 0.43391,-0.433906 c 0.53853,-0.538532 0.86761,-0.537367 2.73186,0.0097 1.63343,0.479305 2.01092,0.737222 2.5099,1.714895 0.32433,0.635466 0.33474,1.532429 0.33474,28.832868 0,15.49734 0.0511,28.66596 0.11357,29.26358 0.0867,0.82936 0.18085,1.08801 0.39775,1.09259 0.1563,0.003 -0.034,0.16058 -0.42293,0.3495 -0.85524,0.41547 -5.97561,2.12505 -6.30592,2.10542 -0.17834,-0.0106 -0.18167,-0.0354 -0.0138,-0.10312 z"
     id="path1243"
     inkscape:connector-curvature="0" />
  <path
     style="fill:#ff7f2a;fill-opacity:1;stroke:#ff7f2a;stroke-width:0.0625;stroke-linecap:round;stroke-linejoin:miter;stroke-opacity:1;paint-order:markers fill stroke"
     d="m 101.66959,140.26589 c -0.0295,-4.78151 0.0121,-38.57295 0.0479,-38.89063 0.0155,-0.1375 0.0433,-1.29062 0.0617,-2.5625 0.0474,-3.267229 0.1286,-4.611938 0.29917,-4.955211 0.18126,-0.364783 0.60283,-0.739412 0.93368,-0.829716 0.29786,-0.0813 0.47269,-0.0568 2.27129,0.318319 1.68691,0.351818 1.89495,0.529146 2.43338,2.074059 l 0.2675,0.767549 0.0443,1.34375 c 0.0244,0.739063 0.0719,1.90625 0.10556,2.59375 0.0358,0.73195 0.0752,10.05039 0.0949,22.48438 l 0.0336,21.23437 h -3.28551 -3.28551 z"
     id="path1245"
     inkscape:connector-curvature="0" />
  <path
     style="fill:#ff7f2a;fill-opacity:1;stroke:#ff7f2a;stroke-width:0.0625;stroke-linecap:round;stroke-linejoin:miter;stroke-opacity:1;paint-order:markers fill stroke"
     d="m 58.987079,152.92214 c -0.01183,-0.50704 -0.02728,-2.73594 -0.03433,-4.95313 -0.007,-2.21719 -0.02679,-4.90312 -0.04386,-5.96875 -0.01707,-1.06562 -0.04619,-4.44766 -0.06471,-7.51562 l -0.03367,-5.57813 H 79.469156 100.1278 l -0.011,11.89063 c -0.006,6.53984 -0.0223,12.15078 -0.036,12.46875 l -0.025,0.57812 H 79.53219 59.008587 Z"
     id="path1247"
     inkscape:connector-curvature="0" />
  <path
     style="fill:#ff7f2a;fill-opacity:1;stroke:#ff7f2a;stroke-width:0.0625;stroke-linecap:round;stroke-linejoin:miter;stroke-opacity:1;paint-order:markers fill stroke"
     d="m 49.978014,120.1276 -5.06e-4,-24.34288 0.275721,-0.362548 c 0.151646,-0.199401 0.485836,-0.562138 0.742644,-0.806081 0.621415,-0.590283 0.690433,-0.615619 3.138152,-1.15197 1.579252,-0.34605 2.293186,-0.173657 2.740658,0.661784 l 0.134342,0.250819 0.01601,25.046876 0.01601,25.04687 H 53.50978 49.978519 Z"
     id="path1249"
     inkscape:connector-curvature="0" />
  <path
     style="fill:#ff7f2a;fill-opacity:1;stroke:#ff7f2a;stroke-width:0.0625;stroke-linecap:round;stroke-linejoin:miter;stroke-opacity:1;paint-order:markers fill stroke"
     d="m 55.365683,155.94273 c -1.506018,-0.45711 -5.719426,-1.99346 -5.484375,-1.99979 0.103958,-0.003 0.109375,-1.11419 0.109375,-22.44045 v -22.4375 h 3.525493 3.525494 l -0.02961,23.67078 c -0.01628,13.01893 -0.03479,23.67526 -0.04112,23.68074 -0.0063,0.005 -0.7287,-0.20773 -1.605262,-0.47378 z"
     id="path1251"
     inkscape:connector-curvature="0" />
  <path
     style="fill:#ff7f2a;fill-opacity:1;stroke:#ff7f2a;stroke-width:0.0625;stroke-linecap:round;stroke-linejoin:miter;stroke-opacity:1;paint-order:markers fill stroke"
     d="m 56.835944,156.3867 c -0.947506,-0.1827 -7.107457,-2.36185 -6.950672,-2.45888 0.100593,-0.0623 0.09484,1.2648 0.100447,-23.19095 l 0.005,-21.67188 h 3.533067 3.533068 l -0.01212,16.54688 c -0.0067,9.10078 -0.02858,19.75352 -0.04869,23.67276 -0.0362,7.05326 -0.03783,7.12564 -0.160063,7.10207 z"
     id="path1253"
     inkscape:connector-curvature="0" />
  <path
     style="fill:#ff7f2a;fill-opacity:1;stroke:#ff7f2a;stroke-width:0.01186944;stroke-linecap:round;stroke-linejoin:miter;stroke-opacity:1;paint-order:markers fill stroke"
     d="m 99.583586,157.56844 c 0.198694,-0.13381 0.323019,-0.45095 0.386485,-0.98589 0.01494,-0.12595 0.0157,-0.11211 0.02143,0.3914 l 0.0059,0.52196 -0.225519,0.0562 c -0.124035,0.0309 -0.230789,0.0564 -0.23723,0.0567 -0.0064,2.4e-4 0.01557,-0.0179 0.0489,-0.0404 z"
     id="path335"
     inkscape:connector-curvature="0" />
  <path
     style="fill:#ff7f2a;fill-opacity:1;stroke:#ff7f2a;stroke-width:0.01186944;stroke-linecap:round;stroke-linejoin:miter;stroke-opacity:1;paint-order:markers fill stroke"
     d="m 85.688826,154.30996 v -5.49595 h 7.230439 7.230435 l -0.008,1.64095 c -0.0139,2.92085 -0.0552,4.72581 -0.12703,5.55786 -0.006,0.0718 -0.0113,0.43329 -0.0114,0.80328 -1.2e-4,0.62341 0.001,0.67301 0.0201,0.6766 0.0111,0.002 -0.153163,0.0461 -0.364988,0.0978 -0.211825,0.0516 -0.543185,0.13821 -0.736356,0.19238 -1.959201,0.54943 -4.291499,0.99612 -6.995961,1.3399 -0.18279,0.0232 -0.500594,0.0659 -0.706232,0.0949 -1.163813,0.16384 -2.393495,0.30876 -3.566765,0.42035 -0.545698,0.0519 -1.213165,0.10897 -1.602374,0.137 -0.137092,0.01 -0.274629,0.0209 -0.305638,0.0245 l -0.05638,0.006 z"
     id="path337"
     inkscape:connector-curvature="0" />
  <path
     style="fill:#ff7f2a;fill-opacity:1;stroke:#ff7f2a;stroke-width:0.10201056;stroke-linecap:round;stroke-linejoin:miter;stroke-opacity:1;paint-order:markers fill stroke"
     d="m 58.019624,59.610088 c 0.37484,-2.392 1.166878,-5.115657 2.009776,-6.911216 2.060923,-4.39022 5.471681,-7.566123 9.903777,-9.221833 0.952902,-0.355978 2.737121,-0.876412 3.006491,-0.876955 0.100195,-2.03e-4 0.127513,1.020835 0.127513,4.765858 0,5.492788 0.0023,5.5095 0.961807,6.945626 2.089648,3.127695 6.554998,3.556917 9.196963,0.884038 0.695949,-0.70409 1.136476,-1.414312 1.485372,-2.394723 0.231782,-0.651316 0.23658,-0.748617 0.270663,-5.489606 l 0.0347,-4.826538 0.3244,0.06362 c 0.17842,0.03499 0.815449,0.199949 1.41562,0.366569 3.232509,0.897413 5.804576,2.419631 8.052864,4.765901 2.609031,2.722735 4.258556,6.140927 5.136643,10.6443 0.140677,0.721485 0.255777,1.4033 0.255777,1.515146 0,0.202476 -0.0911,0.203354 -21.125152,0.203354 H 57.951685 Z"
     id="path488"
     inkscape:connector-curvature="0" />
</svg>
