<?xml version="1.0" encoding="UTF-8" standalone="no"?>
<svg
   xmlns:dc="http://purl.org/dc/elements/1.1/"
   xmlns:cc="http://creativecommons.org/ns#"
   xmlns:rdf="http://www.w3.org/1999/02/22-rdf-syntax-ns#"
   xmlns:svg="http://www.w3.org/2000/svg"
   xmlns="http://www.w3.org/2000/svg"
   xmlns:sodipodi="http://sodipodi.sourceforge.net/DTD/sodipodi-0.dtd"
   xmlns:inkscape="http://www.inkscape.org/namespaces/inkscape"
   id="offer"
   width="160"
   height="160"
   viewBox="0 0 160 160"
   version="1.1"
   sodipodi:docname="crumb_icons-23.svg"
   inkscape:version="0.92.1 r15371">
  <metadata
     id="metadata129">
    <rdf:RDF>
      <cc:Work
         rdf:about="">
        <dc:format>image/svg+xml</dc:format>
        <dc:type
           rdf:resource="http://purl.org/dc/dcmitype/StillImage" />
      </cc:Work>
    </rdf:RDF>
  </metadata>
  <defs
     id="defs127" />
  <sodipodi:namedview
     pagecolor="#ffffff"
     bordercolor="#666666"
     borderopacity="1"
     objecttolerance="10"
     gridtolerance="10"
     guidetolerance="10"
     inkscape:pageopacity="0"
     inkscape:pageshadow="2"
     inkscape:window-width="1440"
     inkscape:window-height="855"
     id="namedview125"
     showgrid="false"
     inkscape:zoom="7.4467183"
     inkscape:cx="47.523347"
     inkscape:cy="79.888206"
     inkscape:window-x="0"
     inkscape:window-y="0"
     inkscape:window-maximized="1"
     inkscape:current-layer="offer" />
  <style
     id="style118"><![CDATA[
	.st0{fill:#B8B8B8;}
	.st1{fill:#FC6454;}
	.st2{fill:#2E302F;}
	.st3{fill:#00C492;}
]]></style>
  <path
     class="st3"
     d="M114.3 47.8c-1.5 3.7-5.1 6.3-9.3 6.3H89c-4.1 0-7.7-2.5-9.2-6.1-.1-.3-.3-.7-.4-1.1-.1-.3-.2-.7-.2-1-.1-.7-.2-1.3-.2-1.9v-7h36v7c0 .5-.1 1.1-.1 1.6-.1.4-.1.7-.2 1.1-.2.3-.3.7-.4 1.1zm-36 8.5l-15 15c-.4.4-.4 1 0 1.4.2.2.5.3.7.3s.5-.1.7-.3l15-15c.4-.4.4-1 0-1.4s-1-.4-1.4 0zm52.4 15l-15-15c-.4-.4-1-.4-1.4 0s-.4 1 0 1.4l15 15c.2.2.5.3.7.3s.5-.1.7-.3c.4-.4.4-1 0-1.4zM88.3 58c-.5-.2-1.1.1-1.2.7l-5 17c-.2.5.1 1.1.7 1.2h.3c.4 0 .8-.3 1-.7l5-17c0-.4-.3-1-.8-1.2zm18.7.7c-.2-.5-.7-.8-1.2-.7-.5.2-.8.7-.7 1.2l5 17c.1.4.5.7 1 .7h.3c.5-.2.8-.7.7-1.2l-5.1-17zM97 58c-.6 0-1 .4-1 1v16c0 .6.4 1 1 1s1-.4 1-1V59c0-.6-.4-1-1-1z"
     id="path120" />
  <path
     class="st2"
     d="M158.7 94.1c.1-.8.3-1.6.4-2.4l-9.3-9.3.4-.4h-3.7l.4.4-12 12-12-12 .4-.4h-3.7l.4.4-12 12-12-12 .4-.4h-3.7l.4.4-12 12-12-12 .4-.4h-3.7l.4.4-12 12-12-12 .4-.4h-3.5l.4.4-11 11V77.5c0-21 16.7-37.2 37.1-40.1 1.9 5 6.2 8.8 11.4 10.1 2 4.9 6.6 8.5 12 8.5h16c5.5 0 10.1-3.7 11.6-8.8 6.6-2.1 11.4-8.4 11.4-15.7 0-9.1-7.4-16.5-16.5-16.5h-30c-7.3 0-13.5 4.8-15.7 11.4C39.5 29.5 18 50.5 18 77.5v6.8l-2-2 .4-.4h-3.7l.4.4-11.8 12v.1c.1.8.3 1.5.4 2.3.1.4.3.8.4 1.3l11.2 11.2-5.4 5.4c.3.6.6 1.3 1 1.9l5.9-5.9 3.4 3.4v16.6c.1.1.2.2.2.3.2.3.5.6.8.9.2.2.4.4.5.6l.5.5v-1l7-7v15c.3.3.7.6 1 .9.3.3.7.6 1 .9V125l11 11-8.1 8.1c.5.4 1.1.8 1.6 1.2l7.8-7.8 12 12L49 154c.7.3 1.4.5 2 .8l3.9-3.9 7.3 7.3c1.2.3 2.4.5 3.6.7l-9.4-9.4 12-12 12 12-10.4 9.9c.8.1 1.7.2 2.5.3l9-9 8.7 8.7c.8-.1 1.7-.2 2.5-.3l-9.7-9.7 12-12 12 12-8.6 8.6c1.3-.3 2.6-.6 3.8-1l6.2-6.2 3 3c.7-.3 1.3-.6 1.9-.9l-3.5-3.5 12-12 6.6 6.6c.5-.4 1.1-.8 1.6-1.2l-6.7-6.7 12-12 6.8 6.8c.4-.5.8-1.1 1.2-1.6l-6.7-6.7 12-12 3.9 3.9c.3-.6.6-1.3.9-1.9l-3.3-3.3 7.1-7.1c.4-1.3.7-2.5 1-3.8l-9.5 9.5-12-12 12-12 10 10.2zm-37.1-10.3l12 12-12 12-12-12 12-12zm-66.8 37.3l-12-12 12-12 12 12-12 12zm13.3-10.6l12 12-12 12-12-12 12-12zm1.4-1.4l12-12 12 12-12 12-12-12zm25.4 1.4l12 12-12 12-12-12 12-12zm1.4-1.4l12-12 12 12-12 12-12-12zm-1.4-25.3l12 12-12 12-12-12 12-12zm-26.8 0l12 12-12 12-12-12 12-12zm-26.7 0l12 12-12 12-12-12 12-12zM20 82v-4.5c0-25.2 19.9-45.7 45.3-49-.2 1-.3 2-.3 3 0 1.4.2 2.7.5 4C43.9 38.6 27 56.1 27 77.5v15.8l-7-7V82zm48-55.8c2.1-5.4 7.4-9.2 13.5-9.2h30c8 0 14.5 6.5 14.5 14.5 0 6.1-3.7 11.3-9 13.4V35H77v9c0 .4 0 .9.1 1.3-4-1.3-7.3-4.3-8.9-8.1-.1-.3-.2-.6-.4-1-.1-.3-.2-.6-.3-1-.3-1.2-.5-2.5-.5-3.8 0-1.1.1-2.2.4-3.3.1-.3.2-.7.3-1 .1-.2.2-.6.3-.9zm46.3 21.6c-1.5 3.7-5.1 6.3-9.3 6.3H89c-4.1 0-7.7-2.5-9.2-6.1-.1-.3-.3-.7-.4-1.1-.1-.3-.2-.7-.2-1-.1-.7-.2-1.3-.2-1.9v-7h36v7c0 .5-.1 1.1-.1 1.6-.1.4-.1.7-.2 1.1-.2.3-.3.7-.4 1.1zm-87.7 48l-6.6 6.6V89.2l6.6 6.6zm-6.6 9.4l7-7v21.9l-7-7v-7.9zm9-7l11 11-11 11v-22zM2.7 95.8l12-12 3.4 3.4v17.2l-3.4 3.4-12-12zM16 109.1l2-2v3.9l-2-1.9zm4 20v-13.2l6.6 6.6-6.6 6.6zm9.4-6.6l12-12 12 12-12 12-12-12zm25.4 25.3l-12-12 12-12 12 12-12 12zm26.7 0l-12-12 12-12 12 12-12 12zm26.8 0l-12-12 12-12 12 12-12 12zm13.3-13.3l-12-12 12-12 12 12-12 12zm25.4-25.4l-12 12-12-12 12-12 12 12z"
     id="path122" />
  <path
     style="fill:#ff7f2a;fill-opacity:1;stroke:#ff7f2a;stroke-width:0.2575064;stroke-linecap:round;stroke-linejoin:miter;stroke-opacity:1;paint-order:markers fill stroke"
     d="m 86.536203,53.702807 c -1.510646,-0.373456 -3.317232,-1.414081 -4.4917,-2.587301 -2.323924,-2.32145 -3.059956,-4.90131 -3.069428,-10.758618 l -0.0051,-3.154454 h 18.025449 18.025446 l -0.008,3.154454 c -0.011,4.139653 -0.30661,6.276448 -1.11123,8.033969 -0.82028,1.791731 -2.77758,3.73141 -4.73466,4.692026 l -1.48462,0.728715 -10.171503,0.04483 c -5.594327,0.02466 -10.532732,-0.04447 -10.974233,-0.153619 z"
     id="path139"
     inkscape:connector-curvature="0" />
  <path
     style="fill:#ff7f2a;fill-opacity:1;stroke:#ff7f2a;stroke-width:0.2575064;stroke-linecap:round;stroke-linejoin:miter;stroke-opacity:1;paint-order:markers fill stroke"
     d="m 86.086517,53.710869 c -1.98116,-0.643272 -3.042745,-1.342168 -4.559532,-3.001774 -2.090069,-2.286869 -2.429449,-3.491757 -2.553241,-9.064675 l -0.10439,-4.699492 h 18.050009 18.050007 v 4.574374 c 0,3.827477 -0.0786,4.789541 -0.48167,5.892164 -1.00206,2.741533 -2.77863,4.626242 -5.61199,5.953616 l -1.50278,0.704022 -9.913995,0.05765 c -9.020291,0.05246 -10.045468,0.01497 -11.372418,-0.415888 z"
     id="path946"
     inkscape:connector-curvature="0" />
  <path
     style="fill:#ff7f2a;fill-opacity:1;stroke:#ff7f2a;stroke-width:0.04552113;stroke-linecap:round;stroke-linejoin:miter;stroke-opacity:1;paint-order:markers fill stroke"
     d="m 129.7609,72.940919 c -0.0862,-0.02584 -0.19887,-0.07606 -0.25036,-0.111599 -0.17804,-0.122873 -15.3299,-15.292003 -15.38787,-15.405406 -0.18821,-0.368178 -0.11307,-0.77979 0.19942,-1.092273 0.32631,-0.326309 0.71938,-0.395462 1.11826,-0.196733 0.18761,0.09347 15.25186,15.148468 15.38724,15.377797 0.14481,0.245283 0.18269,0.483985 0.11513,0.725318 -0.14134,0.504818 -0.71144,0.843889 -1.18182,0.702896 z"
     id="path968"
     inkscape:connector-curvature="0" />
  <path
     style="fill:#ff7f2a;fill-opacity:1;stroke:#ff7f2a;stroke-width:0.04552113;stroke-linecap:round;stroke-linejoin:miter;stroke-opacity:1;paint-order:markers fill stroke"
     d="m 110.62066,76.768931 c -0.21831,-0.108934 -0.33601,-0.212528 -0.41499,-0.36526 -0.0579,-0.111983 -5.03145,-16.981766 -5.09546,-17.283337 -0.0476,-0.224495 0.0815,-0.603841 0.27258,-0.800588 0.24526,-0.252529 0.40144,-0.317168 0.71208,-0.294698 0.32639,0.02361 0.59216,0.192978 0.77324,0.492781 0.15824,0.261979 5.22847,17.153958 5.22701,17.414301 -10e-4,0.258919 -0.13751,0.51905 -0.38581,0.737605 -0.21577,0.189929 -0.22099,0.191686 -0.56416,0.189889 -0.24956,-0.0013 -0.39617,-0.02666 -0.52449,-0.09069 z"
     id="path970"
     inkscape:connector-curvature="0" />
  <path
     style="fill:#ff7f2a;fill-opacity:1;stroke:#ff7f2a;stroke-width:0.04552113;stroke-linecap:round;stroke-linejoin:miter;stroke-opacity:1;paint-order:markers fill stroke"
     d="m 96.696497,75.933416 c -0.256775,-0.07108 -0.465621,-0.252293 -0.583034,-0.505894 -0.08106,-0.175082 -0.08434,-0.498232 -0.0853,-8.403236 -7.41e-4,-6.090359 0.0126,-8.261257 0.05148,-8.375889 0.08131,-0.239732 0.211589,-0.398633 0.409674,-0.499689 0.238079,-0.121458 0.558385,-0.156107 0.811652,-0.0878 0.260079,0.07015 0.563115,0.364752 0.632583,0.614986 0.06922,0.249328 0.07189,16.401496 0.0028,16.650448 -0.133362,0.480232 -0.698456,0.75693 -1.239815,0.607072 z"
     id="path972"
     inkscape:connector-curvature="0" />
  <path
     style="fill:#ff7f2a;fill-opacity:1;stroke:#ff7f2a;stroke-width:0.04552113;stroke-linecap:round;stroke-linejoin:miter;stroke-opacity:1;paint-order:markers fill stroke"
     d="m 82.476598,76.746625 c -0.104561,-0.06267 -0.232616,-0.182728 -0.284568,-0.266788 -0.219849,-0.355723 -0.35756,0.171918 2.407232,-9.223358 1.403536,-4.769477 2.573604,-8.725419 2.600149,-8.790983 0.06269,-0.154821 0.303414,-0.38564 0.466205,-0.447015 0.336941,-0.127031 0.76542,-0.0043 1.027641,0.294353 0.196291,0.223563 0.368155,0.592159 0.368726,0.790803 4.64e-4,0.161089 -4.921328,16.957986 -5.0291,17.163118 -0.08157,0.155255 -0.374772,0.430248 -0.555914,0.521386 -0.09451,0.04755 -0.262398,0.07315 -0.477971,0.07287 -0.273099,-3.64e-4 -0.366154,-0.02073 -0.5224,-0.114382 z"
     id="path974"
     inkscape:connector-curvature="0" />
  <path
     style="fill:#ff7f2a;fill-opacity:1;stroke:#ff7f2a;stroke-width:0.18208453;stroke-linecap:round;stroke-linejoin:miter;stroke-opacity:1;paint-order:markers fill stroke"
     d="m 63.46687,72.727046 c -0.179187,-0.104366 -0.318648,-0.401139 -0.318648,-0.678083 0,-0.406126 1.349181,-1.841389 7.693866,-8.184756 6.106826,-6.105558 7.789477,-7.692268 8.157387,-7.692268 0.560415,0 0.900524,0.306323 0.900524,0.81107 0,0.442465 -15.410972,15.943936 -15.842139,15.93517 -0.149788,-0.003 -0.415734,-0.08906 -0.59099,-0.191133 z"
     id="path976"
     inkscape:connector-curvature="0" />
  <path
     style="fill:#ff7f2a;fill-opacity:1;stroke:#ff7f2a;stroke-width:0.01138028;stroke-linecap:round;stroke-linejoin:miter;stroke-opacity:1;paint-order:markers fill stroke"
     d="m 74.428467,62.952151 c 0,-0.0058 0.147372,-0.159478 0.327494,-0.3414 0.340364,-0.343766 1.347815,-1.376713 1.948813,-1.998133 2.030803,-2.099807 3.13449,-3.2983 3.269635,-3.550494 l 0.02135,-0.03983 -0.0068,0.07201 c -0.01501,0.159612 -0.09247,0.355197 -0.192321,0.485621 -0.05693,0.07436 -5.368194,5.389612 -5.368194,5.372224 z"
     id="path978"
     inkscape:connector-curvature="0" />
  <path
     style="fill:#ff7f2a;fill-opacity:1;stroke:#ff7f2a;stroke-width:0.01138028;stroke-linecap:round;stroke-linejoin:miter;stroke-opacity:1;paint-order:markers fill stroke"
     d="m 77.193876,57.411103 c 0.79271,-0.791342 1.211948,-1.201919 1.257346,-1.231366 0.194619,-0.126239 0.331806,-0.168026 0.552119,-0.168177 0.13411,-9.2e-5 0.166355,0.0038 0.253742,0.03029 0.101267,0.03075 0.201649,0.07703 0.264061,0.121746 0.04004,0.02868 0.02391,0.0257 -0.08646,-0.01602 -0.09697,-0.03665 -0.216393,-0.06045 -0.351686,-0.07007 -0.09399,-0.0067 -0.117776,-0.0044 -0.182084,0.01719 -0.213482,0.0718 -0.596573,0.369156 -1.297027,1.006757 -0.356698,0.324691 -1.053129,0.982834 -1.412254,1.334614 -0.09118,0.08932 -0.170561,0.162358 -0.176395,0.162312 -0.0058,-4.7e-5 0.524551,-0.53432 1.178633,-1.187275 z"
     id="path980"
     inkscape:connector-curvature="0" />
  <path
     style="fill:#ff7f2a;fill-opacity:1;stroke:#ff7f2a;stroke-width:0.00390625;stroke-linecap:round;stroke-linejoin:miter;stroke-opacity:1;paint-order:markers fill stroke"
     d="m 88.198632,62.2371 c 0,-0.0013 0.03065,-0.10813 0.06812,-0.237305 0.314692,-1.085033 0.654012,-2.271642 0.757482,-2.648925 0.0519,-0.189228 0.06105,-0.228219 0.06165,-0.262497 l 5.3e-4,-0.03047 0.005,0.03711 c 0.0027,0.02041 0.0052,0.05293 0.0054,0.07227 l 4.44e-4,0.03516 -0.446399,1.518526 c -0.24552,0.83519 -0.447718,1.518539 -0.449329,1.518555 -0.0016,1.5e-5 -0.0029,-0.0011 -0.0029,-0.0024 z"
     id="path982"
     inkscape:connector-curvature="0" />
  <path
     style="fill:#ff7f2a;fill-opacity:1;stroke:#ff7f2a;stroke-width:0.00390625;stroke-linecap:round;stroke-linejoin:miter;stroke-opacity:1;paint-order:markers fill stroke"
     d="m 97.992714,60.621708 c -0.0062,-0.898189 -0.01843,-1.719354 -0.02801,-1.88086 l -0.0019,-0.03125 0.0055,0.02148 c 0.0093,0.03607 0.02102,0.112484 0.02542,0.166015 0.0029,0.03487 0.0038,0.380725 0.003,1.103516 -0.001,0.932474 -0.0015,1.003426 -0.0041,0.621094 z"
     id="path984"
     inkscape:connector-curvature="0" />
  <path
     style="fill:#ff7f2a;fill-opacity:1;stroke:#ff7f2a;stroke-width:0.00390625;stroke-linecap:round;stroke-linejoin:miter;stroke-opacity:1;paint-order:markers fill stroke"
     d="m 97.855916,58.460025 c -0.08212,-0.123397 -0.226205,-0.260864 -0.350608,-0.334502 -0.01926,-0.0114 -0.03425,-0.0215 -0.03331,-0.02243 9.39e-4,-9.38e-4 0.01618,0.0057 0.03387,0.01469 0.121108,0.06171 0.229271,0.155064 0.310048,0.267606 0.02553,0.03557 0.06618,0.103183 0.06359,0.105773 -9.49e-4,9.5e-4 -0.01156,-0.01306 -0.02359,-0.03113 z"
     id="path986"
     inkscape:connector-curvature="0" />
  <path
     style="fill:#ff7f2a;fill-opacity:1;stroke:#ff7f2a;stroke-width:0.00390625;stroke-linecap:round;stroke-linejoin:miter;stroke-opacity:1;paint-order:markers fill stroke"
     d="m 96.002647,59.862919 c 0.0012,-0.8959 0.0018,-0.977324 0.008,-1.019865 0.0078,-0.05364 0.0234,-0.129603 0.03184,-0.15494 l 0.0059,-0.01758 -0.0019,0.03125 c -0.0097,0.164494 -0.01578,0.382254 -0.02149,0.77539 -0.0042,0.289657 -0.01165,1.09265 -0.01168,1.260743 -1.8e-5,0.08572 -7.99e-4,0.09863 -0.006,0.09863 -0.0053,0 -0.0058,-0.103722 -0.0047,-0.973632 z"
     id="path988"
     inkscape:connector-curvature="0" />
  <path
     style="fill:#ff7f2a;fill-opacity:1;stroke:#ff7f2a;stroke-width:0.00390625;stroke-linecap:round;stroke-linejoin:miter;stroke-opacity:1;paint-order:markers fill stroke"
     d="m 130.93567,71.677434 c -0.0166,-0.04453 -0.0658,-0.144951 -0.0855,-0.17479 -0.009,-0.01289 -0.0309,-0.04014 -0.0497,-0.06055 -0.13076,-0.141986 -0.53811,-0.560497 -1.06758,-1.096811 -0.14271,-0.144554 -0.25872,-0.263582 -0.25779,-0.264505 9.2e-4,-9.24e-4 0.28746,0.284341 0.63676,0.63392 0.43769,0.438052 0.64516,0.648347 0.66751,0.676615 0.0473,0.05976 0.0823,0.115042 0.11644,0.183594 0.0287,0.05769 0.0583,0.131007 0.0545,0.134877 -0.001,9.97e-4 -0.008,-0.01356 -0.0146,-0.03235 z"
     id="path990"
     inkscape:connector-curvature="0" />
  <path
     style="fill:#ff7f2a;fill-opacity:1;stroke:#ff7f2a;stroke-width:0.00390625;stroke-linecap:round;stroke-linejoin:miter;stroke-opacity:1;paint-order:markers fill stroke"
     d="m 114.84418,58.239994 c -0.51647,-0.517017 -0.61073,-0.61308 -0.63922,-0.651438 -0.0342,-0.04609 -0.0749,-0.10889 -0.0723,-0.111535 8.2e-4,-8.13e-4 0.0417,0.04022 0.0908,0.0912 0.12711,0.131863 0.45567,0.46601 0.85931,0.873925 0.19134,0.193359 0.35912,0.363428 0.37286,0.37793 l 0.025,0.02637 h -0.0153 c -0.0152,0 -0.0218,-0.0065 -0.62113,-0.606445 z"
     id="path992"
     inkscape:connector-curvature="0" />
  <path
     style="fill:#ff7f2a;fill-opacity:1;stroke:#ff7f2a;stroke-width:0.02373887;stroke-linecap:round;stroke-linejoin:miter;stroke-opacity:1;paint-order:markers fill stroke"
     d="m 63.766771,72.977089 c -0.516886,-0.145086 -0.85191,-0.63858 -0.765717,-1.127907 0.0605,-0.343455 -0.537977,0.275554 7.775067,-8.041824 7.405565,-7.409426 7.628231,-7.629667 7.800074,-7.715134 0.170631,-0.08486 0.18576,-0.08796 0.4273,-0.08759 0.234423,3.61e-4 0.260657,0.0054 0.410997,0.07853 0.212051,0.103189 0.390997,0.280829 0.493919,0.490316 0.07778,0.158323 0.0814,0.177301 0.0814,0.427799 0,0.249035 -0.004,0.270399 -0.07999,0.427798 -0.07659,0.158636 -0.400258,0.486171 -7.620178,7.711265 -4.147103,4.150076 -7.601882,7.591842 -7.677285,7.64837 -0.254572,0.190846 -0.579167,0.263159 -0.845582,0.188377 z"
     id="path722"
     inkscape:connector-curvature="0" />
  <path
     style="fill:#ff7f2a;fill-opacity:1;stroke:#ff7f2a;stroke-width:0.01678592;stroke-linecap:round;stroke-linejoin:miter;stroke-opacity:1;paint-order:markers fill stroke"
     d="m 82.56594,74.082654 c 0.004,-0.01154 0.180131,-0.610168 0.391293,-1.330284 0.211162,-0.720116 0.388056,-1.313078 0.393099,-1.317694 0.005,-0.0046 0.01002,-0.02043 0.01106,-0.03514 0.0023,-0.03295 0.257806,-0.906863 0.2718,-0.929759 0.0055,-0.0091 0.01121,-0.02795 0.0126,-0.04196 0.0035,-0.03546 0.03982,-0.163421 0.0614,-0.216403 0.0099,-0.02424 0.01955,-0.0554 0.0215,-0.06925 0.0055,-0.03915 0.04252,-0.16724 0.06243,-0.216108 0.0099,-0.02424 0.01955,-0.0554 0.0215,-0.06925 0.0055,-0.03915 0.04252,-0.16724 0.06243,-0.216107 0.0099,-0.02424 0.01955,-0.05541 0.0215,-0.06925 0.0055,-0.03915 0.04252,-0.167241 0.06243,-0.216108 0.0099,-0.02424 0.01955,-0.0554 0.0215,-0.06925 0.0055,-0.03915 0.04252,-0.16724 0.06243,-0.216107 0.0099,-0.02424 0.0194,-0.0554 0.02116,-0.06925 0.0054,-0.0426 0.619346,-2.122871 0.629121,-2.131812 0.005,-0.0046 0.0092,-0.01595 0.0092,-0.02518 1.34e-4,-0.03267 0.06529,-0.260182 0.0745,-0.260193 0.0051,-7e-6 0.01066,-0.017 0.01225,-0.03777 0.0016,-0.02077 0.516314,-1.782652 1.143822,-3.915303 0.627507,-2.132651 1.15727,-3.937711 1.17725,-4.011245 0.04922,-0.18114 0.119824,-0.3072 0.238568,-0.425945 0.174562,-0.174561 0.371393,-0.254474 0.626787,-0.254474 0.230754,0 0.401986,0.06089 0.600665,0.213581 0.257861,0.19818 0.48992,0.612325 0.524609,0.936244 0.01116,0.10423 -0.01502,0.194984 -2.155426,7.472136 -1.191699,4.051644 -2.178537,7.406282 -2.192975,7.454752 l -0.02625,0.08813 h -1.083837 c -0.859806,0 -1.082316,-0.0043 -1.076476,-0.02098 z"
     id="path724"
     inkscape:connector-curvature="0" />
  <path
     style="fill:#ff7f2a;fill-opacity:1;stroke:#ff7f2a;stroke-width:0.01678592;stroke-linecap:round;stroke-linejoin:miter;stroke-opacity:1;paint-order:markers fill stroke"
     d="m 96.81541,75.996035 c -0.400509,-0.06395 -0.675203,-0.306329 -0.790778,-0.697753 -0.02818,-0.09545 -0.02997,-0.418818 -0.03411,-6.189807 l -0.0044,-6.089091 h 1.007335 1.007336 v 6.081368 c 0,6.742242 0.01026,6.155749 -0.112073,6.407354 -0.109422,0.225056 -0.320854,0.39176 -0.585122,0.461343 -0.12094,0.03184 -0.37025,0.04542 -0.488206,0.02659 z"
     id="path726"
     inkscape:connector-curvature="0" />
  <path
     style="fill:#ff7f2a;fill-opacity:1;stroke:#ff7f2a;stroke-width:0.06714367;stroke-linecap:round;stroke-linejoin:miter;stroke-opacity:1;paint-order:markers fill stroke"
     d="m 110.57652,76.804507 c -0.14892,-0.07372 -0.31979,-0.217212 -0.37971,-0.31888 -0.0599,-0.101668 -1.24733,-4.052326 -2.6387,-8.779241 -2.0315,-6.901635 -2.52304,-8.646143 -2.49561,-8.857151 0.0402,-0.308995 0.20347,-0.549812 0.52017,-0.767109 0.40744,-0.279549 0.97274,-0.118522 1.30713,0.372341 0.14948,0.219439 5.26885,17.200484 5.26756,17.472606 -10e-4,0.269371 -0.26398,0.728717 -0.50026,0.874749 -0.28471,0.17596 -0.72831,0.177062 -1.08058,0.0027 z"
     id="path728"
     inkscape:connector-curvature="0" />
  <path
     style="fill:#ff7f2a;fill-opacity:1;stroke:#ff7f2a;stroke-width:0.06714367;stroke-linecap:round;stroke-linejoin:miter;stroke-opacity:1;paint-order:markers fill stroke"
     d="m 129.58036,72.918887 c -0.33829,-0.16321 -15.43731,-15.261742 -15.54071,-15.540211 -0.24573,-0.661766 0.23012,-1.38886 0.90895,-1.38886 0.15832,0 0.3729,0.03178 0.47686,0.07062 0.23421,0.0875 15.13426,14.953027 15.40448,15.368786 0.24424,0.37578 0.25955,0.76036 0.0429,1.078622 -0.33419,0.491023 -0.81187,0.642935 -1.29252,0.411046 z"
     id="path730"
     inkscape:connector-curvature="0" />
</svg>
