<?xml version="1.0" encoding="UTF-8" standalone="no"?>
<svg
   xmlns:dc="http://purl.org/dc/elements/1.1/"
   xmlns:cc="http://creativecommons.org/ns#"
   xmlns:rdf="http://www.w3.org/1999/02/22-rdf-syntax-ns#"
   xmlns:svg="http://www.w3.org/2000/svg"
   xmlns="http://www.w3.org/2000/svg"
   xmlns:sodipodi="http://sodipodi.sourceforge.net/DTD/sodipodi-0.dtd"
   xmlns:inkscape="http://www.inkscape.org/namespaces/inkscape"
   id="offer"
   width="112"
   height="95"
   viewBox="0 0 112 95"
   version="1.1"
   sodipodi:docname="crumb_icons-17.svg"
   inkscape:version="0.92.1 r15371">
  <metadata
     id="metadata1347">
    <rdf:RDF>
      <cc:Work
         rdf:about="">
        <dc:format>image/svg+xml</dc:format>
        <dc:type
           rdf:resource="http://purl.org/dc/dcmitype/StillImage" />
      </cc:Work>
    </rdf:RDF>
  </metadata>
  <defs
     id="defs1345" />
  <sodipodi:namedview
     pagecolor="#ffffff"
     bordercolor="#666666"
     borderopacity="1"
     objecttolerance="10"
     gridtolerance="10"
     guidetolerance="10"
     inkscape:pageopacity="0"
     inkscape:pageshadow="2"
     inkscape:window-width="1440"
     inkscape:window-height="855"
     id="namedview1343"
     showgrid="false"
     inkscape:zoom="3.2702303"
     inkscape:cx="83.808592"
     inkscape:cy="20.53668"
     inkscape:window-x="0"
     inkscape:window-y="0"
     inkscape:window-maximized="1"
     inkscape:current-layer="offer" />
  <style
     id="style1336"><![CDATA[
	.st0{fill:#B8B8B8;}
	.st1{fill:#FC6454;}
	.st2{fill:#2E302F;}
	.st3{fill:#00C492;}
]]></style>
  <path
     class="st3"
     d="M71.5 76c1.4 0 2.5 1.1 2.5 2.5S72.9 81 71.5 81H70v6h37c.1 0 1.1-.1 1.8-1.1s1.2-3.3-.6-8.1l-.1-.3.1-.3c.5-1.4.3-3.3-.7-5.5-.7-1.5-2.6-2.7-4.6-4-.4-.2-.8-.5-1.1-.7l-.1-.1-.1-.1c-1.8-2.3-3.7-4.5-5.8-6.7l-.1-.2-.1-.2c-.3-.7-.5-1.5-.8-2.3-.8-2.3-1.5-4.8-3.1-6.2-1.6-1.5-4.1-2-6.5-2.6-2.1-.5-4.2-.9-5.9-2-1.8-1.1-3.3-2.8-4.7-4.4-1.5-1.7-2.9-3.2-4.4-3.9V76h1.3z"
     id="path1338" />
  <path
     class="st2"
     d="M110.2 77.4c.5-1.9.2-4.1-.9-6.6-.9-2-3.1-3.4-5.3-4.9-.3-.2-.7-.4-1-.6-1.7-2.2-3.7-4.5-5.7-6.6-.2-.7-.5-1.3-.7-2-.8-2.6-1.7-5.3-3.7-7.1-2-1.8-4.8-2.5-7.5-3.1-2-.4-3.9-.9-5.3-1.7-1.6-1-3-2.5-4.3-4-1.9-2.1-3.6-4-5.9-4.7V20h1.5c1.4 0 2.5-1.1 2.5-2.5s-1-2.5-2.4-2.5H70V5h1.5C72.9 5 74 3.9 74 2.5S72.9 0 71.5 0h-69C1.1 0 0 1.1 0 2.5S1.1 5 2.5 5H5v10H2.5C1.1 15 0 16.1 0 17.5S1.1 20 2.5 20H5v56H2.5C1.1 76 0 77.1 0 78.5S1.1 81 2.5 81H5v9H2.5C1.1 90 0 91.1 0 92.5S1.1 95 2.5 95h69c1.4 0 2.5-1.1 2.5-2.5S72.9 90 71.5 90H70v-1h37c.1 0 2.1 0 3.4-1.9 1.4-2 1.4-5.2-.2-9.7zM107 87H70v-6h1.5c1.4 0 2.5-1.1 2.5-2.5S72.9 76 71.5 76H70V38.3c1.5.7 3 2.2 4.4 3.9 1.4 1.6 2.9 3.2 4.7 4.4 1.7 1.1 3.8 1.5 5.9 2 2.4.5 4.9 1.1 6.5 2.6 1.6 1.5 2.4 3.9 3.1 6.2.3.8.5 1.6.8 2.3l.1.2.1.2c2.1 2.2 4 4.4 5.8 6.7l.1.1.1.1c.4.3.8.5 1.1.7 2 1.3 3.9 2.5 4.6 4 1 2.2 1.2 4 .7 5.5l-.1.3.1.3c1.8 4.9 1.3 7.1.6 8.1-.5 1-1.5 1.1-1.6 1.1zm-39 2v1H7v-9h61v8zm4 3.5c0 .3-.2.5-.5.5h-69c-.3 0-.5-.2-.5-.5s.2-.5.5-.5h69c.3 0 .5.2.5.5zm-70-14c0-.3.2-.5.5-.5h69c.3 0 .5.2.5.5s-.2.5-.5.5h-69c-.3 0-.5-.2-.5-.5zm0-61c0-.3.2-.5.5-.5h69c.3 0 .5.2.5.5s-.2.5-.5.5h-69c-.3 0-.5-.2-.5-.5zm0-15c0-.3.2-.5.5-.5h69c.3 0 .5.2.5.5s-.2.5-.5.5h-69c-.3 0-.5-.2-.5-.5zM7 5h61v10H7V5zm0 15h61v56H7V20z"
     id="path1340" />
  <path
     style="fill:#ff7f2a;fill-opacity:1;stroke:#ff7f2a;stroke-width:0.05405635;stroke-linecap:round;stroke-linejoin:miter;stroke-opacity:1;paint-order:markers fill stroke"
     d="M 70.021024,83.979329 V 81.00623 h 0.928925 c 1.060784,0 1.404009,-0.06641 1.872096,-0.362212 1.056832,-0.667859 1.478167,-1.986548 0.998285,-3.124423 -0.2762,-0.654911 -0.751713,-1.108035 -1.447855,-1.379681 -0.282174,-0.11011 -0.442046,-0.129505 -1.229782,-0.149194 L 70.237249,75.96809 V 57.972776 39.977464 h 1.048393 1.048392 l 0.55491,0.581106 c 0.3052,0.319608 0.763438,0.824359 1.018306,1.121669 1.457714,1.700456 2.986296,3.260254 3.982909,4.064245 1.886031,1.521505 3.086343,1.990566 7.72612,3.019234 4.534724,1.005376 6.186899,2.0866 7.596118,4.971086 0.308513,0.631485 1.079926,2.611584 1.079926,2.772005 0,0.121422 1.028236,3.100873 1.160737,3.36339 0.08502,0.168437 0.35249,0.508192 0.617065,0.783817 1.243713,1.295658 3.125966,3.458678 4.609885,5.297522 0.74077,0.917946 0.87362,1.055787 1.2503,1.297352 3.04988,1.955841 4.09888,2.750463 4.80696,3.641308 0.74364,0.935586 1.40725,2.881087 1.48307,4.347926 0.0337,0.651537 -0.0473,1.286498 -0.24502,1.921855 l -0.10513,0.337767 0.34313,1.02635 c 0.98894,2.958038 1.23389,5.08875 0.75055,6.528601 -0.28937,0.862023 -0.86261,1.565419 -1.45698,1.787802 l -0.29916,0.111929 H 88.614379 70.021024 Z"
     id="path1349"
     inkscape:connector-curvature="0" />
  <path
     style="fill:#ff7f2a;fill-opacity:1;stroke:#ff7f2a;stroke-width:0.05405635;stroke-linecap:round;stroke-linejoin:miter;stroke-opacity:1;paint-order:markers fill stroke"
     d="m 69.966967,83.148714 v -2.128116 l 0.986529,-0.02796 c 1.124617,-0.03187 1.440373,-0.103653 1.953168,-0.444027 0.381864,-0.253467 0.628225,-0.550349 0.850038,-1.024352 0.305922,-0.65374 0.277863,-1.531898 -0.07078,-2.2153 -0.144961,-0.284147 -0.606664,-0.76664 -0.895686,-0.936019 -0.471831,-0.276511 -0.80622,-0.339368 -1.841554,-0.346169 -0.525077,-0.0034 -0.912115,-0.0174 -0.860086,-0.03099 0.08987,-0.02348 0.0946,-0.964491 0.0946,-18.805337 0,-10.329339 0.01936,-18.780616 0.04303,-18.780616 0.08524,0 0.847245,0.497345 1.281252,0.836242 0.243766,0.190346 0.696228,0.587657 1.005472,0.882913 0.536058,0.51181 0.786149,0.785049 2.136377,2.334118 0.812575,0.932238 2.09941,2.243622 2.772427,2.825316 2.046668,1.768953 3.172795,2.278263 6.951234,3.143817 3.110574,0.712561 3.81443,0.90955 4.8921,1.36916 1.853217,0.790371 3.016267,1.917244 3.948103,3.825295 0.435938,0.892637 0.69632,1.590819 1.401117,3.756916 0.818844,2.516604 0.830474,2.539878 1.769856,3.541966 1.458773,1.556148 3.014817,3.357345 4.500226,5.209239 0.61401,0.765491 0.70588,0.856173 1.15011,1.135183 0.26553,0.166778 1.02214,0.660168 1.68135,1.096421 2.32334,1.537557 3.17426,2.365556 3.71698,3.616866 0.8497,1.959092 1.04885,3.724619 0.58296,5.168362 l -0.10803,0.334781 0.32486,0.962571 c 0.96324,2.85414 1.2364,4.991248 0.82462,6.451503 l -0.0984,0.349154 -19.495913,0.01359 -19.495905,0.01359 z"
     id="path1351"
     inkscape:connector-curvature="0" />
  <path
     style="fill:#ff7f2a;fill-opacity:1;stroke:#ff7f2a;stroke-width:0.05405635;stroke-linecap:round;stroke-linejoin:miter;stroke-opacity:1;paint-order:markers fill stroke"
     d="M 69.966967,84.006588 V 81.00623 l 0.581106,-0.0068 c 1.257543,-0.01469 1.52869,-0.05008 2.010673,-0.26243 0.342085,-0.150712 0.735672,-0.479238 1.001287,-0.835773 0.347794,-0.466841 0.499126,-1.425258 0.326023,-2.064755 -0.137929,-0.509549 -0.524691,-1.067745 -0.936516,-1.351631 -0.559214,-0.385486 -0.896997,-0.458213 -2.117671,-0.455953 -0.543443,0.001 -0.80938,-0.01629 -0.756789,-0.04923 0.07157,-0.04482 0.08314,-1.398692 0.09864,-11.539731 l 0.01756,-11.488952 h 11.342318 11.342318 l 0.244264,0.472993 c 0.408301,0.790635 0.723636,1.621539 1.451423,3.824486 0.383066,1.159509 0.778091,2.278475 0.877833,2.486592 0.133004,0.277521 0.329727,0.53691 0.737943,0.973014 1.609818,1.719797 3.078507,3.411098 4.506371,5.189409 0.38195,0.475696 0.75809,0.927125 0.83586,1.003177 0.0778,0.07605 0.5671,0.408452 1.08739,0.73867 2.54002,1.612089 3.78018,2.613157 4.40269,3.55388 0.11733,0.177304 0.32696,0.590796 0.46584,0.918872 0.79162,1.869923 0.98323,3.547855 0.56478,4.945885 l -0.13058,0.436264 0.35113,1.061323 c 0.67962,2.054174 0.95412,3.431699 0.9569,4.802129 0.002,1.068515 -0.10764,1.587577 -0.49005,2.316489 -0.30108,0.573886 -0.64088,0.937058 -1.07721,1.151312 l -0.31357,0.153974 -18.689977,0.01375 -18.689982,0.01374 z"
     id="path1353"
     inkscape:connector-curvature="0" />
</svg>
