<svg id="offer" xmlns="http://www.w3.org/2000/svg" width="285" height="95" viewBox="0 0 285 95"><style><![CDATA[
	.st0{fill:#B8B8B8;}
	.st1{fill:#FC6454;}
	.st2{fill:#2E302F;}
	.st3{fill:#00C492;}
]]></style><circle class="st3" cx="25.6" cy="43" r="3.9"/><circle class="st3" cx="70.4" cy="43" r="3.9"/><path class="st3" d="M48.1 67.2c3.5 0 6.8-1.5 9.2-4.4 3.5-4.1 2.9-7.2 2.2-8.7-.7-1.5-2.7-4.1-8.3-4.1h-6.3c-5.6 0-7.7 2.6-8.3 4.1-.7 1.5-1.3 4.6 2.2 8.7 2.4 2.8 5.7 4.4 9.3 4.4zm-7-10.5c.2-.5 1.5-.7 3.7-.7h6.3c2.2 0 3.5.1 3.7.7.2.5-.1 1.5-1.5 3-1.5 1.7-3.4 2.5-5.4 2.5-2.1 0-4-.8-5.5-2.5-1.1-1.5-1.5-2.5-1.3-3z"/><path class="st3" d="M59 71.8c1.1-.9 1.3-2.5.4-3.6s-2.5-1.3-3.6-.4c-4.9 3.9-10.3 3.8-15.2-.1-1.1-.9-2.7-.7-3.6.4-.9 1.1-.7 2.7.4 3.6 3.4 2.7 7 4.1 10.8 4.1 3.9-.1 7.5-1.4 10.8-4z"/><path class="st3" d="M95.6 18.3c0-5.1-4.1-9.3-9.2-9.3-2.8 0-5.4 1.3-7.1 3.3C70.9 5 60 .5 48 .5S25.1 5 16.7 12.4c-1.6-2.1-4.2-3.4-7-3.4C4.6 9 .5 13.2.5 18.3c0 3.7 2.2 6.9 5.4 8.4-3.2 6.3-5 13.4-5 20.9C.9 72 19.6 92.2 43.4 94.5c1.6.3 3.3.5 4.9.5 2 0 4-.2 5.8-.7 23.1-3 41-22.8 41-46.7 0-7.5-1.8-14.6-4.9-20.9 3.2-1.5 5.4-4.7 5.4-8.4zm-9.3-4.2c2.3 0 4.2 1.9 4.2 4.2 0 1.8-1.2 3.4-2.8 3.9-1.4-2.2-3-4.3-4.8-6.2.7-1.2 2-1.9 3.4-1.9zM8.4 22.2c-1.7-.5-2.9-2.1-2.9-4 0-2.3 1.9-4.2 4.2-4.2 1.4 0 2.7.7 3.5 1.9-1.5 1.7-2.9 3.5-4.2 5.3-.2.4-.4.7-.6 1zm18.5 46.3c0-11.8 9.6-21.5 21.5-21.5 11.8 0 21.5 9.6 21.5 21.5 0 10.1-7.1 18.6-16.5 20.9-1.7.2-3.5.3-5.3.3-1.3 0-2.7-.1-4-.2-9.8-2-17.2-10.7-17.2-21zm43.5 14.8c2.8-4.2 4.5-9.3 4.5-14.8C74.9 53.9 63 42 48.4 42S21.9 53.9 21.9 68.5c0 5.8 1.9 11.1 5 15.5C14.4 76.6 6 62.8 6 47.3 6 40.1 7.8 34 11 27h.1l.7-1c1.2-2.1 2.7-4 4.3-5.8.1-.1.2-.2.4-.3.3-.4.7-.7 1-1.1C25.2 10.6 36 5.5 48 5.5c11.2 0 21.5 4.5 29 11.7l1 1.1c2.3 2.4 4.4 4.8 6.1 7.7l.7 1h.2c3.2 7 5.1 13.1 5.1 20.3 0 15-7.9 28.5-19.7 36z"/><g><path class="st2" d="M140.4 14.2c.1.1.5.5.5 1v3.1c0 .6-.3.6-.6.2-2.6-3.5-6.7-5.8-11.5-5.8-8.3 0-15.1 6.9-15.1 15.2s6.8 15.3 15.1 15.3c4.8 0 8.9-2.3 11.5-5.8.3-.4.6-.3.6.2v3.1c0 .5-.3.9-.5 1.1-3.1 2.7-7.1 4.4-11.6 4.4-10 0-18.1-8.2-18.1-18.1 0-10 8.1-18.1 18.1-18.1 4.5-.1 8.7 1.7 11.6 4.2zM153.5 25.5c-3.5 2.4-5.8 3.4-5.8 8.5v10c0 .8-.7 1.4-1.5 1.4h-.1c-.8 0-1.5-.6-1.5-1.4V24c0-.8.7-1.5 1.5-1.5h.1c.8 0 1.5.7 1.5 1.5v1.5c0 .4.3.3.4.1.7-.9 2.2-2.4 3.1-2.9.7-.4 2.1-.2 2.5.6 0 0 0 .1.1.1.4.6.4 1.6-.3 2.1zM175 24v12.5c0 7.4-5.2 9.6-9.6 9.6-4.4 0-9.6-2.2-9.6-9.6V24c0-.8.7-1.5 1.5-1.5h.1c.8 0 1.5.7 1.5 1.5v12.3c0 4.8 3.2 6.9 6.5 6.9 3.4 0 6.5-2.2 6.5-6.9V24c0-.8.7-1.5 1.5-1.5h.1c.8 0 1.5.7 1.5 1.5zM210.4 30.8v13.3c0 .8-.7 1.4-1.5 1.4h-.1c-.8 0-1.5-.6-1.5-1.4V31c0-4.9-3.9-6.1-5.6-6.1-3.6 0-5.1 2.4-5.1 6v13.2c0 .8-.7 1.4-1.5 1.4h-.1c-.8 0-1.5-.6-1.5-1.4V30.9c0-4.8-3.9-6-5.5-6-3.6 0-5.1 2.4-5.1 6v13.2c0 .8-.7 1.4-1.5 1.4h-.1c-.8 0-1.5-.6-1.5-1.4V24c0-.8.7-1.5 1.5-1.5h.1c.7 0 1.5.5 1.5 1.2v.7c0 .2.2.3.3.1 1.6-1.9 2.9-2.6 4.8-2.6 1.7 0 4.8.4 6.5 3 .5.8.6.9 1.1 0 1.2-1.8 3.1-3 6.1-3 2.7 0 8.7 1.3 8.7 8.9zM216.6 10.5h.2c.8 0 1.5.7 1.5 1.4v13.8c0 .4.4.4.5.1 2.3-2.8 5-3.9 8.3-3.9 3.3 0 6.2 1.1 8.5 3.5 2.4 2.4 3.6 5.2 3.6 8.5s-1.2 6.2-3.6 8.6c-2.4 2.4-5.2 3.6-8.5 3.6-3.2 0-6.2-1.5-8.4-4.1-.2-.3-.3 0-.3.2V44c0 .8-.7 1.4-1.5 1.4h-.2c-.8 0-1.4-.6-1.4-1.4V11.9c-.1-.8.6-1.4 1.3-1.4zm10.5 32.8c5 0 9-4.3 9-9.3s-4-9.2-9-9.2-9 4.2-9 9.2 4 9.3 9 9.3zM249 43v.2c0 1.6-1.3 2.9-2.8 2.9h-.3c-1.5 0-2.8-1.3-2.8-2.9V43c0-1.6 1.3-2.8 2.8-2.8h.3c1.5 0 2.8 1.2 2.8 2.8zM262.7 25.5c-3.5 2.4-5.8 3.4-5.8 8.5v10c0 .8-.7 1.4-1.5 1.4h-.1c-.8 0-1.5-.6-1.5-1.4V24c0-.8.7-1.5 1.5-1.5h.1c.8 0 1.5.7 1.5 1.5v1.5c0 .4.3.3.4.1.7-.9 2.2-2.4 3.1-2.9.7-.4 2.1-.2 2.5.6 0 0 0 .1.1.1.4.6.4 1.6-.3 2.1zM284.2 24v12.5c0 7.4-5.2 9.6-9.6 9.6S265 44 265 36.5V24c0-.8.7-1.5 1.5-1.5h.1c.8 0 1.5.7 1.5 1.5v12.3c0 4.8 3.2 6.9 6.5 6.9 3.4 0 6.5-2.2 6.5-6.9V24c0-.8.7-1.5 1.5-1.5h.1c.8 0 1.5.7 1.5 1.5z"/></g><g><path class="st0" d="M116.4 63.2c-1.4 0-2.5.5-3.3 1.4-.8.9-1.2 2.1-1.2 3.7s.4 2.9 1.2 3.8 1.9 1.3 3.3 1.3c.9 0 1.8-.1 2.6-.4v.7c-.7.3-1.7.4-2.8.4-1.6 0-2.8-.5-3.7-1.5-.9-1-1.4-2.5-1.4-4.3 0-1.1.2-2.2.7-3 .4-.9 1.1-1.6 1.9-2s1.8-.7 2.8-.7c1.1 0 2.1.2 3 .6l-.3.7c-1-.4-1.9-.7-2.8-.7zM122.3 74h-.8v-8.4h6.7V74h-.8v-7.7h-5.2V74zM138.3 69.8c0 1.4-.3 2.4-1 3.2-.7.8-1.6 1.2-2.8 1.2-.7 0-1.4-.2-1.9-.5-.6-.4-1-.9-1.3-1.5-.3-.7-.4-1.4-.4-2.3 0-1.4.3-2.4 1-3.2.7-.8 1.6-1.1 2.7-1.1 1.2 0 2.1.4 2.7 1.2.7.6 1 1.6 1 3zm-6.6 0c0 1.2.3 2.1.8 2.7.5.6 1.2 1 2.2 1s1.6-.3 2.2-1c.5-.6.8-1.5.8-2.7 0-1.2-.3-2.1-.8-2.7-.5-.6-1.2-1-2.2-1s-1.6.3-2.1 1c-.6.6-.9 1.5-.9 2.7zM144.6 74.2c-1.3 0-2.2-.5-2.8-1.5h-.1v5.1h-.7V65.6h.6l.1 1.2c.6-.9 1.5-1.4 2.8-1.4 1.1 0 2 .4 2.6 1.1.6.7.9 1.8.9 3.3 0 1.4-.3 2.5-.9 3.2-.6.8-1.4 1.2-2.5 1.2zm0-.7c.9 0 1.5-.3 2-1 .5-.6.7-1.5.7-2.7 0-2.5-.9-3.7-2.7-3.7-1 0-1.7.3-2.2.8-.5.5-.7 1.4-.7 2.6v.2c0 1.3.2 2.3.7 2.8.5.7 1.2 1 2.2 1zM156.1 66.3h-2.8V74h-.8v-7.7h-2.9v-.7h6.4v.7zM158.8 65.6V73.3l5-7.7h1V74h-.7v-7.6l-5 7.7h-1v-8.4h.7zM174.4 67.6c0 .5-.1.9-.4 1.2-.3.3-.7.5-1.3.6v.1c.7.1 1.2.3 1.5.6.3.3.5.8.5 1.3 0 .8-.3 1.4-.8 1.9-.5.4-1.3.7-2.3.7h-3.5v-8.4h3.6c1 0 1.7.2 2.2.5s.5.9.5 1.5zm-.8.1c0-.5-.2-.8-.5-1-.4-.2-.9-.3-1.6-.3h-2.8v2.9h2.7c.8 0 1.3-.1 1.7-.4.3-.3.5-.7.5-1.2zm.2 3.8c0-1-.8-1.5-2.4-1.5h-2.7v3.4h2.8c1.5-.1 2.3-.7 2.3-1.9zM178 65.6v3.7h5.3v-3.7h.8V74h-.8v-4.1H178V74h-.8v-8.4h.8zM188 69.1h2.7c2 0 3 .8 3 2.3 0 .8-.3 1.4-.8 1.9-.6.4-1.3.7-2.4.7h-3.2v-8.4h.8v3.5zm0 .8v3.4h2.6c.7 0 1.3-.2 1.7-.5.4-.3.6-.8.6-1.4 0-.6-.2-1-.5-1.2s-.9-.4-1.8-.4H188zm7.8 4.1h-.8v-8.4h.8V74zM202.3 74.2c-1.2 0-2.2-.4-2.9-1.1s-1-1.8-1-3.2c0-1.3.3-2.4 1-3.2.7-.8 1.5-1.2 2.7-1.2 1 0 1.8.3 2.3 1 .6.7.9 1.6.9 2.8v.6h-6.1c0 1.2.3 2 .8 2.6.5.6 1.3.9 2.3.9.5 0 .9 0 1.3-.1s.8-.2 1.4-.4v.7c-.5.2-.9.3-1.3.4s-.9.2-1.4.2zm-.2-8.1c-.8 0-1.5.3-1.9.8-.5.5-.8 1.3-.9 2.3h5.2c0-1-.2-1.7-.6-2.3-.4-.5-1-.8-1.8-.8zM213.2 74h-.8v-8.4h6.7V74h-.8v-7.7h-5.2V74zM229.2 69.8c0 1.4-.3 2.4-1 3.2-.7.8-1.6 1.2-2.8 1.2-.7 0-1.4-.2-1.9-.5-.6-.4-1-.9-1.3-1.5-.3-.7-.4-1.4-.4-2.3 0-1.4.3-2.4 1-3.2.7-.8 1.6-1.1 2.7-1.1 1.2 0 2.1.4 2.7 1.2.6.6 1 1.6 1 3zm-6.7 0c0 1.2.3 2.1.8 2.7.5.6 1.2 1 2.2 1s1.6-.3 2.2-1c.5-.6.8-1.5.8-2.7 0-1.2-.3-2.1-.8-2.7s-1.2-1-2.2-1-1.6.3-2.1 1c-.6.6-.9 1.5-.9 2.7zM236.4 65.6h1l-3.8 4.1 4 4.3h-1l-4-4.3V74h-.8v-8.4h.8v4.1l3.8-4.1zM243 74.2c-1.3 0-2.2-.5-2.8-1.5h-.1v5.1h-.8V65.6h.6l.1 1.2c.6-.9 1.5-1.4 2.8-1.4 1.1 0 2 .4 2.6 1.1.6.7.9 1.8.9 3.3 0 1.4-.3 2.5-.9 3.2-.5.8-1.3 1.2-2.4 1.2zm0-.7c.9 0 1.5-.3 2-1s.7-1.5.7-2.7c0-2.5-.9-3.7-2.7-3.7-1 0-1.7.3-2.2.8s-.7 1.4-.7 2.6v.2c0 1.3.2 2.3.7 2.8.5.7 1.2 1 2.2 1zM249.9 69.1h2.7c2 0 3 .8 3 2.3 0 .8-.3 1.4-.8 1.9-.6.4-1.3.7-2.4.7h-3.2v-8.4h.8v3.5zm0 .8v3.4h2.6c.7 0 1.3-.2 1.7-.5.4-.3.6-.8.6-1.4 0-.6-.2-1-.5-1.2s-.9-.4-1.8-.4h-2.6zm7.9 4.1h-.8v-8.4h.8V74zM266.2 66.3h-2.8V74h-.8v-7.7h-2.9v-.7h6.4v.7zM269 65.6V73.3l5-7.7h1V74h-.7v-7.6l-5 7.7h-1v-8.4h.7zM278 74h-1l2.5-3.6c-.8-.1-1.3-.4-1.7-.8-.3-.4-.5-.9-.5-1.5 0-.8.3-1.4.8-1.8.5-.4 1.2-.7 2.1-.7h3.5V74h-.8v-3.5h-2.6L278 74zm.2-6c0 .6.2 1 .6 1.3s.9.4 1.7.4h2.5v-3.4h-2.7c-.6 0-1.1.1-1.5.4-.5.4-.6.8-.6 1.3z"/></g></svg>