<?xml version="1.0" encoding="UTF-8" standalone="no"?>
<svg
   xmlns:dc="http://purl.org/dc/elements/1.1/"
   xmlns:cc="http://creativecommons.org/ns#"
   xmlns:rdf="http://www.w3.org/1999/02/22-rdf-syntax-ns#"
   xmlns:svg="http://www.w3.org/2000/svg"
   xmlns="http://www.w3.org/2000/svg"
   xmlns:sodipodi="http://sodipodi.sourceforge.net/DTD/sodipodi-0.dtd"
   xmlns:inkscape="http://www.inkscape.org/namespaces/inkscape"
   id="offer"
   width="160"
   height="160"
   viewBox="0 0 160 160"
   version="1.1"
   sodipodi:docname="crumb_icons-20.svg"
   inkscape:version="0.92.1 r15371">
  <metadata
     id="metadata1059">
    <rdf:RDF>
      <cc:Work
         rdf:about="">
        <dc:format>image/svg+xml</dc:format>
        <dc:type
           rdf:resource="http://purl.org/dc/dcmitype/StillImage" />
      </cc:Work>
    </rdf:RDF>
  </metadata>
  <defs
     id="defs1057" />
  <sodipodi:namedview
     pagecolor="#ffffff"
     bordercolor="#666666"
     borderopacity="1"
     objecttolerance="10"
     gridtolerance="10"
     guidetolerance="10"
     inkscape:pageopacity="0"
     inkscape:pageshadow="2"
     inkscape:window-width="1440"
     inkscape:window-height="855"
     id="namedview1055"
     showgrid="false"
     inkscape:zoom="7.2296435"
     inkscape:cx="115.19162"
     inkscape:cy="25.877881"
     inkscape:window-x="0"
     inkscape:window-y="0"
     inkscape:window-maximized="1"
     inkscape:current-layer="offer" />
  <style
     id="style1048"><![CDATA[
	.st0{fill:#B8B8B8;}
	.st1{fill:#FC6454;}
	.st2{fill:#2E302F;}
	.st3{fill:#00C492;}
]]></style>
  <path
     class="st3"
     d="M160 80v.2l-59.6 20.5-8.6-24.9 63.8-22c2.8 8.2 4.4 17 4.4 26.2zm-42.2 70.5c21.1-11.3 36.5-31.9 40.9-56.3l-53.9 18.6 13 37.7z"
     id="path1050" />
  <path
     class="st2"
     d="M45.1 58.9l36.8 101h-2.2L45 64.4l.1-.3-.7-2.1c0 .1-.1.2-.1.2-.6 1.1-1.4 2.1-2.4 3.1-4 3.6-9.9 5.7-15.1 5.7-1.4 0-2.8-.2-4.1-.5-.5-.1-.9-.3-1.3-.4-.5-.2-.9-.4-1.4-.6-.1-.1-.2-.1-.3-.2l.8 2.1.3.3 30.1 82.8c-.4-.2-.8-.3-1.2-.5-.4-.2-.8-.3-1.3-.5L16.9 66.9c-.7-1-1.2-2-1.4-3.2-.6-3.5 1.2-7.5 4.9-10.9 6.7-6.1 67.8-28.1 96.7-38 2.3-.8 4.3-1.5 6.2-2.1.7.5 1.4.9 2.1 1.4C102 21.8 28.6 48 21.7 54.2c-3.2 2.9-4.8 6.3-4.3 9.1.1.7.4 1.4.8 2.1.3.5.7.9 1.2 1.4.7.6 1.6 1.1 2.6 1.5 5.2 2.1 13.4.1 18.4-4.4 1.9-1.7 2.8-3.6 2.7-5.2l-.5-1.4-.1-.1c-.5-.7-1.2-1.2-2.2-1.6-3.1-1.3-8.4 0-11.4 2.8-1.2 1-1.8 2.2-1.6 3.2.2.9.9 1.3 1.5 1.6 1.9.8 5.1 0 6.9-1.7L37 63c-2.4 2.2-6.4 3.1-9 2.1-1.5-.6-2.5-1.7-2.8-3.1-.3-1.6.5-3.5 2.2-5 .2-.2.4-.4.7-.6 2.8-2.2 6.6-3.4 9.9-3.2 1.1.1 2.1.3 3 .6.1 0 .2.1.2.1 2.1.9 3.4 2.4 3.7 4.3.2.1.2.4.2.7zm18.8 2.9l7.2 1.6h.3c.2-.1.3-.2.3-.4.1-.3-.1-.5-.4-.6l-5.6-1.3 79-28.2c-.4-.6-.8-1.1-1.3-1.7L65 59.3l3.6-4.6c.2-.2.1-.5-.1-.7-.2-.2-.5-.1-.7.1l-4.5 5.8s-.1 0-.1.1L59 48.6c-.2-.5-.8-.8-1.3-.6-.5.2-.8.8-.6 1.3l39 109.1c.7-.1 1.3-.3 2-.5L63.7 61.8h.2zm36.5 38.9l-8.6-24.9 63.8-22-.3-.9-.3-.9-65.7 22.6 9.9 28.7L160 82.4v-1.1-1.1l-59.6 20.5zm15.6 50.7c.3-.2.6-.3.9-.5.3-.2.6-.3.9-.5l-13-37.7 53.9-18.6c.1-.4.1-.8.2-1.1.1-.4.1-.7.2-1.1l-56.8 19.6 13.7 39.9z"
     id="path1052" />
  <path
     style="fill:#ff7f2a;fill-opacity:1;stroke:#ff7f2a;stroke-width:0.1287532;stroke-linecap:round;stroke-linejoin:miter;stroke-opacity:1;paint-order:markers fill stroke"
     d="m 100.36,100.45859 c -0.0311,-0.0885 -0.29452,-0.85621 -0.585322,-1.705981 -0.290806,-0.849771 -0.749522,-2.182367 -1.019368,-2.961324 -0.269847,-0.778956 -0.780384,-2.2564 -1.134528,-3.283206 -0.354144,-1.026807 -0.944098,-2.736006 -1.311009,-3.79822 -0.366911,-1.062214 -0.916182,-2.655535 -1.220603,-3.540713 -0.30442,-0.885178 -0.855155,-2.478499 -1.223856,-3.540713 -1.240025,-3.572476 -1.958463,-5.752339 -1.911371,-5.799431 0.04494,-0.04494 0.556824,-0.22457 4.543744,-1.594525 0.9914,-0.340656 2.671629,-0.920008 3.733843,-1.287448 4.31892,-1.493993 5.62862,-1.945809 7.59644,-2.620591 1.13303,-0.388526 3.50852,-1.210561 5.27888,-1.826746 3.94552,-1.373267 10.06242,-3.486617 12.48906,-4.314891 0.9914,-0.33839 2.64266,-0.905505 3.66947,-1.260257 1.0268,-0.354751 4.59005,-1.583588 7.91832,-2.730749 3.32827,-1.147161 6.77564,-2.336708 7.66082,-2.643437 8.71834,-3.021051 10.62064,-3.656145 10.70002,-3.572253 0.18097,0.191279 1.29075,3.876997 1.9131,6.353659 1.52985,6.08814 2.33294,11.931784 2.36881,17.236463 l 0.0178,2.634963 -6.3089,2.172122 c -3.4699,1.194666 -7.20696,2.480769 -8.30458,2.858005 -1.09763,0.377236 -5.64583,1.941564 -10.10713,3.476286 -4.4613,1.534721 -9.00951,3.098514 -10.10713,3.475095 -1.09762,0.37658 -2.86476,0.985909 -3.92697,1.354062 -1.06221,0.368153 -2.91626,1.006574 -4.1201,1.418715 -1.20385,0.412139 -3.02892,1.038209 -4.05573,1.391264 -1.02681,0.353056 -3.63406,1.249551 -5.79389,1.992213 -2.15984,0.742662 -4.5299,1.559159 -5.26681,1.814438 -1.54484,0.53516 -1.42036,0.50988 -1.49302,0.3032 z"
     id="path1061"
     inkscape:connector-curvature="0" />
  <path
     style="fill:#ff7f2a;fill-opacity:1;stroke:#ff7f2a;stroke-width:0.1287532;stroke-linecap:round;stroke-linejoin:miter;stroke-opacity:1;paint-order:markers fill stroke"
     d="m 110.37181,128.59116 c -2.91927,-8.48 -5.32321,-15.50132 -5.34209,-15.60293 -0.025,-0.13458 0.99671,-0.54104 3.7639,-1.49734 2.08902,-0.72193 3.86447,-1.37404 3.94544,-1.44913 0.081,-0.0751 0.17188,-0.11186 0.20202,-0.0817 0.0965,0.0964 3.57773,-1.11784 3.57773,-1.24792 0,-0.0688 0.0528,-0.0924 0.11742,-0.0525 0.14991,0.0927 14.35267,-4.79366 14.4105,-4.95779 0.0238,-0.0674 0.088,-0.0948 0.14286,-0.061 0.15016,0.0928 3.61218,-1.09339 3.61218,-1.23764 0,-0.0688 0.0526,-0.0926 0.11696,-0.0528 0.1499,0.0927 10.61953,-3.50562 10.67711,-3.669575 0.0238,-0.06763 0.088,-0.09524 0.14286,-0.06136 0.15016,0.09281 3.61218,-1.093388 3.61218,-1.237642 0,-0.0688 0.0498,-0.09431 0.11067,-0.05669 0.15757,0.09739 3.62317,-1.079928 3.62317,-1.230845 0,-0.0688 0.0531,-0.09226 0.11803,-0.05214 0.0649,0.04012 1.29183,-0.332521 2.72648,-0.828092 1.43465,-0.495571 2.62875,-0.880744 2.65355,-0.855941 0.15199,0.15199 -1.36644,6.418005 -2.22913,9.198805 -4.86881,15.69421 -14.39094,29.46874 -27.36428,39.58465 l -1.11291,0.86778 h -6.09844 -6.09845 z"
     id="path1063"
     inkscape:connector-curvature="0" />
  <path
     style="fill:#ff7f2a;fill-opacity:1;stroke:#ff7f2a;stroke-width:0.02276057;stroke-linecap:round;stroke-linejoin:miter;stroke-opacity:1;paint-order:markers fill stroke"
     d="m 117.80159,150.43124 c 0.006,-0.0219 -0.47776,-1.45839 -1.07606,-3.19217 l -1.08782,-3.15234 3.04455,-0.006 c 1.6745,-0.003 4.42364,-0.003 6.1092,0 l 3.06466,0.006 -0.54209,0.39756 c -2.88063,2.11262 -5.7935,3.96886 -8.89023,5.66532 -0.32273,0.1768 -0.5974,0.32146 -0.61037,0.32146 -0.013,0 -0.0183,-0.0179 -0.0118,-0.0398 z"
     id="path1065"
     inkscape:connector-curvature="0" />
  <path
     style="fill:#ff7f2a;fill-opacity:1;stroke:#ff7f2a;stroke-width:0.02445165;stroke-linecap:round;stroke-linejoin:miter;stroke-opacity:1;paint-order:markers fill stroke"
     d="m 97.893916,93.469429 c -0.02694,-0.08405 -0.121922,-0.361884 -0.211062,-0.617404 -0.08914,-0.255519 -0.209251,-0.602122 -0.266913,-0.770227 -0.05766,-0.168105 -0.160086,-0.465192 -0.227609,-0.660194 -0.06752,-0.195002 -0.179649,-0.519598 -0.249171,-0.721324 -0.06952,-0.201726 -0.173998,-0.504315 -0.232169,-0.67242 -0.125288,-0.362061 -0.302193,-0.8745 -0.476929,-1.381518 -0.06952,-0.201726 -0.175928,-0.509817 -0.236459,-0.684646 -0.230152,-0.664738 -0.358007,-1.037089 -0.457584,-1.332615 -0.05664,-0.168105 -0.109395,-0.316649 -0.117227,-0.330097 -0.0078,-0.01345 -0.06053,-0.167494 -0.117119,-0.342323 -0.05658,-0.17483 -0.113144,-0.339878 -0.125688,-0.366775 -0.01254,-0.0269 -0.120585,-0.334988 -0.240092,-0.684646 -0.119506,-0.349659 -0.224073,-0.652248 -0.23237,-0.672421 -0.0083,-0.02017 -0.06527,-0.185221 -0.126606,-0.366774 -0.177381,-0.525048 -0.319826,-0.93833 -0.337109,-0.978066 -0.0088,-0.02017 -0.06426,-0.17972 -0.123302,-0.354549 -0.05904,-0.174829 -0.158734,-0.466415 -0.221538,-0.647969 -0.0628,-0.181553 -0.166086,-0.484142 -0.229515,-0.67242 -0.06343,-0.188278 -0.121704,-0.353326 -0.129501,-0.366775 -0.01113,-0.0192 -0.216854,-0.62132 -0.22974,-0.67242 -0.0017,-0.0067 -0.0102,-0.02873 -0.01891,-0.0489 -0.01821,-0.04222 -0.238789,-0.684538 -0.247706,-0.721324 -0.0033,-0.01345 -0.01687,-0.05196 -0.03023,-0.08558 -0.138107,-0.347336 -1.206084,-3.505516 -1.190228,-3.519695 0.03122,-0.02792 0.595729,-0.222768 0.595729,-0.205626 0,0.0081 0.01375,0.0038 0.03056,-0.0095 0.02507,-0.01984 0.342639,-0.135387 0.385113,-0.140119 0.0067,-7.49e-4 0.02323,-0.008 0.03668,-0.01604 0.01345,-0.0081 0.150989,-0.05547 0.305646,-0.105324 0.154657,-0.04986 0.3032,-0.100999 0.330097,-0.113648 0.0269,-0.01265 0.197447,-0.07314 0.379001,-0.134432 0.181553,-0.06129 0.489644,-0.16645 0.684646,-0.233692 0.195002,-0.06724 0.508594,-0.174137 0.696872,-0.237546 0.188278,-0.06341 0.353326,-0.121669 0.366775,-0.129466 0.01345,-0.0078 0.167493,-0.06054 0.342323,-0.117206 0.174829,-0.05667 0.334376,-0.109463 0.354549,-0.117325 0.02017,-0.0079 0.04218,-0.01541 0.0489,-0.01678 0.0067,-0.0014 0.02323,-0.0091 0.03668,-0.01716 0.02307,-0.01384 0.646289,-0.225622 0.672421,-0.228499 0.0067,-7.41e-4 0.02323,-0.0079 0.03668,-0.01602 0.02307,-0.01384 0.646289,-0.225623 0.67242,-0.228499 0.0067,-7.41e-4 0.02323,-0.0079 0.03668,-0.01602 0.02307,-0.01384 0.646289,-0.225622 0.67242,-0.228499 0.0067,-7.41e-4 0.02323,-0.0079 0.03668,-0.01602 0.01902,-0.01141 0.618099,-0.216538 0.67242,-0.230237 0.0067,-0.0017 0.02873,-0.01033 0.0489,-0.01919 0.02017,-0.0089 0.325267,-0.114391 0.677986,-0.234511 0.352713,-0.120119 0.649803,-0.22322 0.660193,-0.229113 0.0104,-0.0059 0.16193,-0.05701 0.33676,-0.113595 0.17483,-0.05658 0.33988,-0.113301 0.36677,-0.126038 0.0269,-0.01274 0.19195,-0.07129 0.36678,-0.130123 0.29454,-0.09912 0.45208,-0.153142 1.39374,-0.477963 0.80129,-0.276401 1.70794,-0.58895 2.13952,-0.737554 0.66143,-0.227748 1.03825,-0.357726 1.40597,-0.484974 0.20173,-0.06981 0.52082,-0.179792 0.7091,-0.244412 0.18827,-0.06462 0.50187,-0.172737 0.69687,-0.240257 0.195,-0.06752 0.5196,-0.179597 0.72132,-0.249059 0.20173,-0.06946 0.52082,-0.179439 0.7091,-0.244393 0.18828,-0.06496 0.50737,-0.174973 0.7091,-0.244486 0.20172,-0.06951 0.50431,-0.173981 0.67242,-0.232151 0.58516,-0.20249 1.54613,-0.533969 1.77274,-0.611498 0.11892,-0.04068 0.51833,-0.179275 0.99029,-0.343621 0.12776,-0.04449 0.83817,-0.290916 1.57869,-0.547616 l 1.34639,-0.466729 h 1.65505 1.65505 V 80.442814 93.622252 H 108.88404 97.942905 Z"
     id="path603"
     inkscape:connector-curvature="0" />
  <path
     style="fill:#ff7f2a;fill-opacity:1;stroke:#ff7f2a;stroke-width:0.02445165;stroke-linecap:round;stroke-linejoin:miter;stroke-opacity:1;paint-order:markers fill stroke"
     d="m 100.38771,100.69831 c 0,-0.005 -0.0784,-0.23289 -0.17413,-0.50737 -0.0958,-0.274487 -0.19923,-0.576087 -0.22992,-0.670226 -0.03069,-0.09414 -0.146169,-0.429737 -0.256624,-0.745775 -0.110456,-0.316038 -0.231719,-0.668141 -0.269475,-0.782453 -0.03776,-0.114311 -0.152977,-0.44991 -0.256046,-0.745775 -0.103069,-0.295865 -0.236609,-0.680978 -0.296754,-0.855808 -0.06015,-0.174829 -0.157054,-0.455412 -0.21535,-0.623517 -0.124908,-0.360186 -0.302843,-0.875534 -0.472777,-1.369292 -0.06711,-0.195002 -0.217881,-0.62963 -0.335041,-0.96584 -0.117159,-0.33621 -0.31725,-0.91388 -0.444646,-1.283712 -0.127396,-0.369831 -0.284875,-0.826465 -0.349954,-1.014743 -0.292845,-0.847216 -0.856109,-2.47994 -1.067084,-3.093133 -0.127244,-0.369832 -0.274131,-0.793456 -0.326416,-0.941389 -0.05228,-0.147932 -0.157102,-0.450521 -0.232928,-0.67242 -0.07583,-0.221899 -0.176173,-0.513485 -0.222994,-0.647969 -0.125209,-0.359635 -0.336012,-0.969793 -0.49842,-1.442647 -0.07852,-0.228623 -0.209521,-0.608235 -0.291105,-0.843582 -0.08158,-0.235347 -0.148438,-0.436156 -0.148565,-0.446242 -1.26e-4,-0.01009 7.102359,-0.01834 15.783309,-0.01834 h 15.78354 v 4.462426 c 0,2.454334 -0.003,4.462425 -0.007,4.462425 -0.004,0 -0.24883,0.08369 -0.54405,0.185977 -0.29523,0.102287 -0.5973,0.206026 -0.67126,0.23053 -0.074,0.02451 -0.39306,0.134252 -0.7091,0.243882 -0.31604,0.10963 -0.63513,0.219531 -0.7091,0.244224 -0.1192,0.03979 -0.41154,0.140639 -1.78497,0.615746 -0.195,0.06746 -0.39856,0.137151 -0.45235,0.154875 -0.0538,0.01772 -0.3894,0.133031 -0.74578,0.256236 -1.0492,0.362719 -1.61022,0.555808 -2.59187,0.892063 -0.2488,0.08522 -0.77696,0.267233 -1.17368,0.404469 -0.39673,0.137236 -0.76534,0.263953 -0.81913,0.281591 -0.0538,0.01764 -0.4059,0.138372 -0.78246,0.268295 -0.37655,0.129924 -0.76167,0.261775 -0.8558,0.293003 -0.0941,0.03123 -0.46275,0.157822 -0.81913,0.281321 -0.35639,0.123498 -0.70849,0.244694 -0.78246,0.269324 -0.074,0.02463 -0.42607,0.145612 -0.78245,0.26885 -0.35638,0.123238 -0.82402,0.284432 -1.03919,0.358209 -0.61847,0.212052 -1.11952,0.384562 -1.51601,0.521949 -0.20172,0.0699 -0.44379,0.152855 -0.53793,0.184341 -0.0941,0.03149 -0.44625,0.152359 -0.78246,0.268606 -0.33621,0.116246 -0.78184,0.269863 -0.99029,0.34137 -0.20845,0.07151 -0.54405,0.186849 -0.74577,0.256315 -0.20173,0.06947 -0.4273,0.146664 -0.50126,0.171548 -0.074,0.02489 -0.42607,0.146078 -0.78245,0.269318 -1.3884,0.480118 -1.91378,0.661247 -2.1273,0.7334 -0.074,0.025 -0.29403,0.10048 -0.48903,0.16774 -0.70589,0.24349 -1.7219,0.59051 -1.7289,0.59051 -0.004,0 -0.007,-0.004 -0.007,-0.008 z"
     id="path605"
     inkscape:connector-curvature="0" />
  <path
     style="fill:#ff7f2a;fill-opacity:1;stroke:#ff7f2a;stroke-width:0.01222582;stroke-linecap:round;stroke-linejoin:miter;stroke-opacity:1;paint-order:markers fill stroke"
     d="m 135.64307,61.913282 0.003,-1.249552 2.56131,-0.88343 c 1.40872,-0.485887 2.62458,-0.905217 2.70191,-0.931845 0.0773,-0.02663 0.28639,-0.09878 0.46458,-0.160339 0.17819,-0.06156 0.41751,-0.143896 0.53182,-0.182972 0.11431,-0.03908 0.50493,-0.173866 0.86804,-0.299533 0.3631,-0.125666 0.97653,-0.337664 1.36317,-0.471107 0.38665,-0.133443 0.82953,-0.286549 0.98418,-0.340236 1.30944,-0.454554 4.6621,-1.612003 5.48329,-1.893011 1.52513,-0.5219 3.44833,-1.173944 3.49047,-1.183414 0.007,-0.0015 0.026,-0.0084 0.0428,-0.01523 0.0168,-0.0069 0.34691,-0.121216 0.73355,-0.254113 0.38664,-0.132897 0.7083,-0.248916 0.7148,-0.257819 0.0142,-0.01951 0.091,0.199878 0.37872,1.083045 0.86782,2.66337 1.59677,5.335779 2.16597,7.940672 0.0367,0.168105 0.0697,0.315274 0.0733,0.327041 0.006,0.02037 -0.53656,0.02139 -11.27881,0.02139 h -11.28532 z"
     id="path607"
     inkscape:connector-curvature="0" />
  <path
     style="fill:#ff7f2a;fill-opacity:1;stroke:#ff7f2a;stroke-width:0.02445165;stroke-linecap:round;stroke-linejoin:miter;stroke-opacity:1;paint-order:markers fill stroke"
     d="m 118.21007,79.342246 c 0,-10.111369 0.006,-12.66888 0.0306,-12.677421 0.0168,-0.0059 0.30015,-0.103528 0.62963,-0.216984 0.32949,-0.113456 0.98432,-0.33937 1.45518,-0.502033 l 0.85612,-0.295749 18.76489,0.0061 18.7649,0.0061 0.0437,0.244517 c 0.64685,3.621636 1.04202,7.244869 1.19474,10.954338 0.0357,0.866046 0.0713,3.048765 0.072,4.40741 5.6e-4,1.084975 -0.002,1.155222 -0.0422,1.15341 -0.0256,-0.0012 -0.0305,-0.0069 -0.0122,-0.01426 0.0238,-0.0096 0.0306,-0.252424 0.0306,-1.098394 0,-0.603629 -0.009,-1.08606 -0.0214,-1.08606 -0.0205,0 -0.17007,0.05025 -0.95669,0.321342 -0.195,0.0672 -0.5251,0.180826 -0.73355,0.252493 -0.20845,0.07167 -0.54405,0.187468 -0.74578,0.257334 -0.20172,0.06987 -0.4768,0.163749 -0.61129,0.208627 -0.13448,0.04488 -0.47008,0.159967 -0.74577,0.255751 -0.48455,0.168347 -0.94141,0.325913 -1.73607,0.59876 -0.20845,0.07157 -0.55505,0.190691 -0.77023,0.26471 -0.21517,0.07402 -0.56728,0.195093 -0.78245,0.269054 -0.37184,0.127808 -0.6277,0.215953 -1.4671,0.505413 -0.20173,0.06956 -0.55383,0.190527 -0.78245,0.268808 -0.22863,0.07828 -0.58073,0.199327 -0.78245,0.268989 -0.63817,0.220379 -1.07036,0.369008 -1.24704,0.42885 -0.0941,0.03189 -0.44624,0.153131 -0.78245,0.269433 -0.58316,0.201729 -1.39796,0.481549 -1.52823,0.524827 -0.0336,0.01117 -0.33621,0.115744 -0.67242,0.232389 -0.63743,0.221151 -1.46999,0.507119 -1.63826,0.562712 -0.0538,0.01777 -0.37289,0.127695 -0.7091,0.244273 -0.33621,0.116578 -0.67181,0.232218 -0.74577,0.256977 -0.074,0.02476 -0.40957,0.140377 -0.74578,0.256929 -0.63066,0.218628 -1.46629,0.505393 -1.63826,0.56221 -0.0538,0.01777 -0.37289,0.127695 -0.7091,0.244273 -0.33621,0.116578 -0.67181,0.232218 -0.74577,0.256977 -0.074,0.02476 -0.40957,0.140377 -0.74578,0.256929 -0.58468,0.202689 -1.43113,0.493361 -1.63826,0.562583 -0.15458,0.05166 -0.8258,0.282599 -1.49155,0.513177 -0.33621,0.116445 -0.67181,0.231987 -0.74577,0.25676 -0.074,0.02477 -0.42607,0.145853 -0.78246,0.269064 -0.62118,0.21476 -0.88285,0.304898 -1.74829,0.602225 -0.9593,0.329573 -1.18424,0.406689 -1.34484,0.46105 -0.0941,0.03186 -0.46275,0.15895 -0.81913,0.282414 -0.35638,0.123466 -0.70849,0.244438 -0.78245,0.268831 -0.074,0.02439 -0.40957,0.139856 -0.74578,0.256586 -0.33621,0.116727 -0.67181,0.232271 -0.74577,0.256764 -0.21053,0.06971 -1.25144,0.431195 -1.3281,0.461222 -0.0491,0.01923 -1.1447,0.02696 -3.82057,0.02696 h -3.75173 z"
     id="path609"
     inkscape:connector-curvature="0" />
  <path
     style="fill:#ff7f2a;fill-opacity:1;stroke:#ff7f2a;stroke-width:0.04890329;stroke-linecap:round;stroke-linejoin:miter;stroke-opacity:1;paint-order:markers fill stroke"
     d="m 107.96201,121.90908 c -1.7214,-4.99275 -3.13743,-9.11033 -3.14674,-9.15018 -0.009,-0.0399 0.005,-0.0591 0.0311,-0.0428 0.0264,0.0163 0.11866,0.005 0.20503,-0.0251 0.0871,-0.0303 0.1335,-0.0693 0.10421,-0.0874 -0.0291,-0.018 0.1338,-0.0934 0.3619,-0.16772 0.22811,-0.0743 0.43395,-0.12319 0.45743,-0.10868 0.0235,0.0145 0.17987,-0.0199 0.34755,-0.0766 0.16768,-0.0566 0.28093,-0.11775 0.25168,-0.13583 -0.0293,-0.0181 0.13343,-0.0937 0.36154,-0.16794 0.2281,-0.0743 0.43407,-0.12312 0.45769,-0.10852 0.0236,0.0146 0.14696,-0.009 0.27407,-0.0522 0.12712,-0.0433 0.20739,-0.0934 0.17839,-0.11134 -0.029,-0.0179 0.16669,-0.10451 0.43487,-0.19241 0.26817,-0.0879 0.50687,-0.14791 0.53044,-0.13334 0.0236,0.0146 0.18003,-0.0199 0.34771,-0.0765 0.16768,-0.0566 0.28093,-0.11775 0.25168,-0.13583 -0.0293,-0.0181 0.13343,-0.0937 0.36154,-0.16794 0.22811,-0.0743 0.43407,-0.12312 0.45769,-0.10852 0.0236,0.0146 0.14696,-0.009 0.27407,-0.0522 0.12712,-0.0433 0.20724,-0.0935 0.17805,-0.11154 -0.0292,-0.018 0.13357,-0.0936 0.36168,-0.16786 0.2281,-0.0743 0.43386,-0.12325 0.45725,-0.10879 0.0234,0.0145 0.21283,-0.031 0.42099,-0.10098 0.20816,-0.07 0.35336,-0.14277 0.32267,-0.16174 -0.032,-0.0198 0.0286,-0.0598 0.14256,-0.0939 0.1091,-0.0327 0.22332,-0.044 0.25382,-0.0252 0.0309,0.0191 0.0421,0.0127 0.0253,-0.0145 -0.034,-0.055 0.28522,-0.16777 0.37619,-0.13286 0.0324,0.0124 0.14946,-0.009 0.26014,-0.0484 0.11068,-0.0391 0.21423,-0.058 0.23011,-0.0421 0.0159,0.0159 0.0289,0.003 0.0289,-0.0282 0,-0.0314 -0.0275,-0.0587 -0.0611,-0.0607 -0.0336,-0.002 0.1258,-0.0683 0.35427,-0.14736 0.22846,-0.079 0.44198,-0.13347 0.47449,-0.121 0.0844,0.0324 0.67154,-0.1738 0.60752,-0.21337 -0.0293,-0.0181 0.13344,-0.0937 0.36154,-0.16794 0.22811,-0.0743 0.43407,-0.12312 0.45769,-0.10852 0.0236,0.0146 0.14696,-0.009 0.27407,-0.0522 0.12712,-0.0433 0.20675,-0.0938 0.17697,-0.11222 -0.0298,-0.0184 0.12472,-0.0923 0.34334,-0.16408 0.21862,-0.0718 0.41682,-0.11867 0.44044,-0.10407 0.0236,0.0146 0.0429,8.7e-4 0.0429,-0.0305 0,-0.0314 0.033,-0.0443 0.0734,-0.0289 0.0403,0.0155 0.0733,0.004 0.0733,-0.0245 0,-0.0289 0.033,-0.0399 0.0734,-0.0245 0.0403,0.0155 0.0733,0.004 0.0733,-0.0245 0,-0.0289 0.033,-0.0399 0.0734,-0.0245 0.0403,0.0155 0.0733,0.009 0.0733,-0.0152 0,-0.0555 0.91226,-0.36105 0.97049,-0.32506 0.024,0.0149 0.18092,-0.0193 0.3486,-0.0759 0.16768,-0.0566 0.28093,-0.11775 0.25168,-0.13583 -0.0293,-0.0181 0.13343,-0.0936 0.36154,-0.16794 0.22811,-0.0743 0.43395,-0.12319 0.45742,-0.10868 0.0235,0.0145 0.17988,-0.0199 0.34756,-0.0766 0.16767,-0.0566 0.28093,-0.11775 0.25167,-0.13583 -0.0293,-0.0181 0.13344,-0.0937 0.36154,-0.16794 0.22811,-0.0743 0.43395,-0.1232 0.45743,-0.10869 0.0235,0.0145 0.17987,-0.0199 0.34755,-0.0766 0.16768,-0.0566 0.28093,-0.11775 0.25168,-0.13583 -0.0293,-0.0181 0.13343,-0.0937 0.36154,-0.16794 0.22811,-0.0743 0.43407,-0.12312 0.45769,-0.10852 0.0236,0.0146 0.14696,-0.009 0.27407,-0.0522 0.12712,-0.0433 0.20724,-0.0935 0.17805,-0.11154 -0.0292,-0.018 0.13357,-0.0936 0.36168,-0.16786 0.2281,-0.0743 0.43394,-0.1232 0.45742,-0.10869 0.0235,0.0145 0.17987,-0.02 0.34755,-0.0766 0.16768,-0.0566 0.28093,-0.11775 0.25168,-0.13584 -0.0293,-0.0181 0.13344,-0.0936 0.36154,-0.16794 0.22811,-0.0743 0.43395,-0.12319 0.45742,-0.10868 0.0235,0.0145 0.17988,-0.02 0.34756,-0.0766 0.16768,-0.0566 0.28093,-0.11775 0.25167,-0.13583 -0.0293,-0.0181 0.13344,-0.0936 0.36155,-0.16794 0.2281,-0.0743 0.43394,-0.12319 0.45742,-0.10868 0.0235,0.0145 0.17987,-0.02 0.34755,-0.0766 0.16768,-0.0566 0.28094,-0.11775 0.25168,-0.13583 -0.0293,-0.0181 0.13344,-0.0937 0.36154,-0.16794 0.22811,-0.0743 0.43395,-0.1232 0.45742,-0.10869 0.0235,0.0145 0.17988,-0.0199 0.34756,-0.0766 0.16768,-0.0566 0.28093,-0.11775 0.25167,-0.13583 -0.0292,-0.0181 0.13344,-0.0937 0.36155,-0.16795 0.2281,-0.0743 0.43429,-0.12298 0.45818,-0.10821 0.0608,0.0376 0.35345,-0.0705 0.32323,-0.11935 -0.0344,-0.0556 0.59607,-0.2593 0.66701,-0.21545 0.0361,0.0223 0.0446,0.0145 0.0227,-0.0209 -0.0324,-0.0523 -0.0127,-0.0607 0.17872,-0.076 0.0336,-0.003 0.0721,-0.0178 0.0856,-0.0336 0.045,-0.0527 0.353,-0.14167 0.39684,-0.11457 0.0238,0.0147 0.0433,0.005 0.0433,-0.021 0,-0.0585 0.90938,-0.36724 0.97048,-0.32947 0.0241,0.0149 0.18093,-0.0193 0.34861,-0.0759 0.16767,-0.0566 0.28093,-0.11775 0.25167,-0.13583 -0.0293,-0.0181 0.13344,-0.0937 0.36155,-0.16794 0.2281,-0.0743 0.43386,-0.12324 0.45725,-0.10879 0.0234,0.0144 0.21282,-0.031 0.42099,-0.10098 0.20816,-0.07 0.35401,-0.14237 0.32411,-0.16085 -0.0299,-0.0185 0.12451,-0.0924 0.34313,-0.16421 0.21863,-0.0718 0.41682,-0.11866 0.44044,-0.10407 0.0236,0.0146 0.0429,8.8e-4 0.0429,-0.0305 0,-0.0314 0.033,-0.0444 0.0734,-0.0289 0.0403,0.0155 0.0734,0.004 0.0734,-0.0245 0,-0.0289 0.0342,-0.0395 0.0759,-0.0235 0.0417,0.016 0.0651,0.0116 0.0519,-0.01 -0.0294,-0.0476 0.93023,-0.36803 0.99061,-0.33071 0.0237,0.0147 0.14711,-0.009 0.27423,-0.0521 0.12711,-0.0433 0.20724,-0.0935 0.17805,-0.11155 -0.0292,-0.018 0.13357,-0.0936 0.36167,-0.16786 0.22811,-0.0743 0.43395,-0.12319 0.45742,-0.10868 0.0235,0.0145 0.17988,-0.02 0.34756,-0.0766 0.16768,-0.0566 0.28093,-0.11775 0.25167,-0.13583 -0.0292,-0.0181 0.13344,-0.0936 0.36155,-0.16794 0.2281,-0.0743 0.43406,-0.12312 0.45769,-0.10852 0.0236,0.0146 0.14695,-0.009 0.27407,-0.0522 0.12711,-0.0433 0.20739,-0.0934 0.17839,-0.11134 -0.029,-0.0179 0.16669,-0.10451 0.43486,-0.19241 0.26818,-0.0879 0.50688,-0.14791 0.53045,-0.13335 0.0236,0.0146 0.18003,-0.0199 0.34771,-0.0765 0.16768,-0.0566 0.28093,-0.11775 0.25167,-0.13583 -0.0292,-0.0181 0.13344,-0.0937 0.36155,-0.167946 0.2281,-0.07429 0.43394,-0.123194 0.45742,-0.108685 0.0235,0.01451 0.17988,-0.01995 0.34755,-0.07658 0.16768,-0.05662 0.28094,-0.117749 0.25168,-0.135831 -0.0293,-0.01808 0.13344,-0.09365 0.36154,-0.167941 0.22811,-0.07429 0.43407,-0.123119 0.4577,-0.108518 0.0236,0.0146 0.14695,-0.0089 0.27407,-0.0522 0.12711,-0.04331 0.20723,-0.09351 0.17805,-0.111546 -0.0292,-0.01804 0.13356,-0.09358 0.36167,-0.167861 0.22811,-0.07429 0.43483,-0.122649 0.45938,-0.107473 0.0668,0.04126 0.20423,-0.02442 0.16933,-0.08089 -0.019,-0.03077 0.0107,-0.03602 0.0798,-0.01409 0.0825,0.02617 0.10038,0.01927 0.0715,-0.02752 -0.0275,-0.0444 -0.0151,-0.05343 0.0428,-0.03122 0.0448,0.0172 0.0814,0.0076 0.0814,-0.02137 0,-0.02893 0.0342,-0.0395 0.0759,-0.02348 0.0417,0.01602 0.0647,0.01107 0.0511,-0.01098 -0.0338,-0.05463 0.49537,-0.21732 0.56561,-0.173911 0.0325,0.02011 0.0428,0.01315 0.0244,-0.0166 -0.0336,-0.05445 0.18836,-0.131069 0.25695,-0.08868 0.0222,0.01369 0.17747,-0.02144 0.34515,-0.07806 0.16768,-0.05663 0.28093,-0.11775 0.25168,-0.135832 -0.0293,-0.01808 0.13344,-0.09365 0.36154,-0.16794 0.22811,-0.07429 0.43395,-0.123194 0.45742,-0.108685 0.0235,0.01451 0.18278,-0.02093 0.35401,-0.07876 0.17123,-0.05782 0.27884,-0.115963 0.23914,-0.129198 -0.0397,-0.01324 0.14516,-0.09693 0.41081,-0.185995 0.26566,-0.08906 0.50202,-0.150186 0.52524,-0.13583 0.0232,0.01436 0.0422,0.0071 0.0422,-0.01603 0,-0.06717 0.46212,-0.214878 0.56594,-0.180888 0.0626,0.0205 0.0738,0.01609 0.0334,-0.01313 -0.0677,-0.04898 0.59105,-0.284308 0.66608,-0.237936 0.0235,0.01452 0.14673,-0.009 0.27384,-0.05234 0.12712,-0.04331 0.20724,-0.09351 0.17806,-0.111546 -0.0292,-0.01804 0.13356,-0.09358 0.36167,-0.167862 0.2281,-0.07429 0.43394,-0.123194 0.45742,-0.108685 0.0235,0.01451 0.17988,-0.01995 0.34755,-0.07658 0.16768,-0.05663 0.28039,-0.11809 0.25046,-0.136587 -0.0299,-0.0185 0.067,-0.07191 0.2154,-0.118684 0.1484,-0.04678 0.29504,-0.06947 0.32587,-0.05042 0.0318,0.01963 0.0428,0.01319 0.0255,-0.01485 -0.0343,-0.0555 0.44007,-0.225508 0.5095,-0.1826 0.0241,0.01492 0.0439,0.0055 0.0439,-0.02086 0,-0.06227 0.32508,-0.169818 0.3907,-0.129257 0.0277,0.0171 0.097,0.01626 0.15413,-0.0019 0.0663,-0.02105 0.0837,-0.04541 0.048,-0.06744 -0.0312,-0.01929 0.0631,-0.07196 0.21402,-0.119542 0.1484,-0.04678 0.28877,-0.07334 0.31193,-0.05903 0.0232,0.01431 0.1793,-0.0203 0.34698,-0.07693 0.16768,-0.05663 0.28094,-0.11775 0.25168,-0.135832 -0.0292,-0.01808 0.13344,-0.09365 0.36155,-0.16794 0.2281,-0.07429 0.43406,-0.12312 0.45769,-0.108519 0.0236,0.0146 0.14695,-0.0089 0.27407,-0.0522 0.12711,-0.04331 0.20723,-0.09351 0.17805,-0.111546 -0.0292,-0.01804 0.13356,-0.09358 0.36167,-0.167861 0.22811,-0.07429 0.43395,-0.123194 0.45742,-0.108685 0.0235,0.01451 0.17988,-0.01995 0.34756,-0.07658 0.16768,-0.05663 0.28093,-0.11775 0.25167,-0.135831 -0.0434,-0.02684 0.67675,-0.297042 0.79173,-0.297042 0.0572,0 0.0351,0.248193 -0.0652,0.73355 -0.0528,0.25552 -0.10513,0.530601 -0.11625,0.611291 -0.0429,0.311588 -0.48825,2.34931 -0.74034,3.387652 -2.76973,11.408492 -7.89802,21.859712 -15.27306,31.125852 l -0.80765,1.01474 -15.28554,-5.3e-4 -15.28553,-5.2e-4 z m 12.98382,-14.68822 c 0,-0.0269 -0.0233,-0.0489 -0.0518,-0.0489 -0.0285,0 -0.0382,0.022 -0.0216,0.0489 0.0166,0.0269 0.0399,0.0489 0.0518,0.0489 0.0119,0 0.0216,-0.022 0.0216,-0.0489 z"
     id="path611"
     inkscape:connector-curvature="0" />
  <path
     style="fill:#ff7f2a;fill-opacity:1;stroke:#ff7f2a;stroke-width:0.04890329;stroke-linecap:round;stroke-linejoin:miter;stroke-opacity:1;paint-order:markers fill stroke"
     d="m 108.90467,124.64255 c -1.20294,-3.4898 -2.61772,-7.59467 -3.14395,-9.12193 -0.52624,-1.52726 -0.94308,-2.79903 -0.92632,-2.82615 0.0168,-0.0271 0.0754,-0.0351 0.1303,-0.0176 0.0621,0.0197 0.0882,0.0129 0.0691,-0.0181 -0.0394,-0.0638 0.97394,-0.40647 1.08075,-0.36549 0.0553,0.0212 0.0671,0.0117 0.04,-0.0323 -0.0289,-0.0468 -0.011,-0.0537 0.0714,-0.0275 0.0711,0.0225 0.099,0.017 0.0788,-0.0157 -0.0391,-0.0632 0.14299,-0.12548 0.22644,-0.0774 0.0346,0.0199 0.0443,0.0165 0.0221,-0.008 -0.0517,-0.0567 0.87644,-0.3678 0.97939,-0.3283 0.0554,0.0213 0.0673,0.0117 0.0401,-0.0323 -0.0289,-0.0468 -0.011,-0.0537 0.0715,-0.0275 0.07,0.0222 0.0989,0.0168 0.0793,-0.0149 -0.0394,-0.0638 1.12063,-0.45536 1.22755,-0.41433 0.0552,0.0212 0.0671,0.0116 0.0399,-0.0323 -0.0289,-0.0468 -0.011,-0.0537 0.0714,-0.0275 0.0711,0.0226 0.099,0.017 0.0788,-0.0157 -0.0391,-0.0632 0.14299,-0.12548 0.22644,-0.0774 0.0346,0.0199 0.0443,0.0165 0.0221,-0.008 -0.0517,-0.0567 0.87644,-0.3678 0.97939,-0.3283 0.0554,0.0213 0.0673,0.0117 0.0401,-0.0323 -0.0289,-0.0468 -0.011,-0.0537 0.0715,-0.0275 0.07,0.0222 0.0989,0.0168 0.0793,-0.0148 -0.0394,-0.0638 0.97393,-0.40647 1.08074,-0.36549 0.0553,0.0212 0.0671,0.0117 0.04,-0.0323 -0.0289,-0.0468 -0.011,-0.0537 0.0715,-0.0275 0.0799,0.0254 0.10001,0.0187 0.0734,-0.0245 -0.0267,-0.0431 -0.007,-0.0498 0.0734,-0.0245 0.071,0.0225 0.099,0.017 0.0788,-0.0157 -0.0391,-0.0632 0.14299,-0.12548 0.22644,-0.0774 0.0346,0.0199 0.0443,0.0165 0.0221,-0.008 -0.0517,-0.0567 0.87645,-0.36781 0.97939,-0.3283 0.0554,0.0213 0.0673,0.0117 0.0401,-0.0323 -0.0285,-0.0462 -0.0118,-0.054 0.0644,-0.0298 0.0566,0.018 0.1419,0.01 0.18951,-0.0177 0.0686,-0.0399 0.0713,-0.0515 0.0132,-0.0556 -0.0403,-0.003 0.14242,-0.0794 0.40615,-0.17008 0.26372,-0.0907 0.51491,-0.1513 0.55818,-0.13469 0.0554,0.0213 0.0673,0.0117 0.0401,-0.0323 -0.0289,-0.0468 -0.011,-0.0537 0.0715,-0.0275 0.071,0.0226 0.099,0.017 0.0788,-0.0157 -0.0391,-0.0632 0.14298,-0.12548 0.22643,-0.0774 0.0346,0.0199 0.0443,0.0165 0.0221,-0.008 -0.0517,-0.0567 0.87645,-0.3678 0.97939,-0.3283 0.0554,0.0213 0.0673,0.0117 0.0401,-0.0323 -0.0289,-0.0468 -0.011,-0.0537 0.0715,-0.0275 0.075,0.0238 0.0994,0.0177 0.0766,-0.0192 -0.0184,-0.0298 -0.0246,-0.0541 -0.0137,-0.0541 0.0109,0 0.56328,-0.186 1.22761,-0.41332 0.66433,-0.22733 1.24353,-0.39964 1.28711,-0.38292 0.0559,0.0215 0.0679,0.012 0.0406,-0.032 -0.0289,-0.0468 -0.011,-0.0537 0.0714,-0.0275 0.0711,0.0226 0.099,0.017 0.0788,-0.0157 -0.0391,-0.0632 0.14299,-0.12548 0.22644,-0.0774 0.0346,0.0199 0.0443,0.0165 0.0221,-0.008 -0.0517,-0.0567 0.87644,-0.3678 0.97939,-0.3283 0.0554,0.0213 0.0673,0.0117 0.0401,-0.0323 -0.0289,-0.0468 -0.011,-0.0537 0.0715,-0.0275 0.0711,0.0226 0.099,0.017 0.0788,-0.0157 -0.0391,-0.0632 0.14299,-0.12547 0.22644,-0.0774 0.0346,0.0199 0.0443,0.0165 0.022,-0.008 -0.0517,-0.0567 0.87645,-0.36781 0.97939,-0.3283 0.0554,0.0213 0.0673,0.0117 0.0401,-0.0323 -0.0289,-0.0468 -0.011,-0.0537 0.0714,-0.0275 0.0711,0.0226 0.099,0.017 0.0788,-0.0157 -0.0391,-0.0632 0.14299,-0.12548 0.22644,-0.0774 0.0346,0.0199 0.0443,0.0165 0.0221,-0.008 -0.0517,-0.0567 0.87644,-0.3678 0.97939,-0.3283 0.0554,0.0213 0.0673,0.0117 0.0401,-0.0323 -0.0289,-0.0468 -0.011,-0.0537 0.0715,-0.0275 0.07,0.0222 0.0989,0.0168 0.0793,-0.0148 -0.0394,-0.0638 0.97393,-0.40647 1.08074,-0.36549 0.0553,0.0212 0.0672,0.0117 0.04,-0.0323 -0.0289,-0.0468 -0.011,-0.0537 0.0715,-0.0275 0.0799,0.0254 0.10001,0.0187 0.0734,-0.0245 -0.0267,-0.0431 -0.007,-0.0498 0.0734,-0.0244 0.07,0.0222 0.0989,0.0168 0.0793,-0.0148 -0.0394,-0.0638 0.97394,-0.40648 1.08074,-0.36549 0.0553,0.0212 0.0671,0.0117 0.04,-0.0323 -0.0289,-0.0468 -0.011,-0.0537 0.0715,-0.0275 0.0711,0.0226 0.099,0.017 0.0788,-0.0157 -0.0391,-0.0632 0.14299,-0.12548 0.22644,-0.0774 0.0346,0.0199 0.0443,0.0165 0.022,-0.008 -0.0517,-0.0567 0.87645,-0.36781 0.97939,-0.3283 0.0554,0.0213 0.0673,0.0117 0.0401,-0.0323 -0.0289,-0.0468 -0.011,-0.0537 0.0715,-0.0275 0.0711,0.0226 0.099,0.017 0.0788,-0.0157 -0.0391,-0.0632 0.14298,-0.12548 0.22643,-0.0774 0.0346,0.0199 0.0443,0.0165 0.0221,-0.008 -0.0517,-0.0567 0.87645,-0.3678 0.97939,-0.3283 0.0554,0.0213 0.0673,0.0117 0.0401,-0.0323 -0.0289,-0.0468 -0.011,-0.0537 0.0715,-0.0275 0.0711,0.0226 0.099,0.017 0.0788,-0.0157 -0.0391,-0.0632 0.14299,-0.12548 0.22644,-0.0774 0.0346,0.0199 0.0443,0.0165 0.0221,-0.008 -0.0517,-0.0567 0.87644,-0.3678 0.97938,-0.3283 0.057,0.0219 0.0675,0.0121 0.0382,-0.0353 -0.0293,-0.0473 -0.0188,-0.0572 0.0377,-0.0355 0.043,0.0165 0.0851,0.0102 0.0936,-0.0141 0.025,-0.0717 2.43062,-0.8786 2.51866,-0.84482 0.0568,0.0218 0.0689,0.0125 0.0416,-0.0317 -0.0289,-0.0468 -0.011,-0.0537 0.0715,-0.0275 0.0711,0.0225 0.099,0.017 0.0788,-0.0157 -0.0391,-0.0632 0.14299,-0.12547 0.22644,-0.0774 0.0346,0.0199 0.0443,0.0165 0.0221,-0.008 -0.0517,-0.0567 0.87645,-0.36781 0.97939,-0.3283 0.0554,0.0213 0.0673,0.0117 0.0401,-0.0323 -0.0289,-0.0468 -0.011,-0.0537 0.0714,-0.0275 0.0706,0.0224 0.0989,0.0169 0.079,-0.0153 -0.0387,-0.0625 0.28897,-0.17602 0.3677,-0.12736 0.0316,0.0195 0.0447,0.0149 0.0291,-0.0103 -0.033,-0.0534 2.03857,-0.77587 2.20131,-0.76766 0.0618,0.003 0.0965,-0.0158 0.0795,-0.0434 -0.019,-0.0307 0.0108,-0.0359 0.0798,-0.014 0.07,0.0222 0.0989,0.0168 0.0793,-0.0148 -0.0394,-0.0638 0.97394,-0.40648 1.08075,-0.36549 0.0553,0.0212 0.0671,0.0117 0.04,-0.0323 -0.0289,-0.0468 -0.011,-0.0537 0.0714,-0.0275 0.0799,0.0254 0.10001,0.0187 0.0734,-0.0245 -0.0267,-0.0431 -0.007,-0.0498 0.0734,-0.0245 0.07,0.0222 0.0989,0.0168 0.0793,-0.0148 -0.0394,-0.0638 0.97393,-0.40647 1.08074,-0.36548 0.0499,0.0191 0.0665,0.0106 0.0454,-0.0235 -0.0406,-0.0657 0.13869,-0.12994 0.22455,-0.0805 0.0346,0.0199 0.0443,0.0165 0.022,-0.008 -0.0517,-0.0567 1.02327,-0.41665 1.12624,-0.37713 0.0553,0.0212 0.0671,0.0117 0.04,-0.0323 -0.0289,-0.0468 -0.011,-0.0537 0.0714,-0.0275 0.0711,0.0226 0.099,0.017 0.0788,-0.0157 -0.0391,-0.0632 0.14299,-0.12548 0.22644,-0.0774 0.0346,0.0199 0.0443,0.0165 0.0221,-0.008 -0.0517,-0.0567 0.87644,-0.367801 0.97939,-0.328299 0.0554,0.02126 0.0673,0.01172 0.0401,-0.03226 -0.0289,-0.04679 -0.011,-0.0537 0.0715,-0.02752 0.0711,0.02255 0.099,0.01699 0.0788,-0.01569 -0.0391,-0.06322 0.14299,-0.125479 0.22644,-0.07743 0.0346,0.01994 0.0443,0.01651 0.022,-0.0078 -0.0517,-0.05667 0.87645,-0.367802 0.97939,-0.3283 0.0554,0.02126 0.0673,0.01172 0.0401,-0.03226 -0.0289,-0.04679 -0.011,-0.05369 0.0714,-0.02752 0.07,0.02222 0.0989,0.01683 0.0793,-0.01482 -0.0341,-0.05517 0.98304,-0.414987 1.05222,-0.372232 0.0232,0.01433 0.0421,0.0073 0.0421,-0.01561 0,-0.04672 0.49197,-0.225159 0.55195,-0.200188 0.0212,0.0088 0.0542,-0.0062 0.0734,-0.03334 0.0535,-0.07561 0.69303,-0.266239 0.78055,-0.232653 0.0541,0.02078 0.0657,0.01095 0.0387,-0.03279 -0.0289,-0.0468 -0.011,-0.0537 0.0715,-0.02752 0.071,0.02255 0.099,0.01699 0.0788,-0.01569 -0.0391,-0.06322 0.14299,-0.12548 0.22644,-0.07743 0.0346,0.01994 0.0443,0.01651 0.0221,-0.0078 -0.0517,-0.05667 0.87645,-0.367802 0.97939,-0.328299 0.0554,0.02126 0.0673,0.01172 0.0401,-0.03226 -0.0289,-0.0468 -0.011,-0.0537 0.0715,-0.02752 0.0711,0.02255 0.099,0.01699 0.0788,-0.01569 -0.0391,-0.06322 0.14299,-0.12548 0.22644,-0.07743 0.0339,0.0195 0.0442,0.01644 0.0231,-0.0068 -0.0522,-0.0573 2.29044,-0.85908 2.39398,-0.81935 0.0578,0.02216 0.0701,0.01312 0.0427,-0.03127 -0.0289,-0.0468 -0.011,-0.0537 0.0714,-0.02752 0.07,0.02222 0.0989,0.01682 0.0793,-0.01482 -0.0394,-0.06378 0.97393,-0.40647 1.08074,-0.365484 0.0553,0.02122 0.0671,0.01166 0.04,-0.0323 -0.0289,-0.04679 -0.011,-0.0537 0.0715,-0.02752 0.0711,0.02255 0.099,0.01699 0.0788,-0.01569 -0.0386,-0.06238 0.1434,-0.126148 0.22177,-0.07771 0.0319,0.01974 0.0438,0.01401 0.0271,-0.01306 -0.0165,-0.02665 0.095,-0.08697 0.24919,-0.134821 0.15344,-0.04763 0.345,-0.113617 0.4257,-0.14664 0.40892,-0.167356 0.95585,-0.325856 1.0122,-0.293337 0.0359,0.02074 0.0465,0.01794 0.0242,-0.0064 -0.0517,-0.05667 0.58266,-0.27019 0.68551,-0.230725 0.0557,0.02139 0.0677,0.01192 0.0405,-0.03212 -0.0289,-0.04679 -0.011,-0.0537 0.0715,-0.02752 0.0711,0.02255 0.099,0.01699 0.0788,-0.01569 -0.0391,-0.06322 0.14299,-0.125479 0.22644,-0.07743 0.0346,0.01994 0.0443,0.01651 0.0221,-0.0078 -0.0517,-0.05667 0.87645,-0.367802 0.97939,-0.3283 0.0554,0.02126 0.0673,0.01172 0.0401,-0.03226 -0.0289,-0.04679 -0.011,-0.0537 0.0714,-0.02752 0.07,0.02222 0.0989,0.01683 0.0793,-0.01482 -0.0394,-0.06378 0.97393,-0.406471 1.08074,-0.365485 0.0553,0.02122 0.0671,0.01166 0.04,-0.0323 -0.0289,-0.04679 -0.011,-0.0537 0.0715,-0.02752 0.0799,0.02537 0.10001,0.01868 0.0734,-0.02445 -0.0266,-0.04313 -0.007,-0.04982 0.0734,-0.02445 0.0703,0.02232 0.0989,0.01687 0.0791,-0.01507 -0.0255,-0.04127 0.77882,-0.351704 0.91126,-0.351704 0.0201,0 0.0366,0.05355 0.0366,0.119003 0,0.290805 -0.61024,3.28407 -0.68951,3.382083 -0.0238,0.02937 -0.0302,0.06638 -0.0144,0.08224 0.0399,0.03991 -0.81108,3.430381 -0.86611,3.450691 -0.0244,0.009 -0.0336,0.0339 -0.0204,0.0553 0.0785,0.12692 -1.30412,4.48534 -2.10384,6.63219 -0.60361,1.62038 -1.78399,4.5011 -1.87145,4.56726 -0.0186,0.014 -0.0396,0.0614 -0.0468,0.10529 -0.0214,0.13063 -0.70176,1.58154 -0.75003,1.59935 -0.0245,0.009 -0.0344,0.0326 -0.0222,0.0524 0.0657,0.10638 -2.73301,5.48169 -2.85415,5.48169 -0.0201,0 -0.0365,0.0289 -0.0365,0.0642 0,0.14514 -1.75104,3.00056 -2.86208,4.66719 -1.38027,2.07049 -3.86038,5.44049 -4.00386,5.44049 -0.0251,0 -0.0402,0.0191 -0.0335,0.0425 0.007,0.0233 -0.18208,0.28743 -0.41957,0.58684 l -0.43181,0.54437 -15.2906,-1.1e-4 -15.29061,-1.1e-4 z"
     id="path613"
     inkscape:connector-curvature="0" />
  <path
     style="fill:#ff7f2a;fill-opacity:1;stroke:#ff7f2a;stroke-width:0.04890329;stroke-linecap:round;stroke-linejoin:miter;stroke-opacity:1;paint-order:markers fill stroke"
     d="m 110.24572,128.55492 c -0.461,-1.33811 -0.91817,-2.664 -1.01593,-2.94642 -0.8392,-2.42425 -2.55168,-7.4028 -3.47364,-10.09853 -0.46913,-1.37174 -0.87445,-2.54462 -0.90069,-2.6064 -0.0928,-0.21861 -0.0888,-0.22113 0.88145,-0.54681 0.30931,-0.10382 0.82294,-0.27865 1.1414,-0.3885 0.31846,-0.10985 0.59904,-0.18735 0.62352,-0.17222 0.0245,0.0151 0.0445,0.008 0.0445,-0.0165 0,-0.0355 0.3459,-0.1789 0.44013,-0.18245 0.0135,-5.1e-4 0.0509,-0.0177 0.0832,-0.0382 0.11127,-0.0707 0.81125,-0.27608 0.85304,-0.25026 0.023,0.0142 0.0419,0.005 0.0419,-0.0202 0,-0.0254 0.0385,-0.0581 0.0856,-0.0729 0.0471,-0.0147 0.41568,-0.14075 0.81913,-0.28006 0.40345,-0.13932 1.04164,-0.35891 1.41819,-0.48799 0.37656,-0.12908 1.01018,-0.34743 1.40806,-0.48523 0.39787,-0.13781 0.74998,-0.23531 0.78245,-0.21667 0.0329,0.0189 0.0416,0.0148 0.0195,-0.009 -0.0445,-0.0487 0.88459,-0.37604 0.95089,-0.33506 0.0232,0.0144 0.0422,0.005 0.0422,-0.02 0,-0.0254 0.0385,-0.0578 0.0856,-0.0721 0.0471,-0.0143 0.47069,-0.16141 0.94139,-0.32691 0.47069,-0.16551 0.96584,-0.33385 1.10032,-0.37409 0.13449,-0.0402 0.28947,-0.095 0.34442,-0.12175 0.0549,-0.0267 0.13196,-0.055 0.17116,-0.0628 0.0392,-0.008 0.11528,-0.0307 0.16907,-0.0508 0.31458,-0.11778 0.44285,-0.16342 0.46458,-0.16532 0.0134,-0.001 0.0575,-0.0143 0.0978,-0.0292 0.37624,-0.13889 0.65466,-0.21783 0.69038,-0.19575 0.0237,0.0147 0.0432,0.006 0.0432,-0.0194 0,-0.0253 0.0385,-0.0577 0.0856,-0.0718 0.0471,-0.0142 0.53671,-0.18257 1.0881,-0.37423 1.11614,-0.38796 2.15044,-0.74055 2.2251,-0.75854 0.0269,-0.006 0.0819,-0.026 0.12225,-0.0434 0.0403,-0.0174 0.26041,-0.0957 0.48904,-0.17409 0.22862,-0.0784 0.88881,-0.30579 1.4671,-0.50538 0.57828,-0.19958 1.06242,-0.36521 1.07587,-0.36808 0.0292,-0.006 0.0566,-0.0159 0.57461,-0.20452 0.2219,-0.0808 0.40345,-0.13371 0.40345,-0.11765 0,0.0161 0.0275,0.007 0.0611,-0.0209 0.0336,-0.0276 0.25919,-0.11659 0.50126,-0.19786 0.47212,-0.15848 1.14867,-0.39096 3.08091,-1.05863 0.67242,-0.23235 1.59669,-0.55119 2.05394,-0.70854 0.45724,-0.15735 1.3155,-0.45455 1.90723,-0.66044 1.30534,-0.45418 3.79571,-1.30553 3.86336,-1.32072 0.0269,-0.006 0.0819,-0.0249 0.12226,-0.0419 0.1031,-0.0435 1.33954,-0.47867 1.36929,-0.4819 0.0135,-0.001 0.0795,-0.0237 0.14671,-0.0494 0.17343,-0.0664 1.19318,-0.41776 1.22258,-0.42128 0.0135,-0.002 0.0575,-0.015 0.0978,-0.0297 0.75234,-0.27396 1.12363,-0.405124 1.4671,-0.518285 0.22862,-0.07532 0.74577,-0.251303 1.14922,-0.391065 0.40345,-0.139761 1.01964,-0.353257 1.36929,-0.474433 0.96884,-0.335758 1.98061,-0.684335 2.73859,-0.943502 0.37655,-0.128752 0.96523,-0.334171 1.30816,-0.456487 0.34294,-0.122316 0.62352,-0.209919 0.62352,-0.194673 0,0.01525 0.0275,0.0051 0.0611,-0.02261 0.089,-0.0733 1.26877,-0.450571 1.31658,-0.421025 0.0223,0.01376 0.0405,0.0043 0.0405,-0.02106 0,-0.02535 0.0385,-0.0583 0.0856,-0.07322 0.20352,-0.06454 1.39804,-0.480249 1.8461,-0.642461 0.26896,-0.09738 0.58806,-0.20682 0.70909,-0.243206 0.12104,-0.03639 0.55017,-0.181225 0.95362,-0.321865 0.40345,-0.14064 1.04164,-0.361194 1.41819,-0.490119 2.06159,-0.70585 2.41215,-0.828082 2.57965,-0.899461 0.10086,-0.04298 0.18339,-0.06245 0.18339,-0.04326 0,0.01919 0.0264,0.0085 0.0587,-0.0238 0.0323,-0.03228 0.0983,-0.05868 0.14671,-0.05868 0.1371,0 0.11404,0.235132 -0.15348,1.564906 -0.96274,4.785716 -2.34182,9.450526 -4.09868,13.864086 -0.20343,0.51104 -0.38292,0.94016 -0.39887,0.95361 -0.016,0.0134 -0.0356,0.0636 -0.0437,0.11153 -0.031,0.1837 -1.03312,2.4485 -1.7574,3.9719 -0.67791,1.42585 -1.85124,3.6709 -2.53027,4.84142 -0.14043,0.24208 -0.42712,0.73722 -0.63709,1.10033 -1.5863,2.74326 -4.17104,6.52308 -6.23962,9.12459 -0.27983,0.35193 -0.62983,0.7967 -0.77776,0.98837 l -0.26897,0.34851 -15.31069,0.002 -15.31069,0.002 z"
     id="path615"
     inkscape:connector-curvature="0" />
  <path
     style="fill:#ff7f2a;fill-opacity:1;stroke:#ff7f2a;stroke-width:0.02445165;stroke-linecap:round;stroke-linejoin:miter;stroke-opacity:1;paint-order:markers fill stroke"
     d="m 117.76751,150.46987 c -0.0224,-0.0359 -0.0226,-0.0494 -7e-4,-0.0567 0.0294,-0.01 -6.61923,-19.3415 -6.67022,-19.3943 -0.0264,-0.0273 -0.0705,-0.15318 -0.93958,-2.67944 -0.28452,-0.82708 -0.54389,-1.57805 -0.57637,-1.66883 l -0.059,-0.16505 h 16.61436 16.61437 v 1.58325 1.58324 l -0.51637,0.6602 c -0.32756,0.41878 -0.53592,0.66466 -0.56982,0.67242 -0.0308,0.007 -0.19189,0.17767 -0.38083,0.40345 -2.62052,3.13124 -5.56372,6.13755 -8.66818,8.85383 -4.36161,3.81624 -9.10991,7.13423 -14.19033,9.91585 -0.34082,0.18661 -0.6215,0.33928 -0.62375,0.33928 -0.002,0 -0.0173,-0.0212 -0.0335,-0.0472 z"
     id="path617"
     inkscape:connector-curvature="0" />
</svg>
